STARTFONT 2.1
FONT -FontForge-7:12 Serif-Book-R-Normal--16-160-72-72-P-80-ISO10646-1
SIZE 16 72 72
FONTBOUNDINGBOX 18 12 -5 -2
COMMENT "Generated by fontforge, http://fontforge.sourceforge.net"
COMMENT "Copyright CMunk 2009"
STARTPROPERTIES 40
FOUNDRY "FontForge"
FAMILY_NAME "7:12 Serif"
WEIGHT_NAME "Book"
SLANT "R"
SETWIDTH_NAME "Normal"
ADD_STYLE_NAME ""
PIXEL_SIZE 16
POINT_SIZE 160
RESOLUTION_X 72
RESOLUTION_Y 72
SPACING "P"
AVERAGE_WIDTH 80
CHARSET_REGISTRY "ISO10646"
CHARSET_ENCODING "1"
FONTNAME_REGISTRY ""
CHARSET_COLLECTIONS "ASCII ISOLatin1Encoding ISO8859-2 ISO8859-5 ISO8859-7 ISO8859-9 ISO8859-8 ISO8859-6 ISO8859-4 ISO8859-11 JISX0208.1997 GB2312.1980 ISO10646-1"
FONT_NAME "7:12-Serif"
FACE_NAME "7:12 Serif Regular"
COPYRIGHT "Copyright CMunk 2009"
FONT_VERSION "1.0"
FONT_ASCENT 13
FONT_DESCENT 3
UNDERLINE_POSITION 1
UNDERLINE_THICKNESS 1
X_HEIGHT 5
CAP_HEIGHT 6
RAW_ASCENT 799
RAW_DESCENT 200
NORM_SPACE 8
RELATIVE_WEIGHT 40
RELATIVE_SETWIDTH 50
SUPERSCRIPT_X 0
SUPERSCRIPT_Y 8
SUPERSCRIPT_SIZE 8
SUBSCRIPT_X 0
SUBSCRIPT_Y -1
SUBSCRIPT_SIZE 8
FIGURE_WIDTH 8
AVG_LOWERCASE_WIDTH 80
AVG_UPPERCASE_WIDTH 80
ENDPROPERTIES
CHARS 6818
STARTCHAR space
ENCODING 32
SWIDTH 500 0
DWIDTH 8 0
BBX 1 1 0 0
BITMAP
00
ENDCHAR
STARTCHAR exclam
ENCODING 33
SWIDTH 500 0
DWIDTH 8 0
BBX 2 8 2 0
BITMAP
C0
C0
C0
40
40
00
C0
C0
ENDCHAR
STARTCHAR quotedbl
ENCODING 34
SWIDTH 500 0
DWIDTH 8 0
BBX 5 4 1 4
BITMAP
D8
D8
48
90
ENDCHAR
STARTCHAR numbersign
ENCODING 35
SWIDTH 500 0
DWIDTH 8 0
BBX 7 7 0 0
BITMAP
14
14
7E
28
FC
50
50
ENDCHAR
STARTCHAR dollar
ENCODING 36
SWIDTH 500 0
DWIDTH 8 0
BBX 7 9 0 -1
BITMAP
10
7A
96
90
7C
12
D2
BC
10
ENDCHAR
STARTCHAR percent
ENCODING 37
SWIDTH 500 0
DWIDTH 8 0
BBX 7 7 0 0
BITMAP
42
A4
48
10
24
4A
84
ENDCHAR
STARTCHAR ampersand
ENCODING 38
SWIDTH 500 0
DWIDTH 8 0
BBX 7 8 0 0
BITMAP
30
48
48
30
52
8A
84
7A
ENDCHAR
STARTCHAR quotesingle
ENCODING 39
SWIDTH 500 0
DWIDTH 8 0
BBX 2 4 2 4
BITMAP
C0
C0
40
80
ENDCHAR
STARTCHAR parenleft
ENCODING 40
SWIDTH 500 0
DWIDTH 8 0
BBX 3 10 2 -2
BITMAP
20
40
40
80
80
80
80
40
40
20
ENDCHAR
STARTCHAR parenright
ENCODING 41
SWIDTH 500 0
DWIDTH 8 0
BBX 3 10 2 -2
BITMAP
80
40
40
20
20
20
20
40
40
80
ENDCHAR
STARTCHAR asterisk
ENCODING 42
SWIDTH 500 0
DWIDTH 8 0
BBX 3 3 2 5
BITMAP
A0
40
A0
ENDCHAR
STARTCHAR plus
ENCODING 43
SWIDTH 500 0
DWIDTH 8 0
BBX 5 5 1 1
BITMAP
20
20
F8
20
20
ENDCHAR
STARTCHAR comma
ENCODING 44
SWIDTH 500 0
DWIDTH 8 0
BBX 2 4 2 -2
BITMAP
C0
C0
40
80
ENDCHAR
STARTCHAR hyphen
ENCODING 45
SWIDTH 500 0
DWIDTH 8 0
BBX 5 1 1 3
BITMAP
F8
ENDCHAR
STARTCHAR period
ENCODING 46
SWIDTH 500 0
DWIDTH 8 0
BBX 2 2 2 0
BITMAP
C0
C0
ENDCHAR
STARTCHAR slash
ENCODING 47
SWIDTH 500 0
DWIDTH 8 0
BBX 5 10 1 -2
BITMAP
08
08
10
10
20
20
40
40
80
80
ENDCHAR
STARTCHAR zero
ENCODING 48
SWIDTH 500 0
DWIDTH 8 0
BBX 5 7 1 0
BITMAP
70
88
88
88
88
88
70
ENDCHAR
STARTCHAR one
ENCODING 49
SWIDTH 500 0
DWIDTH 8 0
BBX 5 7 1 0
BITMAP
20
E0
20
20
20
20
F8
ENDCHAR
STARTCHAR two
ENCODING 50
SWIDTH 500 0
DWIDTH 8 0
BBX 5 7 1 0
BITMAP
70
88
08
30
40
88
F8
ENDCHAR
STARTCHAR three
ENCODING 51
SWIDTH 500 0
DWIDTH 8 0
BBX 5 7 1 0
BITMAP
70
88
08
30
08
88
70
ENDCHAR
STARTCHAR four
ENCODING 52
SWIDTH 500 0
DWIDTH 8 0
BBX 5 7 1 0
BITMAP
50
50
90
90
F8
10
38
ENDCHAR
STARTCHAR five
ENCODING 53
SWIDTH 500 0
DWIDTH 8 0
BBX 5 7 1 0
BITMAP
F8
80
F0
08
08
88
70
ENDCHAR
STARTCHAR six
ENCODING 54
SWIDTH 500 0
DWIDTH 8 0
BBX 5 7 1 0
BITMAP
70
88
80
F0
88
88
70
ENDCHAR
STARTCHAR seven
ENCODING 55
SWIDTH 500 0
DWIDTH 8 0
BBX 5 7 1 0
BITMAP
F8
88
10
10
20
20
20
ENDCHAR
STARTCHAR eight
ENCODING 56
SWIDTH 500 0
DWIDTH 8 0
BBX 5 7 1 0
BITMAP
70
88
70
88
88
88
70
ENDCHAR
STARTCHAR nine
ENCODING 57
SWIDTH 500 0
DWIDTH 8 0
BBX 5 7 1 0
BITMAP
70
88
88
78
08
88
70
ENDCHAR
STARTCHAR colon
ENCODING 58
SWIDTH 500 0
DWIDTH 8 0
BBX 2 6 2 0
BITMAP
C0
C0
00
00
C0
C0
ENDCHAR
STARTCHAR semicolon
ENCODING 59
SWIDTH 500 0
DWIDTH 8 0
BBX 2 8 2 -2
BITMAP
C0
C0
00
00
C0
C0
40
80
ENDCHAR
STARTCHAR less
ENCODING 60
SWIDTH 500 0
DWIDTH 8 0
BBX 5 5 1 1
BITMAP
18
60
80
60
18
ENDCHAR
STARTCHAR equal
ENCODING 61
SWIDTH 500 0
DWIDTH 8 0
BBX 5 3 1 2
BITMAP
F8
00
F8
ENDCHAR
STARTCHAR greater
ENCODING 62
SWIDTH 500 0
DWIDTH 8 0
BBX 5 5 1 1
BITMAP
C0
30
08
30
C0
ENDCHAR
STARTCHAR question
ENCODING 63
SWIDTH 500 0
DWIDTH 8 0
BBX 6 8 0 0
BITMAP
78
CC
CC
18
30
00
30
30
ENDCHAR
STARTCHAR at
ENCODING 64
SWIDTH 500 0
DWIDTH 8 0
BBX 7 10 0 -2
BITMAP
38
44
92
AA
AA
AA
AA
94
40
3C
ENDCHAR
STARTCHAR A
ENCODING 65
SWIDTH 500 0
DWIDTH 8 0
BBX 7 7 0 0
BITMAP
10
28
28
44
7C
44
EE
ENDCHAR
STARTCHAR B
ENCODING 66
SWIDTH 500 0
DWIDTH 8 0
BBX 7 7 0 0
BITMAP
F0
48
48
7C
42
42
FC
ENDCHAR
STARTCHAR C
ENCODING 67
SWIDTH 500 0
DWIDTH 8 0
BBX 7 7 0 0
BITMAP
3A
46
80
80
82
44
38
ENDCHAR
STARTCHAR D
ENCODING 68
SWIDTH 500 0
DWIDTH 8 0
BBX 7 7 0 0
BITMAP
F8
44
42
42
42
44
F8
ENDCHAR
STARTCHAR E
ENCODING 69
SWIDTH 500 0
DWIDTH 8 0
BBX 7 7 0 0
BITMAP
FE
42
48
78
48
42
FE
ENDCHAR
STARTCHAR F
ENCODING 70
SWIDTH 500 0
DWIDTH 8 0
BBX 7 7 0 0
BITMAP
FE
42
48
78
48
40
E0
ENDCHAR
STARTCHAR G
ENCODING 71
SWIDTH 500 0
DWIDTH 8 0
BBX 7 7 0 0
BITMAP
3A
46
80
8E
82
46
3A
ENDCHAR
STARTCHAR H
ENCODING 72
SWIDTH 500 0
DWIDTH 8 0
BBX 7 7 0 0
BITMAP
EE
44
44
7C
44
44
EE
ENDCHAR
STARTCHAR I
ENCODING 73
SWIDTH 500 0
DWIDTH 8 0
BBX 3 7 2 0
BITMAP
E0
40
40
40
40
40
E0
ENDCHAR
STARTCHAR J
ENCODING 74
SWIDTH 500 0
DWIDTH 8 0
BBX 6 7 1 0
BITMAP
1C
08
08
08
88
88
70
ENDCHAR
STARTCHAR K
ENCODING 75
SWIDTH 500 0
DWIDTH 8 0
BBX 7 7 0 0
BITMAP
EE
44
48
70
48
44
EE
ENDCHAR
STARTCHAR L
ENCODING 76
SWIDTH 500 0
DWIDTH 8 0
BBX 7 7 0 0
BITMAP
E0
40
40
40
40
42
FE
ENDCHAR
STARTCHAR M
ENCODING 77
SWIDTH 500 0
DWIDTH 8 0
BBX 7 7 0 0
BITMAP
C6
6C
54
54
44
44
EE
ENDCHAR
STARTCHAR N
ENCODING 78
SWIDTH 500 0
DWIDTH 8 0
BBX 7 7 0 0
BITMAP
CE
64
54
54
54
4C
E4
ENDCHAR
STARTCHAR O
ENCODING 79
SWIDTH 500 0
DWIDTH 8 0
BBX 7 7 0 0
BITMAP
38
44
82
82
82
44
38
ENDCHAR
STARTCHAR P
ENCODING 80
SWIDTH 500 0
DWIDTH 8 0
BBX 7 7 0 0
BITMAP
FC
42
42
62
5C
40
E0
ENDCHAR
STARTCHAR Q
ENCODING 81
SWIDTH 500 0
DWIDTH 8 0
BBX 7 7 0 0
BITMAP
38
44
82
B2
8A
44
3A
ENDCHAR
STARTCHAR R
ENCODING 82
SWIDTH 500 0
DWIDTH 8 0
BBX 7 7 0 0
BITMAP
FC
42
42
7C
48
44
EE
ENDCHAR
STARTCHAR S
ENCODING 83
SWIDTH 500 0
DWIDTH 8 0
BBX 7 7 0 0
BITMAP
7A
86
80
7C
02
C2
BC
ENDCHAR
STARTCHAR T
ENCODING 84
SWIDTH 500 0
DWIDTH 8 0
BBX 7 7 0 0
BITMAP
FE
92
10
10
10
10
38
ENDCHAR
STARTCHAR U
ENCODING 85
SWIDTH 500 0
DWIDTH 8 0
BBX 7 7 0 0
BITMAP
EE
44
44
44
44
44
38
ENDCHAR
STARTCHAR V
ENCODING 86
SWIDTH 500 0
DWIDTH 8 0
BBX 7 7 0 0
BITMAP
EE
44
44
44
28
28
10
ENDCHAR
STARTCHAR W
ENCODING 87
SWIDTH 500 0
DWIDTH 8 0
BBX 7 7 0 0
BITMAP
EE
44
44
54
54
28
28
ENDCHAR
STARTCHAR X
ENCODING 88
SWIDTH 500 0
DWIDTH 8 0
BBX 7 7 0 0
BITMAP
EE
44
28
10
28
44
EE
ENDCHAR
STARTCHAR Y
ENCODING 89
SWIDTH 500 0
DWIDTH 8 0
BBX 7 7 0 0
BITMAP
EE
44
28
10
10
10
38
ENDCHAR
STARTCHAR Z
ENCODING 90
SWIDTH 500 0
DWIDTH 8 0
BBX 7 7 0 0
BITMAP
FE
84
08
10
20
42
FE
ENDCHAR
STARTCHAR bracketleft
ENCODING 91
SWIDTH 500 0
DWIDTH 8 0
BBX 3 10 2 -2
BITMAP
E0
80
80
80
80
80
80
80
80
E0
ENDCHAR
STARTCHAR backslash
ENCODING 92
SWIDTH 500 0
DWIDTH 8 0
BBX 5 10 1 -2
BITMAP
80
80
40
40
20
20
10
10
08
08
ENDCHAR
STARTCHAR bracketright
ENCODING 93
SWIDTH 500 0
DWIDTH 8 0
BBX 3 10 2 -2
BITMAP
E0
20
20
20
20
20
20
20
20
E0
ENDCHAR
STARTCHAR asciicircum
ENCODING 94
SWIDTH 500 0
DWIDTH 8 0
BBX 5 4 1 4
BITMAP
20
50
50
88
ENDCHAR
STARTCHAR underscore
ENCODING 95
SWIDTH 500 0
DWIDTH 8 0
BBX 7 1 0 -1
BITMAP
FE
ENDCHAR
STARTCHAR grave
ENCODING 96
SWIDTH 500 0
DWIDTH 8 0
BBX 3 3 2 6
BITMAP
80
40
20
ENDCHAR
STARTCHAR a
ENCODING 97
SWIDTH 500 0
DWIDTH 8 0
BBX 6 6 1 0
BITMAP
70
88
18
68
88
74
ENDCHAR
STARTCHAR b
ENCODING 98
SWIDTH 500 0
DWIDTH 8 0
BBX 6 8 0 0
BITMAP
C0
40
58
64
44
44
44
B8
ENDCHAR
STARTCHAR c
ENCODING 99
SWIDTH 500 0
DWIDTH 8 0
BBX 5 6 1 0
BITMAP
68
98
80
80
88
70
ENDCHAR
STARTCHAR d
ENCODING 100
SWIDTH 500 0
DWIDTH 8 0
BBX 6 8 1 0
BITMAP
18
08
78
88
88
88
98
6C
ENDCHAR
STARTCHAR e
ENCODING 101
SWIDTH 500 0
DWIDTH 8 0
BBX 5 6 1 0
BITMAP
70
88
F8
80
88
70
ENDCHAR
STARTCHAR f
ENCODING 102
SWIDTH 500 0
DWIDTH 8 0
BBX 4 8 2 0
BITMAP
30
40
40
E0
40
40
40
E0
ENDCHAR
STARTCHAR g
ENCODING 103
SWIDTH 500 0
DWIDTH 8 0
BBX 6 8 1 -2
BITMAP
74
88
88
70
40
B0
88
70
ENDCHAR
STARTCHAR h
ENCODING 104
SWIDTH 500 0
DWIDTH 8 0
BBX 7 8 0 0
BITMAP
C0
40
58
64
44
44
44
E6
ENDCHAR
STARTCHAR i
ENCODING 105
SWIDTH 500 0
DWIDTH 8 0
BBX 3 8 2 0
BITMAP
40
00
C0
40
40
40
40
E0
ENDCHAR
STARTCHAR j
ENCODING 106
SWIDTH 500 0
DWIDTH 8 0
BBX 3 10 1 -2
BITMAP
20
00
60
20
20
20
20
20
20
C0
ENDCHAR
STARTCHAR k
ENCODING 107
SWIDTH 500 0
DWIDTH 8 0
BBX 7 8 0 0
BITMAP
C0
40
4E
44
78
48
44
EE
ENDCHAR
STARTCHAR l
ENCODING 108
SWIDTH 500 0
DWIDTH 8 0
BBX 3 8 2 0
BITMAP
C0
40
40
40
40
40
40
E0
ENDCHAR
STARTCHAR m
ENCODING 109
SWIDTH 500 0
DWIDTH 8 0
BBX 7 6 0 0
BITMAP
E8
54
54
54
54
D6
ENDCHAR
STARTCHAR n
ENCODING 110
SWIDTH 500 0
DWIDTH 8 0
BBX 7 6 0 0
BITMAP
D8
64
44
44
44
E6
ENDCHAR
STARTCHAR o
ENCODING 111
SWIDTH 500 0
DWIDTH 8 0
BBX 5 6 1 0
BITMAP
70
88
88
88
88
70
ENDCHAR
STARTCHAR p
ENCODING 112
SWIDTH 500 0
DWIDTH 8 0
BBX 6 8 0 -2
BITMAP
D8
64
44
44
44
78
40
E0
ENDCHAR
STARTCHAR q
ENCODING 113
SWIDTH 500 0
DWIDTH 8 0
BBX 6 8 1 -2
BITMAP
74
88
88
88
98
68
08
1C
ENDCHAR
STARTCHAR r
ENCODING 114
SWIDTH 500 0
DWIDTH 8 0
BBX 6 6 0 0
BITMAP
D8
64
40
40
40
E0
ENDCHAR
STARTCHAR s
ENCODING 115
SWIDTH 500 0
DWIDTH 8 0
BBX 5 6 1 0
BITMAP
68
98
60
10
C8
B0
ENDCHAR
STARTCHAR t
ENCODING 116
SWIDTH 500 0
DWIDTH 8 0
BBX 4 7 2 0
BITMAP
40
F0
40
40
40
50
20
ENDCHAR
STARTCHAR u
ENCODING 117
SWIDTH 500 0
DWIDTH 8 0
BBX 7 6 0 0
BITMAP
CC
44
44
44
4C
36
ENDCHAR
STARTCHAR v
ENCODING 118
SWIDTH 500 0
DWIDTH 8 0
BBX 7 6 0 0
BITMAP
EE
44
44
28
28
10
ENDCHAR
STARTCHAR w
ENCODING 119
SWIDTH 500 0
DWIDTH 8 0
BBX 7 6 0 0
BITMAP
EE
44
54
54
28
28
ENDCHAR
STARTCHAR x
ENCODING 120
SWIDTH 500 0
DWIDTH 8 0
BBX 7 6 0 0
BITMAP
EE
44
38
28
44
EE
ENDCHAR
STARTCHAR y
ENCODING 121
SWIDTH 500 0
DWIDTH 8 0
BBX 7 8 0 -2
BITMAP
EE
44
44
28
28
10
10
60
ENDCHAR
STARTCHAR z
ENCODING 122
SWIDTH 500 0
DWIDTH 8 0
BBX 5 6 1 0
BITMAP
F8
88
30
40
88
F8
ENDCHAR
STARTCHAR braceleft
ENCODING 123
SWIDTH 500 0
DWIDTH 8 0
BBX 5 10 1 -2
BITMAP
18
20
20
20
C0
20
20
20
20
18
ENDCHAR
STARTCHAR bar
ENCODING 124
SWIDTH 500 0
DWIDTH 8 0
BBX 1 10 3 -2
BITMAP
80
80
80
80
80
80
80
80
80
80
ENDCHAR
STARTCHAR braceright
ENCODING 125
SWIDTH 500 0
DWIDTH 8 0
BBX 5 10 1 -2
BITMAP
C0
20
20
20
18
20
20
20
20
C0
ENDCHAR
STARTCHAR asciitilde
ENCODING 126
SWIDTH 500 0
DWIDTH 8 0
BBX 7 3 0 2
BITMAP
62
92
8C
ENDCHAR
STARTCHAR exclamdown
ENCODING 161
SWIDTH 500 0
DWIDTH 8 0
BBX 2 8 3 -2
BITMAP
C0
C0
00
80
80
C0
C0
C0
ENDCHAR
STARTCHAR cent
ENCODING 162
SWIDTH 500 0
DWIDTH 8 0
BBX 5 8 1 -1
BITMAP
20
68
B8
A0
A0
A8
70
20
ENDCHAR
STARTCHAR sterling
ENCODING 163
SWIDTH 500 0
DWIDTH 8 0
BBX 7 7 0 0
BITMAP
38
44
40
F0
40
42
BC
ENDCHAR
STARTCHAR currency
ENCODING 164
SWIDTH 500 0
DWIDTH 8 0
BBX 5 5 1 1
BITMAP
88
70
50
70
88
ENDCHAR
STARTCHAR yen
ENCODING 165
SWIDTH 500 0
DWIDTH 8 0
BBX 7 7 0 0
BITMAP
EE
44
28
7C
10
7C
10
ENDCHAR
STARTCHAR brokenbar
ENCODING 166
SWIDTH 500 0
DWIDTH 8 0
BBX 1 10 3 -2
BITMAP
80
80
80
80
00
00
80
80
80
80
ENDCHAR
STARTCHAR section
ENCODING 167
SWIDTH 500 0
DWIDTH 8 0
BBX 5 10 1 -2
BITMAP
70
88
80
70
88
88
70
08
88
70
ENDCHAR
STARTCHAR dieresis
ENCODING 168
SWIDTH 500 0
DWIDTH 8 0
BBX 5 1 1 7
BITMAP
88
ENDCHAR
STARTCHAR copyright
ENCODING 169
SWIDTH 500 0
DWIDTH 8 0
BBX 7 7 0 0
BITMAP
38
44
9A
A2
9A
44
38
ENDCHAR
STARTCHAR ordfeminine
ENCODING 170
SWIDTH 500 0
DWIDTH 8 0
BBX 6 5 1 3
BITMAP
F0
08
78
88
74
ENDCHAR
STARTCHAR guillemotleft
ENCODING 171
SWIDTH 500 0
DWIDTH 8 0
BBX 6 5 0 1
BITMAP
24
48
90
48
24
ENDCHAR
STARTCHAR logicalnot
ENCODING 172
SWIDTH 500 0
DWIDTH 8 0
BBX 5 3 1 1
BITMAP
F8
08
08
ENDCHAR
STARTCHAR uni00AD
ENCODING 173
SWIDTH 500 0
DWIDTH 8 0
BBX 3 1 2 3
BITMAP
E0
ENDCHAR
STARTCHAR registered
ENCODING 174
SWIDTH 500 0
DWIDTH 8 0
BBX 7 7 0 0
BITMAP
38
44
BA
B2
AA
44
38
ENDCHAR
STARTCHAR macron
ENCODING 175
SWIDTH 500 0
DWIDTH 8 0
BBX 5 1 1 7
BITMAP
F8
ENDCHAR
STARTCHAR degree
ENCODING 176
SWIDTH 500 0
DWIDTH 8 0
BBX 3 3 2 6
BITMAP
40
A0
40
ENDCHAR
STARTCHAR plusminus
ENCODING 177
SWIDTH 500 0
DWIDTH 8 0
BBX 5 5 1 1
BITMAP
20
F8
20
00
F8
ENDCHAR
STARTCHAR uni00B2
ENCODING 178
SWIDTH 500 0
DWIDTH 8 0
BBX 5 6 1 3
BITMAP
70
88
08
30
40
F8
ENDCHAR
STARTCHAR uni00B3
ENCODING 179
SWIDTH 500 0
DWIDTH 8 0
BBX 5 6 1 3
BITMAP
70
88
30
08
88
70
ENDCHAR
STARTCHAR acute
ENCODING 180
SWIDTH 500 0
DWIDTH 8 0
BBX 3 3 2 6
BITMAP
20
40
80
ENDCHAR
STARTCHAR mu
ENCODING 181
SWIDTH 500 0
DWIDTH 8 0
BBX 7 8 0 -2
BITMAP
CC
44
44
44
4C
76
40
E0
ENDCHAR
STARTCHAR paragraph
ENCODING 182
SWIDTH 500 0
DWIDTH 8 0
BBX 7 10 0 -2
BITMAP
7E
F4
F4
F4
74
14
14
14
14
14
ENDCHAR
STARTCHAR periodcentered
ENCODING 183
SWIDTH 500 0
DWIDTH 8 0
BBX 2 2 2 2
BITMAP
C0
C0
ENDCHAR
STARTCHAR cedilla
ENCODING 184
SWIDTH 500 0
DWIDTH 8 0
BBX 3 3 2 -2
BITMAP
40
20
C0
ENDCHAR
STARTCHAR uni00B9
ENCODING 185
SWIDTH 500 0
DWIDTH 8 0
BBX 5 6 1 3
BITMAP
20
E0
20
20
20
F8
ENDCHAR
STARTCHAR ordmasculine
ENCODING 186
SWIDTH 500 0
DWIDTH 8 0
BBX 5 5 1 3
BITMAP
70
88
88
88
70
ENDCHAR
STARTCHAR guillemotright
ENCODING 187
SWIDTH 500 0
DWIDTH 8 0
BBX 6 5 1 1
BITMAP
90
48
24
48
90
ENDCHAR
STARTCHAR onequarter
ENCODING 188
SWIDTH 500 0
DWIDTH 8 0
BBX 7 11 0 -2
BITMAP
40
C0
42
44
E8
10
2A
4A
8E
02
02
ENDCHAR
STARTCHAR onehalf
ENCODING 189
SWIDTH 500 0
DWIDTH 8 0
BBX 7 11 0 -2
BITMAP
40
C0
42
44
E8
10
2C
42
84
08
0E
ENDCHAR
STARTCHAR threequarters
ENCODING 190
SWIDTH 500 0
DWIDTH 8 0
BBX 7 11 0 -2
BITMAP
C0
20
42
24
C8
10
2A
4A
8E
02
02
ENDCHAR
STARTCHAR questiondown
ENCODING 191
SWIDTH 500 0
DWIDTH 8 0
BBX 6 8 1 -2
BITMAP
30
30
00
30
60
CC
CC
78
ENDCHAR
STARTCHAR Agrave
ENCODING 192
SWIDTH 500 0
DWIDTH 8 0
BBX 7 10 0 0
BITMAP
20
10
00
10
28
28
44
7C
44
EE
ENDCHAR
STARTCHAR Aacute
ENCODING 193
SWIDTH 500 0
DWIDTH 8 0
BBX 7 10 0 0
BITMAP
08
10
00
10
28
28
44
7C
44
EE
ENDCHAR
STARTCHAR Acircumflex
ENCODING 194
SWIDTH 500 0
DWIDTH 8 0
BBX 7 10 0 0
BITMAP
10
28
00
10
28
28
44
7C
44
EE
ENDCHAR
STARTCHAR Atilde
ENCODING 195
SWIDTH 500 0
DWIDTH 8 0
BBX 7 10 0 0
BITMAP
34
48
00
10
28
28
44
7C
44
EE
ENDCHAR
STARTCHAR Adieresis
ENCODING 196
SWIDTH 500 0
DWIDTH 8 0
BBX 7 9 0 0
BITMAP
44
00
10
28
28
44
7C
44
EE
ENDCHAR
STARTCHAR Aring
ENCODING 197
SWIDTH 500 0
DWIDTH 8 0
BBX 7 9 0 0
BITMAP
10
28
10
28
28
44
7C
44
EE
ENDCHAR
STARTCHAR AE
ENCODING 198
SWIDTH 500 0
DWIDTH 8 0
BBX 7 7 0 0
BITMAP
3E
52
50
9C
F0
92
DE
ENDCHAR
STARTCHAR Ccedilla
ENCODING 199
SWIDTH 500 0
DWIDTH 8 0
BBX 7 9 0 -2
BITMAP
3A
46
80
80
82
44
38
08
30
ENDCHAR
STARTCHAR Egrave
ENCODING 200
SWIDTH 500 0
DWIDTH 8 0
BBX 7 10 0 0
BITMAP
20
10
00
FE
42
48
78
48
42
FE
ENDCHAR
STARTCHAR Eacute
ENCODING 201
SWIDTH 500 0
DWIDTH 8 0
BBX 7 10 0 0
BITMAP
08
10
00
FE
42
48
78
48
42
FE
ENDCHAR
STARTCHAR Ecircumflex
ENCODING 202
SWIDTH 500 0
DWIDTH 8 0
BBX 7 10 0 0
BITMAP
10
28
00
FE
42
48
78
48
42
FE
ENDCHAR
STARTCHAR Edieresis
ENCODING 203
SWIDTH 500 0
DWIDTH 8 0
BBX 7 9 0 0
BITMAP
44
00
FE
42
48
78
48
42
FE
ENDCHAR
STARTCHAR Igrave
ENCODING 204
SWIDTH 500 0
DWIDTH 8 0
BBX 3 10 2 0
BITMAP
80
40
00
E0
40
40
40
40
40
E0
ENDCHAR
STARTCHAR Iacute
ENCODING 205
SWIDTH 500 0
DWIDTH 8 0
BBX 3 10 2 0
BITMAP
20
40
00
E0
40
40
40
40
40
E0
ENDCHAR
STARTCHAR Icircumflex
ENCODING 206
SWIDTH 500 0
DWIDTH 8 0
BBX 3 10 2 0
BITMAP
40
A0
00
E0
40
40
40
40
40
E0
ENDCHAR
STARTCHAR Idieresis
ENCODING 207
SWIDTH 500 0
DWIDTH 8 0
BBX 5 9 1 0
BITMAP
88
00
70
20
20
20
20
20
70
ENDCHAR
STARTCHAR Eth
ENCODING 208
SWIDTH 500 0
DWIDTH 8 0
BBX 7 7 0 0
BITMAP
F8
44
42
F2
42
44
F8
ENDCHAR
STARTCHAR Ntilde
ENCODING 209
SWIDTH 500 0
DWIDTH 8 0
BBX 7 10 0 0
BITMAP
34
48
00
CE
64
54
54
54
4C
E4
ENDCHAR
STARTCHAR Ograve
ENCODING 210
SWIDTH 500 0
DWIDTH 8 0
BBX 7 10 0 0
BITMAP
20
10
00
38
44
82
82
82
44
38
ENDCHAR
STARTCHAR Oacute
ENCODING 211
SWIDTH 500 0
DWIDTH 8 0
BBX 7 10 0 0
BITMAP
08
10
00
38
44
82
82
82
44
38
ENDCHAR
STARTCHAR Ocircumflex
ENCODING 212
SWIDTH 500 0
DWIDTH 8 0
BBX 7 10 0 0
BITMAP
10
28
00
38
44
82
82
82
44
38
ENDCHAR
STARTCHAR Otilde
ENCODING 213
SWIDTH 500 0
DWIDTH 8 0
BBX 7 10 0 0
BITMAP
34
48
00
38
44
82
82
82
44
38
ENDCHAR
STARTCHAR Odieresis
ENCODING 214
SWIDTH 500 0
DWIDTH 8 0
BBX 7 9 0 0
BITMAP
44
00
38
44
82
82
82
44
38
ENDCHAR
STARTCHAR multiply
ENCODING 215
SWIDTH 500 0
DWIDTH 8 0
BBX 5 5 1 1
BITMAP
88
50
20
50
88
ENDCHAR
STARTCHAR Oslash
ENCODING 216
SWIDTH 500 0
DWIDTH 8 0
BBX 7 7 0 0
BITMAP
3A
44
8A
92
A2
44
B8
ENDCHAR
STARTCHAR Ugrave
ENCODING 217
SWIDTH 500 0
DWIDTH 8 0
BBX 7 10 0 0
BITMAP
20
10
00
EE
44
44
44
44
44
38
ENDCHAR
STARTCHAR Uacute
ENCODING 218
SWIDTH 500 0
DWIDTH 8 0
BBX 7 10 0 0
BITMAP
08
10
00
EE
44
44
44
44
44
38
ENDCHAR
STARTCHAR Ucircumflex
ENCODING 219
SWIDTH 500 0
DWIDTH 8 0
BBX 7 10 0 0
BITMAP
10
28
00
EE
44
44
44
44
44
38
ENDCHAR
STARTCHAR Udieresis
ENCODING 220
SWIDTH 500 0
DWIDTH 8 0
BBX 7 9 0 0
BITMAP
44
00
EE
44
44
44
44
44
38
ENDCHAR
STARTCHAR Yacute
ENCODING 221
SWIDTH 500 0
DWIDTH 8 0
BBX 7 10 0 0
BITMAP
08
10
00
EE
44
28
10
10
10
38
ENDCHAR
STARTCHAR Thorn
ENCODING 222
SWIDTH 500 0
DWIDTH 8 0
BBX 6 7 0 0
BITMAP
E0
40
78
44
78
40
E0
ENDCHAR
STARTCHAR germandbls
ENCODING 223
SWIDTH 500 0
DWIDTH 8 0
BBX 6 8 0 0
BITMAP
30
48
48
D0
48
44
54
D8
ENDCHAR
STARTCHAR agrave
ENCODING 224
SWIDTH 500 0
DWIDTH 8 0
BBX 6 9 1 0
BITMAP
40
20
00
70
88
18
68
88
74
ENDCHAR
STARTCHAR aacute
ENCODING 225
SWIDTH 500 0
DWIDTH 8 0
BBX 6 9 1 0
BITMAP
10
20
00
70
88
18
68
88
74
ENDCHAR
STARTCHAR acircumflex
ENCODING 226
SWIDTH 500 0
DWIDTH 8 0
BBX 6 9 1 0
BITMAP
20
50
00
70
88
18
68
88
74
ENDCHAR
STARTCHAR atilde
ENCODING 227
SWIDTH 500 0
DWIDTH 8 0
BBX 6 9 1 0
BITMAP
68
90
00
70
88
18
68
88
74
ENDCHAR
STARTCHAR adieresis
ENCODING 228
SWIDTH 500 0
DWIDTH 8 0
BBX 6 8 1 0
BITMAP
88
00
70
88
18
68
88
74
ENDCHAR
STARTCHAR aring
ENCODING 229
SWIDTH 500 0
DWIDTH 8 0
BBX 6 9 1 0
BITMAP
20
50
20
70
88
18
68
88
74
ENDCHAR
STARTCHAR ae
ENCODING 230
SWIDTH 500 0
DWIDTH 8 0
BBX 7 6 0 0
BITMAP
6C
92
3E
50
92
6C
ENDCHAR
STARTCHAR ccedilla
ENCODING 231
SWIDTH 500 0
DWIDTH 8 0
BBX 5 8 1 -2
BITMAP
68
98
80
80
88
70
10
60
ENDCHAR
STARTCHAR egrave
ENCODING 232
SWIDTH 500 0
DWIDTH 8 0
BBX 5 9 1 0
BITMAP
40
20
00
70
88
F8
80
88
70
ENDCHAR
STARTCHAR eacute
ENCODING 233
SWIDTH 500 0
DWIDTH 8 0
BBX 5 9 1 0
BITMAP
10
20
00
70
88
F8
80
88
70
ENDCHAR
STARTCHAR ecircumflex
ENCODING 234
SWIDTH 500 0
DWIDTH 8 0
BBX 5 9 1 0
BITMAP
20
50
00
70
88
F8
80
88
70
ENDCHAR
STARTCHAR edieresis
ENCODING 235
SWIDTH 500 0
DWIDTH 8 0
BBX 5 8 1 0
BITMAP
88
00
70
88
F8
80
88
70
ENDCHAR
STARTCHAR igrave
ENCODING 236
SWIDTH 500 0
DWIDTH 8 0
BBX 3 9 2 0
BITMAP
80
40
00
C0
40
40
40
40
E0
ENDCHAR
STARTCHAR iacute
ENCODING 237
SWIDTH 500 0
DWIDTH 8 0
BBX 3 9 2 0
BITMAP
20
40
00
C0
40
40
40
40
E0
ENDCHAR
STARTCHAR icircumflex
ENCODING 238
SWIDTH 500 0
DWIDTH 8 0
BBX 3 9 2 0
BITMAP
40
A0
00
C0
40
40
40
40
E0
ENDCHAR
STARTCHAR idieresis
ENCODING 239
SWIDTH 500 0
DWIDTH 8 0
BBX 5 8 1 0
BITMAP
88
00
60
20
20
20
20
70
ENDCHAR
STARTCHAR eth
ENCODING 240
SWIDTH 500 0
DWIDTH 8 0
BBX 5 8 1 0
BITMAP
D0
20
10
28
48
88
88
70
ENDCHAR
STARTCHAR ntilde
ENCODING 241
SWIDTH 500 0
DWIDTH 8 0
BBX 7 9 0 0
BITMAP
34
48
00
D8
64
44
44
44
E6
ENDCHAR
STARTCHAR ograve
ENCODING 242
SWIDTH 500 0
DWIDTH 8 0
BBX 5 9 1 0
BITMAP
40
20
00
70
88
88
88
88
70
ENDCHAR
STARTCHAR oacute
ENCODING 243
SWIDTH 500 0
DWIDTH 8 0
BBX 5 9 1 0
BITMAP
10
20
00
70
88
88
88
88
70
ENDCHAR
STARTCHAR ocircumflex
ENCODING 244
SWIDTH 500 0
DWIDTH 8 0
BBX 5 9 1 0
BITMAP
20
50
00
70
88
88
88
88
70
ENDCHAR
STARTCHAR otilde
ENCODING 245
SWIDTH 500 0
DWIDTH 8 0
BBX 5 9 1 0
BITMAP
68
90
00
70
88
88
88
88
70
ENDCHAR
STARTCHAR odieresis
ENCODING 246
SWIDTH 500 0
DWIDTH 8 0
BBX 5 8 1 0
BITMAP
88
00
70
88
88
88
88
70
ENDCHAR
STARTCHAR divide
ENCODING 247
SWIDTH 500 0
DWIDTH 8 0
BBX 5 5 1 1
BITMAP
20
00
F8
00
20
ENDCHAR
STARTCHAR oslash
ENCODING 248
SWIDTH 500 0
DWIDTH 8 0
BBX 5 8 1 -1
BITMAP
08
70
98
A8
A8
C8
70
80
ENDCHAR
STARTCHAR ugrave
ENCODING 249
SWIDTH 500 0
DWIDTH 8 0
BBX 7 9 0 0
BITMAP
20
10
00
CC
44
44
44
4C
36
ENDCHAR
STARTCHAR uacute
ENCODING 250
SWIDTH 500 0
DWIDTH 8 0
BBX 7 9 0 0
BITMAP
08
10
00
CC
44
44
44
4C
36
ENDCHAR
STARTCHAR ucircumflex
ENCODING 251
SWIDTH 500 0
DWIDTH 8 0
BBX 7 9 0 0
BITMAP
10
28
00
CC
44
44
44
4C
36
ENDCHAR
STARTCHAR udieresis
ENCODING 252
SWIDTH 500 0
DWIDTH 8 0
BBX 7 8 0 0
BITMAP
44
00
CC
44
44
44
4C
36
ENDCHAR
STARTCHAR yacute
ENCODING 253
SWIDTH 500 0
DWIDTH 8 0
BBX 7 11 0 -2
BITMAP
08
10
00
EE
44
44
28
28
10
10
60
ENDCHAR
STARTCHAR thorn
ENCODING 254
SWIDTH 500 0
DWIDTH 8 0
BBX 6 10 0 -2
BITMAP
C0
40
58
64
44
44
44
78
40
E0
ENDCHAR
STARTCHAR ydieresis
ENCODING 255
SWIDTH 500 0
DWIDTH 8 0
BBX 7 10 0 -2
BITMAP
44
00
EE
44
44
28
28
10
10
60
ENDCHAR
STARTCHAR Amacron
ENCODING 256
SWIDTH 500 0
DWIDTH 8 0
BBX 7 9 0 0
BITMAP
7C
00
10
28
28
44
7C
44
EE
ENDCHAR
STARTCHAR amacron
ENCODING 257
SWIDTH 500 0
DWIDTH 8 0
BBX 6 8 1 0
BITMAP
F8
00
70
88
18
68
88
74
ENDCHAR
STARTCHAR Abreve
ENCODING 258
SWIDTH 500 0
DWIDTH 8 0
BBX 7 10 0 0
BITMAP
44
38
00
10
28
28
44
7C
44
EE
ENDCHAR
STARTCHAR abreve
ENCODING 259
SWIDTH 500 0
DWIDTH 8 0
BBX 6 9 1 0
BITMAP
88
70
00
70
88
18
68
88
74
ENDCHAR
STARTCHAR Aogonek
ENCODING 260
SWIDTH 500 0
DWIDTH 8 0
BBX 7 9 0 -2
BITMAP
10
28
28
44
7C
44
EE
08
06
ENDCHAR
STARTCHAR aogonek
ENCODING 261
SWIDTH 500 0
DWIDTH 8 0
BBX 6 8 1 -2
BITMAP
70
88
18
68
88
74
10
0C
ENDCHAR
STARTCHAR Cacute
ENCODING 262
SWIDTH 500 0
DWIDTH 8 0
BBX 7 10 0 0
BITMAP
08
10
00
3A
46
80
80
82
44
38
ENDCHAR
STARTCHAR cacute
ENCODING 263
SWIDTH 500 0
DWIDTH 8 0
BBX 5 9 1 0
BITMAP
10
20
00
68
98
80
80
88
70
ENDCHAR
STARTCHAR Ccircumflex
ENCODING 264
SWIDTH 500 0
DWIDTH 8 0
BBX 7 10 0 0
BITMAP
10
28
00
3A
46
80
80
82
44
38
ENDCHAR
STARTCHAR ccircumflex
ENCODING 265
SWIDTH 500 0
DWIDTH 8 0
BBX 5 9 1 0
BITMAP
20
50
00
68
98
80
80
88
70
ENDCHAR
STARTCHAR Cdotaccent
ENCODING 266
SWIDTH 500 0
DWIDTH 8 0
BBX 7 9 0 0
BITMAP
10
00
3A
46
80
80
82
44
38
ENDCHAR
STARTCHAR cdotaccent
ENCODING 267
SWIDTH 500 0
DWIDTH 8 0
BBX 5 8 1 0
BITMAP
20
00
68
98
80
80
88
70
ENDCHAR
STARTCHAR Ccaron
ENCODING 268
SWIDTH 500 0
DWIDTH 8 0
BBX 7 10 0 0
BITMAP
28
10
00
3A
46
80
80
82
44
38
ENDCHAR
STARTCHAR ccaron
ENCODING 269
SWIDTH 500 0
DWIDTH 8 0
BBX 5 9 1 0
BITMAP
50
20
00
68
98
80
80
88
70
ENDCHAR
STARTCHAR Dcaron
ENCODING 270
SWIDTH 500 0
DWIDTH 8 0
BBX 7 10 0 0
BITMAP
28
10
00
F8
44
42
42
42
44
F8
ENDCHAR
STARTCHAR dcaron
ENCODING 271
SWIDTH 500 0
DWIDTH 8 0
BBX 7 8 0 0
BITMAP
36
16
72
94
90
90
B0
58
ENDCHAR
STARTCHAR Dcroat
ENCODING 272
SWIDTH 500 0
DWIDTH 8 0
BBX 7 7 0 0
BITMAP
F8
44
42
F2
42
44
F8
ENDCHAR
STARTCHAR dcroat
ENCODING 273
SWIDTH 500 0
DWIDTH 8 0
BBX 6 8 1 0
BITMAP
18
08
7C
08
78
88
98
6C
ENDCHAR
STARTCHAR Emacron
ENCODING 274
SWIDTH 500 0
DWIDTH 8 0
BBX 7 9 0 0
BITMAP
7C
00
FE
42
48
78
48
42
FE
ENDCHAR
STARTCHAR emacron
ENCODING 275
SWIDTH 500 0
DWIDTH 8 0
BBX 5 8 1 0
BITMAP
F8
00
70
88
F8
80
88
70
ENDCHAR
STARTCHAR Ebreve
ENCODING 276
SWIDTH 500 0
DWIDTH 8 0
BBX 7 10 0 0
BITMAP
44
38
00
FE
42
48
78
48
42
FE
ENDCHAR
STARTCHAR ebreve
ENCODING 277
SWIDTH 500 0
DWIDTH 8 0
BBX 5 9 1 0
BITMAP
88
70
00
70
88
F8
80
88
70
ENDCHAR
STARTCHAR Edotaccent
ENCODING 278
SWIDTH 500 0
DWIDTH 8 0
BBX 7 9 0 0
BITMAP
10
00
FE
42
48
78
48
42
FE
ENDCHAR
STARTCHAR edotaccent
ENCODING 279
SWIDTH 500 0
DWIDTH 8 0
BBX 5 8 1 0
BITMAP
20
00
70
88
F8
80
88
70
ENDCHAR
STARTCHAR Eogonek
ENCODING 280
SWIDTH 500 0
DWIDTH 8 0
BBX 7 9 0 -2
BITMAP
FE
42
48
78
48
42
FE
08
06
ENDCHAR
STARTCHAR eogonek
ENCODING 281
SWIDTH 500 0
DWIDTH 8 0
BBX 5 8 1 -2
BITMAP
70
88
F8
80
88
70
20
18
ENDCHAR
STARTCHAR Ecaron
ENCODING 282
SWIDTH 500 0
DWIDTH 8 0
BBX 7 10 0 0
BITMAP
28
10
00
FE
42
48
78
48
42
FE
ENDCHAR
STARTCHAR ecaron
ENCODING 283
SWIDTH 500 0
DWIDTH 8 0
BBX 5 9 1 0
BITMAP
50
20
00
70
88
F8
80
88
70
ENDCHAR
STARTCHAR Gcircumflex
ENCODING 284
SWIDTH 500 0
DWIDTH 8 0
BBX 7 10 0 0
BITMAP
10
28
00
3A
46
80
8E
82
46
3A
ENDCHAR
STARTCHAR gcircumflex
ENCODING 285
SWIDTH 500 0
DWIDTH 8 0
BBX 6 11 1 -2
BITMAP
20
50
00
74
88
88
70
40
B0
88
70
ENDCHAR
STARTCHAR Gbreve
ENCODING 286
SWIDTH 500 0
DWIDTH 8 0
BBX 7 10 0 0
BITMAP
44
38
00
3A
46
80
8E
82
46
3A
ENDCHAR
STARTCHAR gbreve
ENCODING 287
SWIDTH 500 0
DWIDTH 8 0
BBX 6 11 1 -2
BITMAP
88
70
00
74
88
88
70
40
B0
88
70
ENDCHAR
STARTCHAR Gdotaccent
ENCODING 288
SWIDTH 500 0
DWIDTH 8 0
BBX 7 9 0 0
BITMAP
10
00
3A
46
80
8E
82
46
3A
ENDCHAR
STARTCHAR gdotaccent
ENCODING 289
SWIDTH 500 0
DWIDTH 8 0
BBX 6 10 1 -2
BITMAP
20
00
74
88
88
70
40
B0
88
70
ENDCHAR
STARTCHAR uni0122
ENCODING 290
SWIDTH 500 0
DWIDTH 8 0
BBX 7 9 0 -2
BITMAP
3A
46
80
8E
82
46
3A
08
30
ENDCHAR
STARTCHAR uni0123
ENCODING 291
SWIDTH 500 0
DWIDTH 8 0
BBX 6 11 1 -2
BITMAP
30
40
00
74
88
88
70
40
B0
88
70
ENDCHAR
STARTCHAR Hcircumflex
ENCODING 292
SWIDTH 500 0
DWIDTH 8 0
BBX 7 10 0 0
BITMAP
10
28
00
EE
44
44
7C
44
44
EE
ENDCHAR
STARTCHAR hcircumflex
ENCODING 293
SWIDTH 500 0
DWIDTH 8 0
BBX 7 9 0 0
BITMAP
08
D4
40
58
64
44
44
44
E6
ENDCHAR
STARTCHAR Hbar
ENCODING 294
SWIDTH 500 0
DWIDTH 8 0
BBX 7 7 0 0
BITMAP
EE
44
FE
44
7C
44
EE
ENDCHAR
STARTCHAR hbar
ENCODING 295
SWIDTH 500 0
DWIDTH 8 0
BBX 7 8 0 0
BITMAP
C0
40
F8
40
58
64
44
E6
ENDCHAR
STARTCHAR Itilde
ENCODING 296
SWIDTH 500 0
DWIDTH 8 0
BBX 5 10 1 0
BITMAP
68
90
00
70
20
20
20
20
20
70
ENDCHAR
STARTCHAR itilde
ENCODING 297
SWIDTH 500 0
DWIDTH 8 0
BBX 5 9 1 0
BITMAP
68
90
00
60
20
20
20
20
70
ENDCHAR
STARTCHAR Imacron
ENCODING 298
SWIDTH 500 0
DWIDTH 8 0
BBX 5 9 1 0
BITMAP
F8
00
70
20
20
20
20
20
70
ENDCHAR
STARTCHAR imacron
ENCODING 299
SWIDTH 500 0
DWIDTH 8 0
BBX 5 8 1 0
BITMAP
F8
00
60
20
20
20
20
70
ENDCHAR
STARTCHAR Ibreve
ENCODING 300
SWIDTH 500 0
DWIDTH 8 0
BBX 5 10 1 0
BITMAP
88
70
00
70
20
20
20
20
20
70
ENDCHAR
STARTCHAR ibreve
ENCODING 301
SWIDTH 500 0
DWIDTH 8 0
BBX 5 9 1 0
BITMAP
88
70
00
60
20
20
20
20
70
ENDCHAR
STARTCHAR Iogonek
ENCODING 302
SWIDTH 500 0
DWIDTH 8 0
BBX 4 9 2 -2
BITMAP
E0
40
40
40
40
40
E0
40
30
ENDCHAR
STARTCHAR iogonek
ENCODING 303
SWIDTH 500 0
DWIDTH 8 0
BBX 4 10 2 -2
BITMAP
40
00
C0
40
40
40
40
E0
40
30
ENDCHAR
STARTCHAR Idotaccent
ENCODING 304
SWIDTH 500 0
DWIDTH 8 0
BBX 3 9 2 0
BITMAP
40
00
E0
40
40
40
40
40
E0
ENDCHAR
STARTCHAR dotlessi
ENCODING 305
SWIDTH 500 0
DWIDTH 8 0
BBX 3 6 2 0
BITMAP
C0
40
40
40
40
E0
ENDCHAR
STARTCHAR IJ
ENCODING 306
SWIDTH 500 0
DWIDTH 8 0
BBX 7 7 0 0
BITMAP
EE
44
44
E4
04
44
38
ENDCHAR
STARTCHAR ij
ENCODING 307
SWIDTH 500 0
DWIDTH 8 0
BBX 6 10 0 -2
BITMAP
44
00
CC
44
44
44
44
E4
04
18
ENDCHAR
STARTCHAR Jcircumflex
ENCODING 308
SWIDTH 500 0
DWIDTH 8 0
BBX 6 10 1 0
BITMAP
08
14
00
1C
08
08
08
88
88
70
ENDCHAR
STARTCHAR jcircumflex
ENCODING 309
SWIDTH 500 0
DWIDTH 8 0
BBX 4 11 1 -2
BITMAP
20
50
00
60
20
20
20
20
20
20
C0
ENDCHAR
STARTCHAR uni0136
ENCODING 310
SWIDTH 500 0
DWIDTH 8 0
BBX 7 9 0 -2
BITMAP
EE
44
48
70
48
44
EE
08
30
ENDCHAR
STARTCHAR uni0137
ENCODING 311
SWIDTH 500 0
DWIDTH 8 0
BBX 7 10 0 -2
BITMAP
C0
40
4E
44
78
48
44
EE
08
30
ENDCHAR
STARTCHAR kgreenlandic
ENCODING 312
SWIDTH 500 0
DWIDTH 8 0
BBX 7 6 0 0
BITMAP
CE
44
78
48
44
EE
ENDCHAR
STARTCHAR Lacute
ENCODING 313
SWIDTH 500 0
DWIDTH 8 0
BBX 7 10 0 0
BITMAP
08
10
00
E0
40
40
40
40
42
FE
ENDCHAR
STARTCHAR lacute
ENCODING 314
SWIDTH 500 0
DWIDTH 8 0
BBX 5 9 2 0
BITMAP
08
D0
40
40
40
40
40
40
E0
ENDCHAR
STARTCHAR uni013B
ENCODING 315
SWIDTH 500 0
DWIDTH 8 0
BBX 7 9 0 -2
BITMAP
E0
40
40
40
40
42
FE
08
30
ENDCHAR
STARTCHAR uni013C
ENCODING 316
SWIDTH 500 0
DWIDTH 8 0
BBX 3 10 2 -2
BITMAP
C0
40
40
40
40
40
40
E0
20
C0
ENDCHAR
STARTCHAR Lcaron
ENCODING 317
SWIDTH 500 0
DWIDTH 8 0
BBX 7 8 0 0
BITMAP
0C
EC
44
48
40
40
42
FE
ENDCHAR
STARTCHAR lcaron
ENCODING 318
SWIDTH 500 0
DWIDTH 8 0
BBX 5 8 1 0
BITMAP
D8
58
48
50
40
40
40
E0
ENDCHAR
STARTCHAR Ldot
ENCODING 319
SWIDTH 500 0
DWIDTH 8 0
BBX 7 7 0 0
BITMAP
E0
40
40
48
40
42
FE
ENDCHAR
STARTCHAR ldot
ENCODING 320
SWIDTH 500 0
DWIDTH 8 0
BBX 5 8 1 0
BITMAP
C0
40
40
48
40
40
40
E0
ENDCHAR
STARTCHAR Lslash
ENCODING 321
SWIDTH 500 0
DWIDTH 8 0
BBX 7 7 0 0
BITMAP
E0
40
48
70
C0
42
FE
ENDCHAR
STARTCHAR lslash
ENCODING 322
SWIDTH 500 0
DWIDTH 8 0
BBX 5 8 1 0
BITMAP
60
20
28
30
60
A0
20
70
ENDCHAR
STARTCHAR Nacute
ENCODING 323
SWIDTH 500 0
DWIDTH 8 0
BBX 7 10 0 0
BITMAP
08
10
00
CE
64
54
54
54
4C
E4
ENDCHAR
STARTCHAR nacute
ENCODING 324
SWIDTH 500 0
DWIDTH 8 0
BBX 7 9 0 0
BITMAP
08
10
00
D8
64
44
44
44
E6
ENDCHAR
STARTCHAR uni0145
ENCODING 325
SWIDTH 500 0
DWIDTH 8 0
BBX 7 9 0 -2
BITMAP
CE
64
54
54
54
4C
E4
10
60
ENDCHAR
STARTCHAR uni0146
ENCODING 326
SWIDTH 500 0
DWIDTH 8 0
BBX 7 8 0 -2
BITMAP
D8
64
44
44
44
E6
08
30
ENDCHAR
STARTCHAR Ncaron
ENCODING 327
SWIDTH 500 0
DWIDTH 8 0
BBX 7 10 0 0
BITMAP
28
10
00
CE
64
54
54
54
4C
E4
ENDCHAR
STARTCHAR ncaron
ENCODING 328
SWIDTH 500 0
DWIDTH 8 0
BBX 7 9 0 0
BITMAP
28
10
00
D8
64
44
44
44
E6
ENDCHAR
STARTCHAR napostrophe
ENCODING 329
SWIDTH 500 0
DWIDTH 8 0
BBX 7 8 0 0
BITMAP
C0
C0
74
9A
12
12
12
3A
ENDCHAR
STARTCHAR Eng
ENCODING 330
SWIDTH 500 0
DWIDTH 8 0
BBX 6 7 0 0
BITMAP
D8
64
44
44
44
54
C8
ENDCHAR
STARTCHAR eng
ENCODING 331
SWIDTH 500 0
DWIDTH 8 0
BBX 6 8 0 -2
BITMAP
D8
64
44
44
44
E4
04
18
ENDCHAR
STARTCHAR Omacron
ENCODING 332
SWIDTH 500 0
DWIDTH 8 0
BBX 7 9 0 0
BITMAP
7C
00
38
44
82
82
82
44
38
ENDCHAR
STARTCHAR omacron
ENCODING 333
SWIDTH 500 0
DWIDTH 8 0
BBX 5 8 1 0
BITMAP
F8
00
70
88
88
88
88
70
ENDCHAR
STARTCHAR Obreve
ENCODING 334
SWIDTH 500 0
DWIDTH 8 0
BBX 7 10 0 0
BITMAP
44
38
00
38
44
82
82
82
44
38
ENDCHAR
STARTCHAR obreve
ENCODING 335
SWIDTH 500 0
DWIDTH 8 0
BBX 5 9 1 0
BITMAP
88
70
00
70
88
88
88
88
70
ENDCHAR
STARTCHAR Ohungarumlaut
ENCODING 336
SWIDTH 500 0
DWIDTH 8 0
BBX 7 10 0 0
BITMAP
24
48
00
38
44
82
82
82
44
38
ENDCHAR
STARTCHAR ohungarumlaut
ENCODING 337
SWIDTH 500 0
DWIDTH 8 0
BBX 5 9 1 0
BITMAP
48
90
00
70
88
88
88
88
70
ENDCHAR
STARTCHAR OE
ENCODING 338
SWIDTH 500 0
DWIDTH 8 0
BBX 7 7 0 0
BITMAP
7E
92
90
9C
90
92
7E
ENDCHAR
STARTCHAR oe
ENCODING 339
SWIDTH 500 0
DWIDTH 8 0
BBX 7 6 0 0
BITMAP
6C
92
9E
90
92
6C
ENDCHAR
STARTCHAR Racute
ENCODING 340
SWIDTH 500 0
DWIDTH 8 0
BBX 7 10 0 0
BITMAP
08
10
00
FC
42
42
7C
48
44
EE
ENDCHAR
STARTCHAR racute
ENCODING 341
SWIDTH 500 0
DWIDTH 8 0
BBX 6 9 0 0
BITMAP
08
10
00
D8
64
40
40
40
E0
ENDCHAR
STARTCHAR uni0156
ENCODING 342
SWIDTH 500 0
DWIDTH 8 0
BBX 7 9 0 -2
BITMAP
FC
42
42
7C
48
44
EE
08
30
ENDCHAR
STARTCHAR uni0157
ENCODING 343
SWIDTH 500 0
DWIDTH 8 0
BBX 6 8 0 -2
BITMAP
D8
64
40
40
40
E0
08
30
ENDCHAR
STARTCHAR Rcaron
ENCODING 344
SWIDTH 500 0
DWIDTH 8 0
BBX 7 10 0 0
BITMAP
28
10
00
FC
42
42
7C
48
44
EE
ENDCHAR
STARTCHAR rcaron
ENCODING 345
SWIDTH 500 0
DWIDTH 8 0
BBX 6 9 0 0
BITMAP
28
10
00
D8
64
40
40
40
E0
ENDCHAR
STARTCHAR Sacute
ENCODING 346
SWIDTH 500 0
DWIDTH 8 0
BBX 7 10 0 0
BITMAP
08
10
00
7A
86
80
7C
02
C2
BC
ENDCHAR
STARTCHAR sacute
ENCODING 347
SWIDTH 500 0
DWIDTH 8 0
BBX 5 9 1 0
BITMAP
10
20
00
68
98
60
10
C8
B0
ENDCHAR
STARTCHAR Scircumflex
ENCODING 348
SWIDTH 500 0
DWIDTH 8 0
BBX 7 10 0 0
BITMAP
10
28
00
7A
86
80
7C
02
C2
BC
ENDCHAR
STARTCHAR scircumflex
ENCODING 349
SWIDTH 500 0
DWIDTH 8 0
BBX 5 9 1 0
BITMAP
20
50
00
68
98
60
10
C8
B0
ENDCHAR
STARTCHAR Scedilla
ENCODING 350
SWIDTH 500 0
DWIDTH 8 0
BBX 7 9 0 -2
BITMAP
7A
86
80
7C
02
C2
BC
08
30
ENDCHAR
STARTCHAR scedilla
ENCODING 351
SWIDTH 500 0
DWIDTH 8 0
BBX 5 8 1 -2
BITMAP
68
98
60
10
C8
B0
10
60
ENDCHAR
STARTCHAR Scaron
ENCODING 352
SWIDTH 500 0
DWIDTH 8 0
BBX 7 10 0 0
BITMAP
28
10
00
7A
86
80
7C
02
C2
BC
ENDCHAR
STARTCHAR scaron
ENCODING 353
SWIDTH 500 0
DWIDTH 8 0
BBX 5 9 1 0
BITMAP
50
20
00
68
98
60
10
C8
B0
ENDCHAR
STARTCHAR uni0162
ENCODING 354
SWIDTH 500 0
DWIDTH 8 0
BBX 7 9 0 -2
BITMAP
FE
92
10
10
10
10
38
08
30
ENDCHAR
STARTCHAR uni0163
ENCODING 355
SWIDTH 500 0
DWIDTH 8 0
BBX 4 9 2 -2
BITMAP
40
F0
40
40
40
50
20
10
60
ENDCHAR
STARTCHAR Tcaron
ENCODING 356
SWIDTH 500 0
DWIDTH 8 0
BBX 7 10 0 0
BITMAP
28
10
00
FE
92
10
10
10
10
38
ENDCHAR
STARTCHAR tcaron
ENCODING 357
SWIDTH 500 0
DWIDTH 8 0
BBX 7 8 0 0
BITMAP
06
46
F2
44
40
40
50
20
ENDCHAR
STARTCHAR Tbar
ENCODING 358
SWIDTH 500 0
DWIDTH 8 0
BBX 7 7 0 0
BITMAP
FE
92
10
7C
10
10
38
ENDCHAR
STARTCHAR tbar
ENCODING 359
SWIDTH 500 0
DWIDTH 8 0
BBX 4 7 2 0
BITMAP
40
F0
40
E0
40
50
20
ENDCHAR
STARTCHAR Utilde
ENCODING 360
SWIDTH 500 0
DWIDTH 8 0
BBX 7 10 0 0
BITMAP
34
48
00
EE
44
44
44
44
44
38
ENDCHAR
STARTCHAR utilde
ENCODING 361
SWIDTH 500 0
DWIDTH 8 0
BBX 7 9 0 0
BITMAP
34
48
00
CC
44
44
44
4C
36
ENDCHAR
STARTCHAR Umacron
ENCODING 362
SWIDTH 500 0
DWIDTH 8 0
BBX 7 9 0 0
BITMAP
7C
00
EE
44
44
44
44
44
38
ENDCHAR
STARTCHAR umacron
ENCODING 363
SWIDTH 500 0
DWIDTH 8 0
BBX 7 8 0 0
BITMAP
7C
00
CC
44
44
44
4C
36
ENDCHAR
STARTCHAR Ubreve
ENCODING 364
SWIDTH 500 0
DWIDTH 8 0
BBX 7 10 0 0
BITMAP
44
38
00
EE
44
44
44
44
44
38
ENDCHAR
STARTCHAR ubreve
ENCODING 365
SWIDTH 500 0
DWIDTH 8 0
BBX 7 9 0 0
BITMAP
44
38
00
CC
44
44
44
4C
36
ENDCHAR
STARTCHAR Uring
ENCODING 366
SWIDTH 500 0
DWIDTH 8 0
BBX 7 10 0 0
BITMAP
10
28
10
EE
44
44
44
44
44
38
ENDCHAR
STARTCHAR uring
ENCODING 367
SWIDTH 500 0
DWIDTH 8 0
BBX 7 9 0 0
BITMAP
10
28
10
CC
44
44
44
4C
36
ENDCHAR
STARTCHAR Uhungarumlaut
ENCODING 368
SWIDTH 500 0
DWIDTH 8 0
BBX 7 10 0 0
BITMAP
24
48
00
EE
44
44
44
44
44
38
ENDCHAR
STARTCHAR uhungarumlaut
ENCODING 369
SWIDTH 500 0
DWIDTH 8 0
BBX 7 9 0 0
BITMAP
24
48
00
CC
44
44
44
4C
36
ENDCHAR
STARTCHAR Uogonek
ENCODING 370
SWIDTH 500 0
DWIDTH 8 0
BBX 7 9 0 -2
BITMAP
EE
44
44
44
44
44
38
10
0C
ENDCHAR
STARTCHAR uogonek
ENCODING 371
SWIDTH 500 0
DWIDTH 8 0
BBX 7 8 0 -2
BITMAP
CC
44
44
44
4C
36
08
06
ENDCHAR
STARTCHAR Wcircumflex
ENCODING 372
SWIDTH 500 0
DWIDTH 8 0
BBX 7 10 0 0
BITMAP
10
28
00
EE
44
44
54
54
28
28
ENDCHAR
STARTCHAR wcircumflex
ENCODING 373
SWIDTH 500 0
DWIDTH 8 0
BBX 7 9 0 0
BITMAP
10
28
00
EE
44
54
54
28
28
ENDCHAR
STARTCHAR Ycircumflex
ENCODING 374
SWIDTH 500 0
DWIDTH 8 0
BBX 7 10 0 0
BITMAP
10
28
00
EE
44
28
10
10
10
38
ENDCHAR
STARTCHAR ycircumflex
ENCODING 375
SWIDTH 500 0
DWIDTH 8 0
BBX 7 11 0 -2
BITMAP
10
28
00
EE
44
44
28
28
10
10
60
ENDCHAR
STARTCHAR Ydieresis
ENCODING 376
SWIDTH 500 0
DWIDTH 8 0
BBX 7 9 0 0
BITMAP
44
00
EE
44
28
10
10
10
38
ENDCHAR
STARTCHAR Zacute
ENCODING 377
SWIDTH 500 0
DWIDTH 8 0
BBX 7 10 0 0
BITMAP
08
10
00
FE
84
08
10
20
42
FE
ENDCHAR
STARTCHAR zacute
ENCODING 378
SWIDTH 500 0
DWIDTH 8 0
BBX 5 9 1 0
BITMAP
10
20
00
F8
88
30
40
88
F8
ENDCHAR
STARTCHAR Zdotaccent
ENCODING 379
SWIDTH 500 0
DWIDTH 8 0
BBX 7 9 0 0
BITMAP
10
00
FE
84
08
10
20
42
FE
ENDCHAR
STARTCHAR zdotaccent
ENCODING 380
SWIDTH 500 0
DWIDTH 8 0
BBX 5 8 1 0
BITMAP
20
00
F8
88
30
40
88
F8
ENDCHAR
STARTCHAR Zcaron
ENCODING 381
SWIDTH 500 0
DWIDTH 8 0
BBX 7 10 0 0
BITMAP
28
10
00
FE
84
08
10
20
42
FE
ENDCHAR
STARTCHAR zcaron
ENCODING 382
SWIDTH 500 0
DWIDTH 8 0
BBX 5 9 1 0
BITMAP
50
20
00
F8
88
30
40
88
F8
ENDCHAR
STARTCHAR longs
ENCODING 383
SWIDTH 500 0
DWIDTH 8 0
BBX 4 8 2 0
BITMAP
30
40
40
C0
40
40
40
E0
ENDCHAR
STARTCHAR uni0180
ENCODING 384
SWIDTH 500 0
DWIDTH 8 0
BBX 6 8 0 0
BITMAP
C0
40
F8
40
58
64
44
F8
ENDCHAR
STARTCHAR uni0181
ENCODING 385
SWIDTH 500 0
DWIDTH 8 0
BBX 7 7 0 0
BITMAP
78
A4
B8
24
22
22
7C
ENDCHAR
STARTCHAR uni0182
ENCODING 386
SWIDTH 500 0
DWIDTH 8 0
BBX 7 7 0 0
BITMAP
FE
42
78
44
42
42
FC
ENDCHAR
STARTCHAR uni0183
ENCODING 387
SWIDTH 500 0
DWIDTH 8 0
BBX 6 8 0 0
BITMAP
FC
40
58
64
44
44
44
F8
ENDCHAR
STARTCHAR uni0184
ENCODING 388
SWIDTH 500 0
DWIDTH 8 0
BBX 7 7 0 0
BITMAP
40
C0
40
7C
42
42
FC
ENDCHAR
STARTCHAR uni0185
ENCODING 389
SWIDTH 500 0
DWIDTH 8 0
BBX 6 7 0 0
BITMAP
40
D8
64
44
44
44
B8
ENDCHAR
STARTCHAR uni0186
ENCODING 390
SWIDTH 500 0
DWIDTH 8 0
BBX 7 7 0 0
BITMAP
B8
C4
02
02
82
44
38
ENDCHAR
STARTCHAR uni0187
ENCODING 391
SWIDTH 500 0
DWIDTH 8 0
BBX 7 8 0 0
BITMAP
02
34
4C
80
80
84
48
30
ENDCHAR
STARTCHAR uni0188
ENCODING 392
SWIDTH 500 0
DWIDTH 8 0
BBX 6 8 1 0
BITMAP
04
08
68
98
80
80
88
70
ENDCHAR
STARTCHAR uni0189
ENCODING 393
SWIDTH 500 0
DWIDTH 8 0
BBX 7 7 0 0
BITMAP
F8
44
42
F2
42
44
F8
ENDCHAR
STARTCHAR uni018A
ENCODING 394
SWIDTH 500 0
DWIDTH 8 0
BBX 7 7 0 0
BITMAP
78
A4
A2
22
22
24
78
ENDCHAR
STARTCHAR uni018B
ENCODING 395
SWIDTH 500 0
DWIDTH 8 0
BBX 7 7 0 0
BITMAP
FE
84
3C
44
84
84
7E
ENDCHAR
STARTCHAR uni018C
ENCODING 396
SWIDTH 500 0
DWIDTH 8 0
BBX 6 8 1 0
BITMAP
F8
08
78
88
88
88
98
6C
ENDCHAR
STARTCHAR uni018D
ENCODING 397
SWIDTH 500 0
DWIDTH 8 0
BBX 5 8 1 0
BITMAP
70
88
88
90
A0
70
08
30
ENDCHAR
STARTCHAR uni018E
ENCODING 398
SWIDTH 500 0
DWIDTH 8 0
BBX 7 7 0 0
BITMAP
FE
84
24
3C
24
84
FE
ENDCHAR
STARTCHAR uni018F
ENCODING 399
SWIDTH 500 0
DWIDTH 8 0
BBX 7 7 0 0
BITMAP
B8
C4
02
FE
82
44
38
ENDCHAR
STARTCHAR uni0190
ENCODING 400
SWIDTH 500 0
DWIDTH 8 0
BBX 7 7 0 0
BITMAP
7A
86
80
78
80
82
7C
ENDCHAR
STARTCHAR uni0191
ENCODING 401
SWIDTH 500 0
DWIDTH 8 0
BBX 7 9 0 -2
BITMAP
FE
42
48
78
48
40
40
40
80
ENDCHAR
STARTCHAR florin
ENCODING 402
SWIDTH 500 0
DWIDTH 8 0
BBX 5 10 1 -2
BITMAP
18
20
20
70
20
20
20
20
20
C0
ENDCHAR
STARTCHAR uni0193
ENCODING 403
SWIDTH 500 0
DWIDTH 8 0
BBX 7 8 0 0
BITMAP
02
34
4C
80
9C
84
4C
34
ENDCHAR
STARTCHAR uni0194
ENCODING 404
SWIDTH 500 0
DWIDTH 8 0
BBX 7 9 0 -2
BITMAP
EE
44
44
28
28
10
28
28
10
ENDCHAR
STARTCHAR uni0195
ENCODING 405
SWIDTH 500 0
DWIDTH 8 0
BBX 7 8 0 0
BITMAP
C0
40
64
52
52
52
52
CC
ENDCHAR
STARTCHAR uni0196
ENCODING 406
SWIDTH 500 0
DWIDTH 8 0
BBX 4 7 2 0
BITMAP
E0
40
40
40
40
40
30
ENDCHAR
STARTCHAR uni0197
ENCODING 407
SWIDTH 500 0
DWIDTH 8 0
BBX 3 7 2 0
BITMAP
E0
40
40
E0
40
40
E0
ENDCHAR
STARTCHAR uni0198
ENCODING 408
SWIDTH 500 0
DWIDTH 8 0
BBX 7 7 0 0
BITMAP
E4
4A
48
70
48
44
EE
ENDCHAR
STARTCHAR uni0199
ENCODING 409
SWIDTH 500 0
DWIDTH 8 0
BBX 7 8 0 0
BITMAP
30
40
4E
44
78
48
44
EE
ENDCHAR
STARTCHAR uni019A
ENCODING 410
SWIDTH 500 0
DWIDTH 8 0
BBX 3 8 2 0
BITMAP
C0
40
40
40
E0
40
40
E0
ENDCHAR
STARTCHAR uni019B
ENCODING 411
SWIDTH 500 0
DWIDTH 8 0
BBX 7 8 0 0
BITMAP
68
30
50
28
28
44
44
EE
ENDCHAR
STARTCHAR uni019C
ENCODING 412
SWIDTH 500 0
DWIDTH 8 0
BBX 7 7 0 0
BITMAP
EE
44
54
54
54
54
2E
ENDCHAR
STARTCHAR uni019D
ENCODING 413
SWIDTH 500 0
DWIDTH 8 0
BBX 7 9 0 -2
BITMAP
CE
64
54
54
54
4C
44
40
80
ENDCHAR
STARTCHAR uni019E
ENCODING 414
SWIDTH 500 0
DWIDTH 8 0
BBX 7 8 0 -2
BITMAP
D8
64
44
44
44
E4
04
0E
ENDCHAR
STARTCHAR uni019F
ENCODING 415
SWIDTH 500 0
DWIDTH 8 0
BBX 7 7 0 0
BITMAP
38
44
82
FE
82
44
38
ENDCHAR
STARTCHAR Ohorn
ENCODING 416
SWIDTH 500 0
DWIDTH 8 0
BBX 7 7 0 0
BITMAP
72
8A
8C
88
88
88
70
ENDCHAR
STARTCHAR ohorn
ENCODING 417
SWIDTH 500 0
DWIDTH 8 0
BBX 7 6 0 0
BITMAP
72
8A
8C
88
88
70
ENDCHAR
STARTCHAR uni01A2
ENCODING 418
SWIDTH 500 0
DWIDTH 8 0
BBX 7 9 0 -2
BITMAP
68
94
94
94
94
94
64
04
0E
ENDCHAR
STARTCHAR uni01A3
ENCODING 419
SWIDTH 500 0
DWIDTH 8 0
BBX 7 8 0 -2
BITMAP
68
94
94
94
94
64
04
0E
ENDCHAR
STARTCHAR uni01A4
ENCODING 420
SWIDTH 500 0
DWIDTH 8 0
BBX 7 7 0 0
BITMAP
7C
A2
A2
32
2C
20
70
ENDCHAR
STARTCHAR uni01A5
ENCODING 421
SWIDTH 500 0
DWIDTH 8 0
BBX 6 10 0 -2
BITMAP
30
40
58
64
44
44
44
78
40
E0
ENDCHAR
STARTCHAR uni01A6
ENCODING 422
SWIDTH 500 0
DWIDTH 8 0
BBX 7 9 0 -2
BITMAP
E0
40
78
44
78
50
E8
04
0E
ENDCHAR
STARTCHAR uni01A7
ENCODING 423
SWIDTH 500 0
DWIDTH 8 0
BBX 7 7 0 0
BITMAP
BC
C2
02
7C
80
86
7A
ENDCHAR
STARTCHAR uni01A8
ENCODING 424
SWIDTH 500 0
DWIDTH 8 0
BBX 5 6 1 0
BITMAP
B0
C8
30
40
98
68
ENDCHAR
STARTCHAR uni01A9
ENCODING 425
SWIDTH 500 0
DWIDTH 8 0
BBX 7 7 0 0
BITMAP
FE
42
20
10
20
42
FE
ENDCHAR
STARTCHAR uni01AA
ENCODING 426
SWIDTH 500 0
DWIDTH 8 0
BBX 5 10 1 -2
BITMAP
40
A0
60
20
20
20
20
20
28
10
ENDCHAR
STARTCHAR uni01AB
ENCODING 427
SWIDTH 500 0
DWIDTH 8 0
BBX 4 9 2 -2
BITMAP
40
F0
40
40
40
50
30
10
60
ENDCHAR
STARTCHAR uni01AC
ENCODING 428
SWIDTH 500 0
DWIDTH 8 0
BBX 7 7 0 0
BITMAP
7E
92
50
10
10
10
38
ENDCHAR
STARTCHAR uni01AD
ENCODING 429
SWIDTH 500 0
DWIDTH 8 0
BBX 4 8 2 0
BITMAP
30
40
F0
40
40
40
50
20
ENDCHAR
STARTCHAR uni01AE
ENCODING 430
SWIDTH 500 0
DWIDTH 8 0
BBX 7 9 0 -2
BITMAP
FE
92
10
10
10
10
10
10
0C
ENDCHAR
STARTCHAR Uhorn
ENCODING 431
SWIDTH 500 0
DWIDTH 8 0
BBX 7 7 0 0
BITMAP
DA
4A
4C
48
48
48
30
ENDCHAR
STARTCHAR uhorn
ENCODING 432
SWIDTH 500 0
DWIDTH 8 0
BBX 7 6 0 0
BITMAP
DA
4A
4C
48
58
2C
ENDCHAR
STARTCHAR uni01B1
ENCODING 433
SWIDTH 500 0
DWIDTH 8 0
BBX 7 7 0 0
BITMAP
EE
AA
44
82
82
44
38
ENDCHAR
STARTCHAR uni01B2
ENCODING 434
SWIDTH 500 0
DWIDTH 8 0
BBX 7 7 0 0
BITMAP
EC
4A
42
42
42
44
38
ENDCHAR
STARTCHAR uni01B3
ENCODING 435
SWIDTH 500 0
DWIDTH 8 0
BBX 7 7 0 0
BITMAP
CE
A4
28
10
10
10
38
ENDCHAR
STARTCHAR uni01B4
ENCODING 436
SWIDTH 500 0
DWIDTH 8 0
BBX 7 10 0 -2
BITMAP
02
04
E4
44
44
28
28
10
10
60
ENDCHAR
STARTCHAR uni01B5
ENCODING 437
SWIDTH 500 0
DWIDTH 8 0
BBX 7 7 0 0
BITMAP
FE
84
08
7C
20
42
FE
ENDCHAR
STARTCHAR uni01B6
ENCODING 438
SWIDTH 500 0
DWIDTH 8 0
BBX 5 6 1 0
BITMAP
F8
10
F8
40
88
F8
ENDCHAR
STARTCHAR uni01B7
ENCODING 439
SWIDTH 500 0
DWIDTH 8 0
BBX 7 7 0 0
BITMAP
FE
84
08
1C
02
82
7C
ENDCHAR
STARTCHAR uni01B8
ENCODING 440
SWIDTH 500 0
DWIDTH 8 0
BBX 7 7 0 0
BITMAP
FE
42
20
70
80
82
7C
ENDCHAR
STARTCHAR uni01B9
ENCODING 441
SWIDTH 500 0
DWIDTH 8 0
BBX 5 8 1 -2
BITMAP
F8
48
20
70
80
80
88
70
ENDCHAR
STARTCHAR uni01BA
ENCODING 442
SWIDTH 500 0
DWIDTH 8 0
BBX 5 8 1 -2
BITMAP
F8
90
20
70
08
70
80
60
ENDCHAR
STARTCHAR uni01BB
ENCODING 443
SWIDTH 500 0
DWIDTH 8 0
BBX 5 7 1 0
BITMAP
B0
C8
10
F8
40
88
F8
ENDCHAR
STARTCHAR uni01BC
ENCODING 444
SWIDTH 500 0
DWIDTH 8 0
BBX 7 7 0 0
BITMAP
FE
42
40
7C
02
82
7C
ENDCHAR
STARTCHAR uni01BD
ENCODING 445
SWIDTH 500 0
DWIDTH 8 0
BBX 5 6 1 0
BITMAP
F8
48
60
10
88
70
ENDCHAR
STARTCHAR uni01BE
ENCODING 446
SWIDTH 500 0
DWIDTH 8 0
BBX 5 8 1 0
BITMAP
70
20
F8
20
10
08
88
70
ENDCHAR
STARTCHAR uni01BF
ENCODING 447
SWIDTH 500 0
DWIDTH 8 0
BBX 6 8 0 -2
BITMAP
D8
64
44
48
50
60
40
E0
ENDCHAR
STARTCHAR uni01C0
ENCODING 448
SWIDTH 500 0
DWIDTH 8 0
BBX 1 10 3 -2
BITMAP
80
80
80
80
80
80
80
80
80
80
ENDCHAR
STARTCHAR uni01C1
ENCODING 449
SWIDTH 500 0
DWIDTH 8 0
BBX 3 10 2 -2
BITMAP
A0
A0
A0
A0
A0
A0
A0
A0
A0
A0
ENDCHAR
STARTCHAR uni01C2
ENCODING 450
SWIDTH 500 0
DWIDTH 8 0
BBX 5 10 1 -2
BITMAP
20
20
20
F8
20
20
F8
20
20
20
ENDCHAR
STARTCHAR uni01C3
ENCODING 451
SWIDTH 500 0
DWIDTH 8 0
BBX 2 8 2 0
BITMAP
C0
C0
C0
40
40
00
C0
C0
ENDCHAR
STARTCHAR uni01C4
ENCODING 452
SWIDTH 500 0
DWIDTH 8 0
BBX 7 10 0 0
BITMAP
0A
04
00
CE
AA
A2
A4
A8
AA
CE
ENDCHAR
STARTCHAR uni01C5
ENCODING 453
SWIDTH 500 0
DWIDTH 8 0
BBX 7 9 0 0
BITMAP
0A
04
C0
AE
A2
A4
A8
AA
CE
ENDCHAR
STARTCHAR uni01C6
ENCODING 454
SWIDTH 500 0
DWIDTH 8 0
BBX 7 9 0 0
BITMAP
0A
64
20
6E
A2
A4
A8
AA
5E
ENDCHAR
STARTCHAR uni01C7
ENCODING 455
SWIDTH 500 0
DWIDTH 8 0
BBX 7 7 0 0
BITMAP
EE
44
44
54
58
42
FE
ENDCHAR
STARTCHAR uni01C8
ENCODING 456
SWIDTH 500 0
DWIDTH 8 0
BBX 7 10 0 -2
BITMAP
02
E0
46
42
42
42
4A
FA
02
0C
ENDCHAR
STARTCHAR uni01C9
ENCODING 457
SWIDTH 500 0
DWIDTH 8 0
BBX 6 10 0 -2
BITMAP
C4
40
4C
44
44
44
44
E4
04
18
ENDCHAR
STARTCHAR uni01CA
ENCODING 458
SWIDTH 500 0
DWIDTH 8 0
BBX 7 7 0 0
BITMAP
B6
94
D4
B4
94
84
D8
ENDCHAR
STARTCHAR uni01CB
ENCODING 459
SWIDTH 500 0
DWIDTH 8 0
BBX 7 10 0 -2
BITMAP
02
B0
96
D2
B2
92
92
D2
02
0C
ENDCHAR
STARTCHAR uni01CC
ENCODING 460
SWIDTH 500 0
DWIDTH 8 0
BBX 7 10 0 -2
BITMAP
02
00
A6
D2
92
92
92
DA
02
0C
ENDCHAR
STARTCHAR uni01CD
ENCODING 461
SWIDTH 500 0
DWIDTH 8 0
BBX 7 10 0 0
BITMAP
28
10
00
10
28
28
44
7C
44
EE
ENDCHAR
STARTCHAR uni01CE
ENCODING 462
SWIDTH 500 0
DWIDTH 8 0
BBX 6 9 1 0
BITMAP
50
20
00
70
88
18
68
88
74
ENDCHAR
STARTCHAR uni01CF
ENCODING 463
SWIDTH 500 0
DWIDTH 8 0
BBX 3 10 2 0
BITMAP
A0
40
00
E0
40
40
40
40
40
E0
ENDCHAR
STARTCHAR uni01D0
ENCODING 464
SWIDTH 500 0
DWIDTH 8 0
BBX 3 9 2 0
BITMAP
A0
40
00
C0
40
40
40
40
E0
ENDCHAR
STARTCHAR uni01D1
ENCODING 465
SWIDTH 500 0
DWIDTH 8 0
BBX 7 10 0 0
BITMAP
28
10
00
38
44
82
82
82
44
38
ENDCHAR
STARTCHAR uni01D2
ENCODING 466
SWIDTH 500 0
DWIDTH 8 0
BBX 5 9 1 0
BITMAP
50
20
00
70
88
88
88
88
70
ENDCHAR
STARTCHAR uni01D3
ENCODING 467
SWIDTH 500 0
DWIDTH 8 0
BBX 7 10 0 0
BITMAP
28
10
00
EE
44
44
44
44
44
38
ENDCHAR
STARTCHAR uni01D4
ENCODING 468
SWIDTH 500 0
DWIDTH 8 0
BBX 7 9 0 0
BITMAP
28
10
00
CC
44
44
44
4C
36
ENDCHAR
STARTCHAR uni01D5
ENCODING 469
SWIDTH 500 0
DWIDTH 8 0
BBX 7 10 0 0
BITMAP
7C
00
44
00
EE
44
44
44
44
38
ENDCHAR
STARTCHAR uni01D6
ENCODING 470
SWIDTH 500 0
DWIDTH 8 0
BBX 7 10 0 0
BITMAP
7C
00
44
00
CC
44
44
44
4C
36
ENDCHAR
STARTCHAR uni01D7
ENCODING 471
SWIDTH 500 0
DWIDTH 8 0
BBX 7 10 0 0
BITMAP
08
10
44
00
EE
44
44
44
44
38
ENDCHAR
STARTCHAR uni01D8
ENCODING 472
SWIDTH 500 0
DWIDTH 8 0
BBX 7 10 0 0
BITMAP
08
10
44
00
CC
44
44
44
4C
36
ENDCHAR
STARTCHAR uni01D9
ENCODING 473
SWIDTH 500 0
DWIDTH 8 0
BBX 7 10 0 0
BITMAP
28
10
44
00
EE
44
44
44
44
38
ENDCHAR
STARTCHAR uni01DA
ENCODING 474
SWIDTH 500 0
DWIDTH 8 0
BBX 7 10 0 0
BITMAP
28
10
44
00
CC
44
44
44
4C
36
ENDCHAR
STARTCHAR uni01DB
ENCODING 475
SWIDTH 500 0
DWIDTH 8 0
BBX 7 10 0 0
BITMAP
20
10
44
00
EE
44
44
44
44
38
ENDCHAR
STARTCHAR uni01DC
ENCODING 476
SWIDTH 500 0
DWIDTH 8 0
BBX 7 10 0 0
BITMAP
20
10
44
00
CC
44
44
44
4C
36
ENDCHAR
STARTCHAR uni01DD
ENCODING 477
SWIDTH 500 0
DWIDTH 8 0
BBX 5 6 1 0
BITMAP
70
88
08
F8
88
70
ENDCHAR
STARTCHAR uni01DE
ENCODING 478
SWIDTH 500 0
DWIDTH 8 0
BBX 7 10 0 0
BITMAP
7C
00
44
10
28
28
44
7C
44
EE
ENDCHAR
STARTCHAR uni01DF
ENCODING 479
SWIDTH 500 0
DWIDTH 8 0
BBX 6 10 1 0
BITMAP
F8
00
88
00
70
88
18
68
88
74
ENDCHAR
STARTCHAR uni01E0
ENCODING 480
SWIDTH 500 0
DWIDTH 8 0
BBX 7 10 0 0
BITMAP
7C
00
10
00
10
28
28
7C
44
EE
ENDCHAR
STARTCHAR uni01E1
ENCODING 481
SWIDTH 500 0
DWIDTH 8 0
BBX 6 10 1 0
BITMAP
F8
00
20
00
70
88
18
68
88
74
ENDCHAR
STARTCHAR uni01E2
ENCODING 482
SWIDTH 500 0
DWIDTH 8 0
BBX 7 9 0 0
BITMAP
7C
00
3E
52
50
9C
F0
92
DE
ENDCHAR
STARTCHAR uni01E3
ENCODING 483
SWIDTH 500 0
DWIDTH 8 0
BBX 7 8 0 0
BITMAP
7C
00
6C
92
3E
50
92
6C
ENDCHAR
STARTCHAR uni01E4
ENCODING 484
SWIDTH 500 0
DWIDTH 8 0
BBX 7 7 0 0
BITMAP
34
4C
80
9C
84
5E
34
ENDCHAR
STARTCHAR uni01E5
ENCODING 485
SWIDTH 500 0
DWIDTH 8 0
BBX 7 8 0 -2
BITMAP
3A
44
44
38
20
FE
44
38
ENDCHAR
STARTCHAR Gcaron
ENCODING 486
SWIDTH 500 0
DWIDTH 8 0
BBX 7 10 0 0
BITMAP
28
10
00
3A
46
80
8E
82
46
3A
ENDCHAR
STARTCHAR gcaron
ENCODING 487
SWIDTH 500 0
DWIDTH 8 0
BBX 6 11 1 -2
BITMAP
50
20
00
74
88
88
70
40
B0
88
70
ENDCHAR
STARTCHAR uni01E8
ENCODING 488
SWIDTH 500 0
DWIDTH 8 0
BBX 7 10 0 0
BITMAP
28
10
00
EE
44
48
70
48
44
EE
ENDCHAR
STARTCHAR uni01E9
ENCODING 489
SWIDTH 500 0
DWIDTH 8 0
BBX 7 10 0 0
BITMAP
28
10
C0
40
4E
44
78
48
44
EE
ENDCHAR
STARTCHAR uni01EA
ENCODING 490
SWIDTH 500 0
DWIDTH 8 0
BBX 7 9 0 -2
BITMAP
38
44
82
82
82
44
38
10
0C
ENDCHAR
STARTCHAR uni01EB
ENCODING 491
SWIDTH 500 0
DWIDTH 8 0
BBX 5 8 1 -2
BITMAP
70
88
88
88
88
70
20
18
ENDCHAR
STARTCHAR uni01EC
ENCODING 492
SWIDTH 500 0
DWIDTH 8 0
BBX 7 11 0 -2
BITMAP
7C
00
38
44
82
82
82
44
38
10
0C
ENDCHAR
STARTCHAR uni01ED
ENCODING 493
SWIDTH 500 0
DWIDTH 8 0
BBX 5 10 1 -2
BITMAP
F8
00
70
88
88
88
88
70
20
18
ENDCHAR
STARTCHAR uni01EE
ENCODING 494
SWIDTH 500 0
DWIDTH 8 0
BBX 7 10 0 0
BITMAP
28
10
00
FE
84
08
1C
02
82
7C
ENDCHAR
STARTCHAR uni01EF
ENCODING 495
SWIDTH 500 0
DWIDTH 8 0
BBX 5 11 1 -2
BITMAP
50
20
00
F8
90
20
70
08
08
88
70
ENDCHAR
STARTCHAR uni01F0
ENCODING 496
SWIDTH 500 0
DWIDTH 8 0
BBX 4 11 1 -2
BITMAP
50
20
00
60
20
20
20
20
20
20
C0
ENDCHAR
STARTCHAR uni01F1
ENCODING 497
SWIDTH 500 0
DWIDTH 8 0
BBX 7 7 0 0
BITMAP
CE
AA
A2
A4
A8
AA
CE
ENDCHAR
STARTCHAR uni01F2
ENCODING 498
SWIDTH 500 0
DWIDTH 8 0
BBX 7 7 0 0
BITMAP
C0
AE
A2
A4
A8
AA
CE
ENDCHAR
STARTCHAR uni01F3
ENCODING 499
SWIDTH 500 0
DWIDTH 8 0
BBX 7 8 0 0
BITMAP
60
20
6E
A2
A4
A8
AA
5E
ENDCHAR
STARTCHAR uni01F4
ENCODING 500
SWIDTH 500 0
DWIDTH 8 0
BBX 7 10 0 0
BITMAP
08
10
00
3A
46
80
8E
82
46
3A
ENDCHAR
STARTCHAR uni01F5
ENCODING 501
SWIDTH 500 0
DWIDTH 8 0
BBX 6 11 1 -2
BITMAP
10
20
00
74
88
88
70
40
B0
88
70
ENDCHAR
STARTCHAR uni01F6
ENCODING 502
SWIDTH 500 0
DWIDTH 8 0
BBX 7 7 0 0
BITMAP
D8
50
50
76
54
54
C8
ENDCHAR
STARTCHAR uni01F7
ENCODING 503
SWIDTH 500 0
DWIDTH 8 0
BBX 7 9 0 -2
BITMAP
DC
62
42
44
48
50
60
40
E0
ENDCHAR
STARTCHAR uni01F8
ENCODING 504
SWIDTH 500 0
DWIDTH 8 0
BBX 7 10 0 0
BITMAP
20
10
00
CE
64
54
54
54
4C
E4
ENDCHAR
STARTCHAR uni01F9
ENCODING 505
SWIDTH 500 0
DWIDTH 8 0
BBX 7 9 0 0
BITMAP
20
10
00
D8
64
44
44
44
E6
ENDCHAR
STARTCHAR Aringacute
ENCODING 506
SWIDTH 500 0
DWIDTH 8 0
BBX 7 10 0 0
BITMAP
40
90
28
10
28
28
44
7C
44
EE
ENDCHAR
STARTCHAR aringacute
ENCODING 507
SWIDTH 500 0
DWIDTH 8 0
BBX 7 10 0 0
BITMAP
40
90
28
10
38
44
0C
34
44
3A
ENDCHAR
STARTCHAR AEacute
ENCODING 508
SWIDTH 500 0
DWIDTH 8 0
BBX 7 10 0 0
BITMAP
08
10
00
3E
52
50
9C
F0
92
DE
ENDCHAR
STARTCHAR aeacute
ENCODING 509
SWIDTH 500 0
DWIDTH 8 0
BBX 7 9 0 0
BITMAP
08
10
00
6C
92
3E
50
92
6C
ENDCHAR
STARTCHAR Oslashacute
ENCODING 510
SWIDTH 500 0
DWIDTH 8 0
BBX 7 10 0 0
BITMAP
08
10
00
3A
44
8A
92
A2
44
B8
ENDCHAR
STARTCHAR oslashacute
ENCODING 511
SWIDTH 500 0
DWIDTH 8 0
BBX 5 10 1 -1
BITMAP
10
20
08
70
98
A8
A8
C8
70
80
ENDCHAR
STARTCHAR uni0200
ENCODING 512
SWIDTH 500 0
DWIDTH 8 0
BBX 7 10 0 0
BITMAP
48
24
00
10
28
28
44
7C
44
EE
ENDCHAR
STARTCHAR uni0201
ENCODING 513
SWIDTH 500 0
DWIDTH 8 0
BBX 6 9 1 0
BITMAP
90
48
00
70
88
18
68
88
74
ENDCHAR
STARTCHAR uni0202
ENCODING 514
SWIDTH 500 0
DWIDTH 8 0
BBX 7 10 0 0
BITMAP
38
44
00
10
28
28
44
7C
44
EE
ENDCHAR
STARTCHAR uni0203
ENCODING 515
SWIDTH 500 0
DWIDTH 8 0
BBX 6 9 1 0
BITMAP
70
88
00
70
88
18
68
88
74
ENDCHAR
STARTCHAR uni0204
ENCODING 516
SWIDTH 500 0
DWIDTH 8 0
BBX 7 10 0 0
BITMAP
48
24
00
FE
42
48
78
48
42
FE
ENDCHAR
STARTCHAR uni0205
ENCODING 517
SWIDTH 500 0
DWIDTH 8 0
BBX 5 9 1 0
BITMAP
90
48
00
70
88
F8
80
88
70
ENDCHAR
STARTCHAR uni0206
ENCODING 518
SWIDTH 500 0
DWIDTH 8 0
BBX 7 10 0 0
BITMAP
38
44
00
FE
42
48
78
48
42
FE
ENDCHAR
STARTCHAR uni0207
ENCODING 519
SWIDTH 500 0
DWIDTH 8 0
BBX 5 9 1 0
BITMAP
70
88
00
70
88
F8
80
88
70
ENDCHAR
STARTCHAR uni0208
ENCODING 520
SWIDTH 500 0
DWIDTH 8 0
BBX 5 10 1 0
BITMAP
90
48
00
70
20
20
20
20
20
70
ENDCHAR
STARTCHAR uni0209
ENCODING 521
SWIDTH 500 0
DWIDTH 8 0
BBX 5 9 1 0
BITMAP
90
48
00
60
20
20
20
20
70
ENDCHAR
STARTCHAR uni020A
ENCODING 522
SWIDTH 500 0
DWIDTH 8 0
BBX 5 10 1 0
BITMAP
70
88
00
70
20
20
20
20
20
70
ENDCHAR
STARTCHAR uni020B
ENCODING 523
SWIDTH 500 0
DWIDTH 8 0
BBX 5 9 1 0
BITMAP
70
88
00
60
20
20
20
20
70
ENDCHAR
STARTCHAR uni020C
ENCODING 524
SWIDTH 500 0
DWIDTH 8 0
BBX 7 10 0 0
BITMAP
48
24
00
38
44
82
82
82
44
38
ENDCHAR
STARTCHAR uni020D
ENCODING 525
SWIDTH 500 0
DWIDTH 8 0
BBX 5 9 1 0
BITMAP
90
48
00
70
88
88
88
88
70
ENDCHAR
STARTCHAR uni020E
ENCODING 526
SWIDTH 500 0
DWIDTH 8 0
BBX 7 10 0 0
BITMAP
38
44
00
38
44
82
82
82
44
38
ENDCHAR
STARTCHAR uni020F
ENCODING 527
SWIDTH 500 0
DWIDTH 8 0
BBX 5 9 1 0
BITMAP
70
88
00
70
88
88
88
88
70
ENDCHAR
STARTCHAR uni0210
ENCODING 528
SWIDTH 500 0
DWIDTH 8 0
BBX 7 10 0 0
BITMAP
48
24
00
FC
42
42
7C
48
44
EE
ENDCHAR
STARTCHAR uni0211
ENCODING 529
SWIDTH 500 0
DWIDTH 8 0
BBX 6 9 0 0
BITMAP
48
24
00
D8
64
40
40
40
E0
ENDCHAR
STARTCHAR uni0212
ENCODING 530
SWIDTH 500 0
DWIDTH 8 0
BBX 7 10 0 0
BITMAP
38
44
00
FC
42
42
7C
48
44
EE
ENDCHAR
STARTCHAR uni0213
ENCODING 531
SWIDTH 500 0
DWIDTH 8 0
BBX 6 9 0 0
BITMAP
38
44
00
D8
64
40
40
40
E0
ENDCHAR
STARTCHAR uni0214
ENCODING 532
SWIDTH 500 0
DWIDTH 8 0
BBX 7 10 0 0
BITMAP
48
24
00
EE
44
44
44
44
44
38
ENDCHAR
STARTCHAR uni0215
ENCODING 533
SWIDTH 500 0
DWIDTH 8 0
BBX 7 9 0 0
BITMAP
48
24
00
CC
44
44
44
4C
36
ENDCHAR
STARTCHAR uni0216
ENCODING 534
SWIDTH 500 0
DWIDTH 8 0
BBX 7 10 0 0
BITMAP
38
44
00
EE
44
44
44
44
44
38
ENDCHAR
STARTCHAR uni0217
ENCODING 535
SWIDTH 500 0
DWIDTH 8 0
BBX 7 9 0 0
BITMAP
38
44
00
CC
44
44
44
4C
36
ENDCHAR
STARTCHAR uni0218
ENCODING 536
SWIDTH 500 0
DWIDTH 8 0
BBX 7 9 0 -2
BITMAP
7A
86
80
7C
02
C2
BC
10
20
ENDCHAR
STARTCHAR uni0219
ENCODING 537
SWIDTH 500 0
DWIDTH 8 0
BBX 5 8 1 -2
BITMAP
68
98
60
10
C8
B0
20
40
ENDCHAR
STARTCHAR uni021A
ENCODING 538
SWIDTH 500 0
DWIDTH 8 0
BBX 7 9 0 -2
BITMAP
FE
92
10
10
10
10
38
10
20
ENDCHAR
STARTCHAR uni021B
ENCODING 539
SWIDTH 500 0
DWIDTH 8 0
BBX 4 9 2 -2
BITMAP
40
F0
40
40
40
50
20
20
40
ENDCHAR
STARTCHAR uni021C
ENCODING 540
SWIDTH 500 0
DWIDTH 8 0
BBX 7 9 0 -2
BITMAP
BC
C2
02
04
1A
02
04
08
70
ENDCHAR
STARTCHAR uni021D
ENCODING 541
SWIDTH 500 0
DWIDTH 8 0
BBX 5 8 1 -2
BITMAP
B0
C8
08
10
28
08
10
60
ENDCHAR
STARTCHAR uni021E
ENCODING 542
SWIDTH 500 0
DWIDTH 8 0
BBX 7 10 0 0
BITMAP
28
10
00
EE
44
44
7C
44
44
EE
ENDCHAR
STARTCHAR uni021F
ENCODING 543
SWIDTH 500 0
DWIDTH 8 0
BBX 7 10 0 0
BITMAP
28
10
C0
40
58
64
44
44
44
E6
ENDCHAR
STARTCHAR uni0220
ENCODING 544
SWIDTH 500 0
DWIDTH 8 0
BBX 7 9 0 -2
BITMAP
CE
64
54
54
54
4C
E4
04
0E
ENDCHAR
STARTCHAR uni0221
ENCODING 545
SWIDTH 500 0
DWIDTH 8 0
BBX 7 10 0 -2
BITMAP
18
08
78
88
88
8C
9A
6C
08
04
ENDCHAR
STARTCHAR uni0222
ENCODING 546
SWIDTH 500 0
DWIDTH 8 0
BBX 7 7 0 0
BITMAP
44
82
82
7C
82
82
7C
ENDCHAR
STARTCHAR uni0223
ENCODING 547
SWIDTH 500 0
DWIDTH 8 0
BBX 5 8 1 0
BITMAP
50
88
88
70
88
88
88
70
ENDCHAR
STARTCHAR uni0224
ENCODING 548
SWIDTH 500 0
DWIDTH 8 0
BBX 7 9 0 -2
BITMAP
FE
84
08
10
20
42
FE
02
0C
ENDCHAR
STARTCHAR uni0225
ENCODING 549
SWIDTH 500 0
DWIDTH 8 0
BBX 5 8 1 -2
BITMAP
F8
88
30
40
88
F8
08
30
ENDCHAR
STARTCHAR uni0226
ENCODING 550
SWIDTH 500 0
DWIDTH 8 0
BBX 7 9 0 0
BITMAP
10
00
10
28
28
44
7C
44
EE
ENDCHAR
STARTCHAR uni0227
ENCODING 551
SWIDTH 500 0
DWIDTH 8 0
BBX 6 8 1 0
BITMAP
20
00
70
88
18
68
88
74
ENDCHAR
STARTCHAR uni0228
ENCODING 552
SWIDTH 500 0
DWIDTH 8 0
BBX 7 9 0 -2
BITMAP
FE
42
48
78
48
42
FE
08
30
ENDCHAR
STARTCHAR uni0229
ENCODING 553
SWIDTH 500 0
DWIDTH 8 0
BBX 5 8 1 -2
BITMAP
70
88
F8
80
88
70
10
60
ENDCHAR
STARTCHAR uni022A
ENCODING 554
SWIDTH 500 0
DWIDTH 8 0
BBX 7 10 0 0
BITMAP
7C
00
44
00
38
44
82
82
44
38
ENDCHAR
STARTCHAR uni022B
ENCODING 555
SWIDTH 500 0
DWIDTH 8 0
BBX 5 10 1 0
BITMAP
F8
00
88
00
70
88
88
88
88
70
ENDCHAR
STARTCHAR uni022C
ENCODING 556
SWIDTH 500 0
DWIDTH 8 0
BBX 7 10 0 0
BITMAP
7C
00
34
48
38
44
82
82
44
38
ENDCHAR
STARTCHAR uni022D
ENCODING 557
SWIDTH 500 0
DWIDTH 8 0
BBX 5 10 1 0
BITMAP
F8
00
68
90
70
88
88
88
88
70
ENDCHAR
STARTCHAR uni022E
ENCODING 558
SWIDTH 500 0
DWIDTH 8 0
BBX 7 9 0 0
BITMAP
10
00
38
44
82
82
82
44
38
ENDCHAR
STARTCHAR uni022F
ENCODING 559
SWIDTH 500 0
DWIDTH 8 0
BBX 5 8 1 0
BITMAP
20
00
70
88
88
88
88
70
ENDCHAR
STARTCHAR uni0230
ENCODING 560
SWIDTH 500 0
DWIDTH 8 0
BBX 7 10 0 0
BITMAP
7C
00
10
00
38
44
82
82
44
38
ENDCHAR
STARTCHAR uni0231
ENCODING 561
SWIDTH 500 0
DWIDTH 8 0
BBX 5 10 1 0
BITMAP
F8
00
20
00
70
88
88
88
88
70
ENDCHAR
STARTCHAR uni0232
ENCODING 562
SWIDTH 500 0
DWIDTH 8 0
BBX 7 9 0 0
BITMAP
7C
00
EE
44
28
10
10
10
38
ENDCHAR
STARTCHAR uni0233
ENCODING 563
SWIDTH 500 0
DWIDTH 8 0
BBX 7 10 0 -2
BITMAP
7C
00
EE
44
44
28
28
10
10
60
ENDCHAR
STARTCHAR uni0234
ENCODING 564
SWIDTH 500 0
DWIDTH 8 0
BBX 4 10 2 -2
BITMAP
C0
40
40
40
40
60
50
60
40
20
ENDCHAR
STARTCHAR uni0235
ENCODING 565
SWIDTH 500 0
DWIDTH 8 0
BBX 7 8 0 -2
BITMAP
D0
68
48
4C
4A
CC
08
04
ENDCHAR
STARTCHAR uni0236
ENCODING 566
SWIDTH 500 0
DWIDTH 8 0
BBX 4 9 2 -2
BITMAP
40
F0
40
40
60
50
60
40
20
ENDCHAR
STARTCHAR uni0237
ENCODING 567
SWIDTH 500 0
DWIDTH 8 0
BBX 3 8 1 -2
BITMAP
60
20
20
20
20
20
20
C0
ENDCHAR
STARTCHAR uni0238
ENCODING 568
SWIDTH 500 0
DWIDTH 8 0
BBX 7 8 0 0
BITMAP
30
10
74
9A
92
92
B2
5C
ENDCHAR
STARTCHAR uni0239
ENCODING 569
SWIDTH 500 0
DWIDTH 8 0
BBX 7 8 0 -2
BITMAP
74
9A
92
92
B2
5C
10
38
ENDCHAR
STARTCHAR uni023A
ENCODING 570
SWIDTH 500 0
DWIDTH 8 0
BBX 7 7 0 0
BITMAP
12
2C
28
54
7C
44
EE
ENDCHAR
STARTCHAR uni023B
ENCODING 571
SWIDTH 500 0
DWIDTH 8 0
BBX 7 7 0 0
BITMAP
3A
46
88
90
A2
44
B8
ENDCHAR
STARTCHAR uni023C
ENCODING 572
SWIDTH 500 0
DWIDTH 8 0
BBX 5 8 1 -1
BITMAP
08
68
98
A0
A0
C8
70
80
ENDCHAR
STARTCHAR uni023D
ENCODING 573
SWIDTH 500 0
DWIDTH 8 0
BBX 7 7 0 0
BITMAP
E0
40
40
F0
40
42
FE
ENDCHAR
STARTCHAR uni023E
ENCODING 574
SWIDTH 500 0
DWIDTH 8 0
BBX 7 7 0 0
BITMAP
FE
96
18
10
30
50
B8
ENDCHAR
STARTCHAR uni023F
ENCODING 575
SWIDTH 500 0
DWIDTH 8 0
BBX 5 8 1 -2
BITMAP
68
98
60
10
88
70
20
18
ENDCHAR
STARTCHAR uni0240
ENCODING 576
SWIDTH 500 0
DWIDTH 8 0
BBX 5 8 1 -2
BITMAP
F8
88
30
40
80
C0
28
10
ENDCHAR
STARTCHAR uni0241
ENCODING 577
SWIDTH 500 0
DWIDTH 8 0
BBX 7 7 0 0
BITMAP
B8
C4
02
04
18
10
38
ENDCHAR
STARTCHAR uni0242
ENCODING 578
SWIDTH 500 0
DWIDTH 8 0
BBX 5 8 1 0
BITMAP
70
88
08
10
20
20
20
70
ENDCHAR
STARTCHAR uni0243
ENCODING 579
SWIDTH 500 0
DWIDTH 8 0
BBX 7 7 0 0
BITMAP
F8
44
78
44
F2
42
FC
ENDCHAR
STARTCHAR uni0244
ENCODING 580
SWIDTH 500 0
DWIDTH 8 0
BBX 7 7 0 0
BITMAP
EE
44
44
FE
44
44
38
ENDCHAR
STARTCHAR uni0245
ENCODING 581
SWIDTH 500 0
DWIDTH 8 0
BBX 7 7 0 0
BITMAP
10
28
28
44
44
44
EE
ENDCHAR
STARTCHAR uni0246
ENCODING 582
SWIDTH 500 0
DWIDTH 8 0
BBX 7 7 0 0
BITMAP
FE
46
48
78
68
42
FE
ENDCHAR
STARTCHAR uni0247
ENCODING 583
SWIDTH 500 0
DWIDTH 8 0
BBX 5 8 1 -1
BITMAP
08
70
98
F8
A0
C8
70
80
ENDCHAR
STARTCHAR uni0248
ENCODING 584
SWIDTH 500 0
DWIDTH 8 0
BBX 6 7 1 0
BITMAP
1C
08
08
3C
88
88
70
ENDCHAR
STARTCHAR uni0249
ENCODING 585
SWIDTH 500 0
DWIDTH 8 0
BBX 4 10 1 -2
BITMAP
20
00
60
20
20
70
20
20
20
C0
ENDCHAR
STARTCHAR uni024A
ENCODING 586
SWIDTH 500 0
DWIDTH 8 0
BBX 7 9 0 -2
BITMAP
36
4C
84
84
84
4C
34
04
02
ENDCHAR
STARTCHAR uni024B
ENCODING 587
SWIDTH 500 0
DWIDTH 8 0
BBX 6 8 1 -2
BITMAP
74
88
88
88
98
68
08
04
ENDCHAR
STARTCHAR uni024C
ENCODING 588
SWIDTH 500 0
DWIDTH 8 0
BBX 7 7 0 0
BITMAP
FC
42
42
FC
48
44
EE
ENDCHAR
STARTCHAR uni024D
ENCODING 589
SWIDTH 500 0
DWIDTH 8 0
BBX 6 6 0 0
BITMAP
D8
64
40
F0
40
E0
ENDCHAR
STARTCHAR uni024E
ENCODING 590
SWIDTH 500 0
DWIDTH 8 0
BBX 7 7 0 0
BITMAP
EE
44
FE
28
10
10
38
ENDCHAR
STARTCHAR uni024F
ENCODING 591
SWIDTH 500 0
DWIDTH 8 0
BBX 7 8 0 -2
BITMAP
EE
44
FE
28
28
10
10
60
ENDCHAR
STARTCHAR uni0250
ENCODING 592
SWIDTH 500 0
DWIDTH 8 0
BBX 6 6 0 0
BITMAP
B8
44
58
60
44
38
ENDCHAR
STARTCHAR uni0251
ENCODING 593
SWIDTH 500 0
DWIDTH 8 0
BBX 6 6 1 0
BITMAP
74
88
88
88
98
6C
ENDCHAR
STARTCHAR uni0252
ENCODING 594
SWIDTH 500 0
DWIDTH 8 0
BBX 6 6 0 0
BITMAP
D8
64
44
44
44
B8
ENDCHAR
STARTCHAR uni0253
ENCODING 595
SWIDTH 500 0
DWIDTH 8 0
BBX 6 8 0 0
BITMAP
30
40
58
64
44
44
44
B8
ENDCHAR
STARTCHAR uni0254
ENCODING 596
SWIDTH 500 0
DWIDTH 8 0
BBX 5 6 1 0
BITMAP
70
88
08
08
C8
B0
ENDCHAR
STARTCHAR uni0255
ENCODING 597
SWIDTH 500 0
DWIDTH 8 0
BBX 5 7 1 -1
BITMAP
68
98
80
90
A8
70
40
ENDCHAR
STARTCHAR uni0256
ENCODING 598
SWIDTH 500 0
DWIDTH 8 0
BBX 7 10 0 -2
BITMAP
18
08
78
88
88
88
98
68
08
06
ENDCHAR
STARTCHAR uni0257
ENCODING 599
SWIDTH 500 0
DWIDTH 8 0
BBX 7 8 0 0
BITMAP
06
08
78
88
88
88
98
6C
ENDCHAR
STARTCHAR uni0258
ENCODING 600
SWIDTH 500 0
DWIDTH 8 0
BBX 5 6 1 0
BITMAP
70
88
F8
08
88
70
ENDCHAR
STARTCHAR uni0259
ENCODING 601
SWIDTH 500 0
DWIDTH 8 0
BBX 5 6 1 0
BITMAP
70
88
08
F8
88
70
ENDCHAR
STARTCHAR uni025A
ENCODING 602
SWIDTH 500 0
DWIDTH 8 0
BBX 7 6 0 0
BITMAP
6A
94
30
50
90
60
ENDCHAR
STARTCHAR uni025B
ENCODING 603
SWIDTH 500 0
DWIDTH 8 0
BBX 5 6 1 0
BITMAP
68
98
80
60
88
70
ENDCHAR
STARTCHAR uni025C
ENCODING 604
SWIDTH 500 0
DWIDTH 8 0
BBX 5 6 1 0
BITMAP
70
88
30
08
C8
B0
ENDCHAR
STARTCHAR uni025D
ENCODING 605
SWIDTH 500 0
DWIDTH 8 0
BBX 7 6 0 0
BITMAP
6A
94
20
10
D0
A0
ENDCHAR
STARTCHAR uni025E
ENCODING 606
SWIDTH 500 0
DWIDTH 8 0
BBX 5 6 1 0
BITMAP
70
88
B0
88
88
70
ENDCHAR
STARTCHAR uni025F
ENCODING 607
SWIDTH 500 0
DWIDTH 8 0
BBX 4 8 1 -2
BITMAP
60
20
70
20
20
20
20
C0
ENDCHAR
STARTCHAR uni0260
ENCODING 608
SWIDTH 500 0
DWIDTH 8 0
BBX 7 10 0 -2
BITMAP
06
08
78
88
88
88
98
68
88
70
ENDCHAR
STARTCHAR uni0261
ENCODING 609
SWIDTH 500 0
DWIDTH 8 0
BBX 6 8 1 -2
BITMAP
74
88
88
88
98
68
88
70
ENDCHAR
STARTCHAR uni0262
ENCODING 610
SWIDTH 500 0
DWIDTH 8 0
BBX 5 6 1 0
BITMAP
68
98
80
B8
98
68
ENDCHAR
STARTCHAR uni0263
ENCODING 611
SWIDTH 500 0
DWIDTH 8 0
BBX 7 8 0 -2
BITMAP
EE
44
28
10
28
28
28
10
ENDCHAR
STARTCHAR uni0264
ENCODING 612
SWIDTH 500 0
DWIDTH 8 0
BBX 7 6 0 0
BITMAP
C6
AA
10
28
28
10
ENDCHAR
STARTCHAR uni0265
ENCODING 613
SWIDTH 500 0
DWIDTH 8 0
BBX 7 8 0 -2
BITMAP
CC
44
44
44
4C
34
04
0E
ENDCHAR
STARTCHAR uni0266
ENCODING 614
SWIDTH 500 0
DWIDTH 8 0
BBX 7 8 0 0
BITMAP
30
40
58
64
44
44
44
EE
ENDCHAR
STARTCHAR uni0267
ENCODING 615
SWIDTH 500 0
DWIDTH 8 0
BBX 6 10 0 -2
BITMAP
30
40
58
64
44
44
44
E4
04
18
ENDCHAR
STARTCHAR uni0268
ENCODING 616
SWIDTH 500 0
DWIDTH 8 0
BBX 3 8 2 0
BITMAP
40
00
C0
40
E0
40
40
E0
ENDCHAR
STARTCHAR uni0269
ENCODING 617
SWIDTH 500 0
DWIDTH 8 0
BBX 3 6 2 0
BITMAP
C0
40
40
40
40
20
ENDCHAR
STARTCHAR uni026A
ENCODING 618
SWIDTH 500 0
DWIDTH 8 0
BBX 3 6 2 0
BITMAP
E0
40
40
40
40
E0
ENDCHAR
STARTCHAR uni026B
ENCODING 619
SWIDTH 500 0
DWIDTH 8 0
BBX 5 8 1 0
BITMAP
60
20
20
68
B0
20
20
70
ENDCHAR
STARTCHAR uni026C
ENCODING 620
SWIDTH 500 0
DWIDTH 8 0
BBX 5 8 1 0
BITMAP
60
20
60
A0
78
20
20
70
ENDCHAR
STARTCHAR uni026D
ENCODING 621
SWIDTH 500 0
DWIDTH 8 0
BBX 4 10 2 -2
BITMAP
C0
40
40
40
40
40
40
40
40
30
ENDCHAR
STARTCHAR uni026E
ENCODING 622
SWIDTH 500 0
DWIDTH 8 0
BBX 6 10 0 -2
BITMAP
C0
40
7C
48
50
78
44
E4
04
38
ENDCHAR
STARTCHAR uni026F
ENCODING 623
SWIDTH 500 0
DWIDTH 8 0
BBX 7 6 0 0
BITMAP
D4
54
54
54
54
2E
ENDCHAR
STARTCHAR uni0270
ENCODING 624
SWIDTH 500 0
DWIDTH 8 0
BBX 7 8 0 -2
BITMAP
D4
54
54
54
54
2C
04
0E
ENDCHAR
STARTCHAR uni0271
ENCODING 625
SWIDTH 500 0
DWIDTH 8 0
BBX 6 8 0 -2
BITMAP
E8
54
54
54
54
D4
04
18
ENDCHAR
STARTCHAR uni0272
ENCODING 626
SWIDTH 500 0
DWIDTH 8 0
BBX 7 8 0 -2
BITMAP
68
34
24
24
24
2E
20
C0
ENDCHAR
STARTCHAR uni0273
ENCODING 627
SWIDTH 500 0
DWIDTH 8 0
BBX 7 8 0 -2
BITMAP
D0
68
48
48
48
E8
08
06
ENDCHAR
STARTCHAR uni0274
ENCODING 628
SWIDTH 500 0
DWIDTH 8 0
BBX 7 6 0 0
BITMAP
CE
64
54
54
4C
E4
ENDCHAR
STARTCHAR uni0275
ENCODING 629
SWIDTH 500 0
DWIDTH 8 0
BBX 5 6 1 0
BITMAP
70
88
F8
88
88
70
ENDCHAR
STARTCHAR uni0276
ENCODING 630
SWIDTH 500 0
DWIDTH 8 0
BBX 7 6 0 0
BITMAP
7E
90
9C
90
92
7E
ENDCHAR
STARTCHAR uni0277
ENCODING 631
SWIDTH 500 0
DWIDTH 8 0
BBX 7 6 0 0
BITMAP
7C
82
92
92
92
6C
ENDCHAR
STARTCHAR uni0278
ENCODING 632
SWIDTH 500 0
DWIDTH 8 0
BBX 5 10 1 -2
BITMAP
60
20
70
A8
A8
A8
A8
70
20
70
ENDCHAR
STARTCHAR uni0279
ENCODING 633
SWIDTH 500 0
DWIDTH 8 0
BBX 6 6 1 0
BITMAP
18
08
08
08
98
6C
ENDCHAR
STARTCHAR uni027A
ENCODING 634
SWIDTH 500 0
DWIDTH 8 0
BBX 6 8 1 0
BITMAP
18
08
08
08
08
08
98
6C
ENDCHAR
STARTCHAR uni027B
ENCODING 635
SWIDTH 500 0
DWIDTH 8 0
BBX 7 8 0 -2
BITMAP
18
08
08
08
98
68
08
06
ENDCHAR
STARTCHAR uni027C
ENCODING 636
SWIDTH 500 0
DWIDTH 8 0
BBX 6 8 0 -2
BITMAP
D8
64
40
40
40
40
40
E0
ENDCHAR
STARTCHAR uni027D
ENCODING 637
SWIDTH 500 0
DWIDTH 8 0
BBX 6 8 0 -2
BITMAP
D8
64
40
40
40
40
40
30
ENDCHAR
STARTCHAR uni027E
ENCODING 638
SWIDTH 500 0
DWIDTH 8 0
BBX 6 6 0 0
BITMAP
38
44
40
40
40
E0
ENDCHAR
STARTCHAR uni027F
ENCODING 639
SWIDTH 500 0
DWIDTH 8 0
BBX 6 6 1 0
BITMAP
70
88
08
08
08
1C
ENDCHAR
STARTCHAR uni0280
ENCODING 640
SWIDTH 500 0
DWIDTH 8 0
BBX 7 6 0 0
BITMAP
F8
44
44
78
44
EE
ENDCHAR
STARTCHAR uni0281
ENCODING 641
SWIDTH 500 0
DWIDTH 8 0
BBX 7 6 0 0
BITMAP
CE
44
78
44
44
F8
ENDCHAR
STARTCHAR uni0282
ENCODING 642
SWIDTH 500 0
DWIDTH 8 0
BBX 5 8 1 -2
BITMAP
68
98
60
10
C8
B0
80
60
ENDCHAR
STARTCHAR uni0283
ENCODING 643
SWIDTH 500 0
DWIDTH 8 0
BBX 3 10 2 -2
BITMAP
60
80
80
40
40
40
20
20
20
C0
ENDCHAR
STARTCHAR uni0284
ENCODING 644
SWIDTH 500 0
DWIDTH 8 0
BBX 5 10 1 -2
BITMAP
18
20
60
20
70
20
20
20
20
C0
ENDCHAR
STARTCHAR uni0285
ENCODING 645
SWIDTH 500 0
DWIDTH 8 0
BBX 3 10 2 -2
BITMAP
C0
20
20
40
40
40
80
80
80
60
ENDCHAR
STARTCHAR uni0286
ENCODING 646
SWIDTH 500 0
DWIDTH 8 0
BBX 4 10 2 -2
BITMAP
60
80
80
40
40
40
20
60
B0
40
ENDCHAR
STARTCHAR uni0287
ENCODING 647
SWIDTH 500 0
DWIDTH 8 0
BBX 4 7 1 -1
BITMAP
40
A0
20
20
20
F0
20
ENDCHAR
STARTCHAR uni0288
ENCODING 648
SWIDTH 500 0
DWIDTH 8 0
BBX 4 9 2 -2
BITMAP
40
F0
40
40
40
40
40
40
30
ENDCHAR
STARTCHAR uni0289
ENCODING 649
SWIDTH 500 0
DWIDTH 8 0
BBX 7 6 0 0
BITMAP
CC
44
FE
44
4C
36
ENDCHAR
STARTCHAR uni028A
ENCODING 650
SWIDTH 500 0
DWIDTH 8 0
BBX 5 6 1 0
BITMAP
D8
50
88
88
88
70
ENDCHAR
STARTCHAR uni028B
ENCODING 651
SWIDTH 500 0
DWIDTH 8 0
BBX 6 6 0 0
BITMAP
C8
44
44
44
44
38
ENDCHAR
STARTCHAR uni028C
ENCODING 652
SWIDTH 500 0
DWIDTH 8 0
BBX 7 6 0 0
BITMAP
10
28
28
44
44
EE
ENDCHAR
STARTCHAR uni028D
ENCODING 653
SWIDTH 500 0
DWIDTH 8 0
BBX 7 6 0 0
BITMAP
28
28
54
54
44
EE
ENDCHAR
STARTCHAR uni028E
ENCODING 654
SWIDTH 500 0
DWIDTH 8 0
BBX 7 8 0 0
BITMAP
0C
10
10
28
28
44
44
EE
ENDCHAR
STARTCHAR uni028F
ENCODING 655
SWIDTH 500 0
DWIDTH 8 0
BBX 7 6 0 0
BITMAP
EE
44
28
10
10
38
ENDCHAR
STARTCHAR uni0290
ENCODING 656
SWIDTH 500 0
DWIDTH 8 0
BBX 7 8 0 -2
BITMAP
F8
88
30
40
88
F8
08
06
ENDCHAR
STARTCHAR uni0291
ENCODING 657
SWIDTH 500 0
DWIDTH 8 0
BBX 5 7 1 -1
BITMAP
F8
90
20
50
A8
F0
40
ENDCHAR
STARTCHAR uni0292
ENCODING 658
SWIDTH 500 0
DWIDTH 8 0
BBX 5 8 1 -2
BITMAP
F8
90
20
70
08
08
88
70
ENDCHAR
STARTCHAR uni0293
ENCODING 659
SWIDTH 500 0
DWIDTH 8 0
BBX 5 8 1 -2
BITMAP
F8
90
20
70
08
48
A8
70
ENDCHAR
STARTCHAR uni0294
ENCODING 660
SWIDTH 500 0
DWIDTH 8 0
BBX 5 8 1 0
BITMAP
70
88
08
10
20
20
20
70
ENDCHAR
STARTCHAR uni0295
ENCODING 661
SWIDTH 500 0
DWIDTH 8 0
BBX 5 8 1 0
BITMAP
70
88
80
40
20
20
20
70
ENDCHAR
STARTCHAR uni0296
ENCODING 662
SWIDTH 500 0
DWIDTH 8 0
BBX 5 8 1 0
BITMAP
70
20
20
20
10
08
88
70
ENDCHAR
STARTCHAR uni0297
ENCODING 663
SWIDTH 500 0
DWIDTH 8 0
BBX 5 8 1 -2
BITMAP
68
98
80
80
80
80
88
70
ENDCHAR
STARTCHAR uni0298
ENCODING 664
SWIDTH 500 0
DWIDTH 8 0
BBX 5 6 1 0
BITMAP
70
88
A8
88
88
70
ENDCHAR
STARTCHAR uni0299
ENCODING 665
SWIDTH 500 0
DWIDTH 8 0
BBX 6 6 0 0
BITMAP
F8
44
78
44
44
F8
ENDCHAR
STARTCHAR uni029A
ENCODING 666
SWIDTH 500 0
DWIDTH 8 0
BBX 5 6 1 0
BITMAP
70
88
68
88
88
70
ENDCHAR
STARTCHAR uni029B
ENCODING 667
SWIDTH 500 0
DWIDTH 8 0
BBX 6 8 1 0
BITMAP
04
08
68
98
80
B8
98
68
ENDCHAR
STARTCHAR uni029C
ENCODING 668
SWIDTH 500 0
DWIDTH 8 0
BBX 7 6 0 0
BITMAP
EE
44
7C
44
44
EE
ENDCHAR
STARTCHAR uni029D
ENCODING 669
SWIDTH 500 0
DWIDTH 8 0
BBX 4 10 1 -2
BITMAP
20
00
60
20
20
20
20
60
B0
40
ENDCHAR
STARTCHAR uni029E
ENCODING 670
SWIDTH 500 0
DWIDTH 8 0
BBX 7 8 0 -2
BITMAP
EC
44
24
3C
44
E4
04
0E
ENDCHAR
STARTCHAR uni029F
ENCODING 671
SWIDTH 500 0
DWIDTH 8 0
BBX 6 6 0 0
BITMAP
E0
40
40
40
44
FC
ENDCHAR
STARTCHAR uni02A0
ENCODING 672
SWIDTH 500 0
DWIDTH 8 0
BBX 7 10 0 -2
BITMAP
06
08
78
88
88
88
98
68
08
1C
ENDCHAR
STARTCHAR uni02A1
ENCODING 673
SWIDTH 500 0
DWIDTH 8 0
BBX 5 8 1 0
BITMAP
70
88
08
10
20
70
20
70
ENDCHAR
STARTCHAR uni02A2
ENCODING 674
SWIDTH 500 0
DWIDTH 8 0
BBX 5 8 1 0
BITMAP
70
88
80
40
20
70
20
70
ENDCHAR
STARTCHAR uni02A3
ENCODING 675
SWIDTH 500 0
DWIDTH 8 0
BBX 7 8 0 0
BITMAP
60
20
7E
A2
A4
A8
B2
7E
ENDCHAR
STARTCHAR uni02A4
ENCODING 676
SWIDTH 500 0
DWIDTH 8 0
BBX 7 10 0 -2
BITMAP
60
20
7E
A4
A8
BC
A2
72
02
1C
ENDCHAR
STARTCHAR uni02A5
ENCODING 677
SWIDTH 500 0
DWIDTH 8 0
BBX 7 9 0 -1
BITMAP
60
20
7E
A4
A8
B4
AA
7C
10
ENDCHAR
STARTCHAR uni02A6
ENCODING 678
SWIDTH 500 0
DWIDTH 8 0
BBX 7 7 0 0
BITMAP
40
EA
56
48
44
42
3C
ENDCHAR
STARTCHAR uni02A7
ENCODING 679
SWIDTH 500 0
DWIDTH 8 0
BBX 6 10 1 -2
BITMAP
0C
50
F0
48
48
48
54
24
04
18
ENDCHAR
STARTCHAR uni02A8
ENCODING 680
SWIDTH 500 0
DWIDTH 8 0
BBX 7 8 0 -1
BITMAP
40
EA
56
50
54
5A
2C
10
ENDCHAR
STARTCHAR uni02A9
ENCODING 681
SWIDTH 500 0
DWIDTH 8 0
BBX 7 10 0 -2
BITMAP
30
40
F4
5A
52
52
52
DA
02
0C
ENDCHAR
STARTCHAR uni02AA
ENCODING 682
SWIDTH 500 0
DWIDTH 8 0
BBX 7 8 0 0
BITMAP
C0
40
4A
56
48
44
42
3C
ENDCHAR
STARTCHAR uni02AB
ENCODING 683
SWIDTH 500 0
DWIDTH 8 0
BBX 7 8 0 0
BITMAP
C0
40
5E
52
44
48
52
FE
ENDCHAR
STARTCHAR uni02AC
ENCODING 684
SWIDTH 500 0
DWIDTH 8 0
BBX 7 8 0 0
BITMAP
EE
44
54
28
EE
44
54
28
ENDCHAR
STARTCHAR uni02AD
ENCODING 685
SWIDTH 500 0
DWIDTH 8 0
BBX 5 7 1 0
BITMAP
F8
88
88
00
F8
88
88
ENDCHAR
STARTCHAR uni02AE
ENCODING 686
SWIDTH 500 0
DWIDTH 8 0
BBX 7 8 0 -2
BITMAP
4C
A4
24
24
2C
14
04
0E
ENDCHAR
STARTCHAR uni02AF
ENCODING 687
SWIDTH 500 0
DWIDTH 8 0
BBX 7 8 0 -2
BITMAP
98
48
48
48
58
28
08
06
ENDCHAR
STARTCHAR uni02B0
ENCODING 688
SWIDTH 500 0
DWIDTH 8 0
BBX 7 7 0 3
BITMAP
C0
40
58
64
44
44
EE
ENDCHAR
STARTCHAR uni02B1
ENCODING 689
SWIDTH 500 0
DWIDTH 8 0
BBX 7 7 0 3
BITMAP
30
40
58
64
44
44
EE
ENDCHAR
STARTCHAR uni02B2
ENCODING 690
SWIDTH 500 0
DWIDTH 8 0
BBX 3 8 1 2
BITMAP
20
00
60
20
20
20
20
C0
ENDCHAR
STARTCHAR uni02B3
ENCODING 691
SWIDTH 500 0
DWIDTH 8 0
BBX 6 5 0 3
BITMAP
D8
64
40
40
E0
ENDCHAR
STARTCHAR uni02B4
ENCODING 692
SWIDTH 500 0
DWIDTH 8 0
BBX 6 5 1 3
BITMAP
18
08
08
98
6C
ENDCHAR
STARTCHAR uni02B5
ENCODING 693
SWIDTH 500 0
DWIDTH 8 0
BBX 7 6 0 2
BITMAP
18
08
08
98
68
06
ENDCHAR
STARTCHAR uni02B6
ENCODING 694
SWIDTH 500 0
DWIDTH 8 0
BBX 7 5 0 3
BITMAP
CE
44
78
44
F8
ENDCHAR
STARTCHAR uni02B7
ENCODING 695
SWIDTH 500 0
DWIDTH 8 0
BBX 7 5 0 3
BITMAP
EE
44
54
28
28
ENDCHAR
STARTCHAR uni02B8
ENCODING 696
SWIDTH 500 0
DWIDTH 8 0
BBX 7 6 0 2
BITMAP
EE
44
28
28
10
60
ENDCHAR
STARTCHAR uni02B9
ENCODING 697
SWIDTH 500 0
DWIDTH 8 0
BBX 2 4 3 4
BITMAP
C0
C0
80
80
ENDCHAR
STARTCHAR uni02BA
ENCODING 698
SWIDTH 500 0
DWIDTH 8 0
BBX 5 4 1 4
BITMAP
D8
D8
90
90
ENDCHAR
STARTCHAR uni02BB
ENCODING 699
SWIDTH 500 0
DWIDTH 8 0
BBX 2 4 2 4
BITMAP
40
80
C0
C0
ENDCHAR
STARTCHAR uni02BC
ENCODING 700
SWIDTH 500 0
DWIDTH 8 0
BBX 2 4 2 4
BITMAP
C0
C0
40
80
ENDCHAR
STARTCHAR uni02BD
ENCODING 701
SWIDTH 500 0
DWIDTH 8 0
BBX 2 4 2 4
BITMAP
C0
C0
80
40
ENDCHAR
STARTCHAR uni02BE
ENCODING 702
SWIDTH 500 0
DWIDTH 8 0
BBX 2 3 3 6
BITMAP
80
40
80
ENDCHAR
STARTCHAR uni02BF
ENCODING 703
SWIDTH 500 0
DWIDTH 8 0
BBX 2 3 2 6
BITMAP
40
80
40
ENDCHAR
STARTCHAR uni02C0
ENCODING 704
SWIDTH 500 0
DWIDTH 8 0
BBX 5 6 1 4
BITMAP
70
88
08
10
20
20
ENDCHAR
STARTCHAR uni02C1
ENCODING 705
SWIDTH 500 0
DWIDTH 8 0
BBX 5 6 1 4
BITMAP
70
88
80
40
20
20
ENDCHAR
STARTCHAR uni02C2
ENCODING 706
SWIDTH 500 0
DWIDTH 8 0
BBX 5 5 1 3
BITMAP
18
60
80
60
18
ENDCHAR
STARTCHAR uni02C3
ENCODING 707
SWIDTH 500 0
DWIDTH 8 0
BBX 5 5 1 3
BITMAP
C0
30
08
30
C0
ENDCHAR
STARTCHAR uni02C4
ENCODING 708
SWIDTH 500 0
DWIDTH 8 0
BBX 5 5 1 3
BITMAP
20
50
50
88
88
ENDCHAR
STARTCHAR uni02C5
ENCODING 709
SWIDTH 500 0
DWIDTH 8 0
BBX 5 5 1 3
BITMAP
88
88
50
50
20
ENDCHAR
STARTCHAR circumflex
ENCODING 710
SWIDTH 500 0
DWIDTH 8 0
BBX 5 3 1 6
BITMAP
20
50
88
ENDCHAR
STARTCHAR caron
ENCODING 711
SWIDTH 500 0
DWIDTH 8 0
BBX 5 3 1 6
BITMAP
88
50
20
ENDCHAR
STARTCHAR uni02C8
ENCODING 712
SWIDTH 500 0
DWIDTH 8 0
BBX 1 3 3 5
BITMAP
80
80
80
ENDCHAR
STARTCHAR uni02C9
ENCODING 713
SWIDTH 500 0
DWIDTH 8 0
BBX 5 1 1 7
BITMAP
F8
ENDCHAR
STARTCHAR uni02CA
ENCODING 714
SWIDTH 500 0
DWIDTH 8 0
BBX 3 3 2 6
BITMAP
20
40
80
ENDCHAR
STARTCHAR uni02CB
ENCODING 715
SWIDTH 500 0
DWIDTH 8 0
BBX 3 3 2 6
BITMAP
80
40
20
ENDCHAR
STARTCHAR uni02CC
ENCODING 716
SWIDTH 500 0
DWIDTH 8 0
BBX 1 3 3 -2
BITMAP
80
80
80
ENDCHAR
STARTCHAR uni02CD
ENCODING 717
SWIDTH 500 0
DWIDTH 8 0
BBX 5 1 1 -2
BITMAP
F8
ENDCHAR
STARTCHAR uni02CE
ENCODING 718
SWIDTH 500 0
DWIDTH 8 0
BBX 3 3 2 -2
BITMAP
80
40
20
ENDCHAR
STARTCHAR uni02CF
ENCODING 719
SWIDTH 500 0
DWIDTH 8 0
BBX 3 3 2 -2
BITMAP
20
40
80
ENDCHAR
STARTCHAR uni02D0
ENCODING 720
SWIDTH 500 0
DWIDTH 8 0
BBX 3 6 2 0
BITMAP
E0
40
00
00
40
E0
ENDCHAR
STARTCHAR uni02D1
ENCODING 721
SWIDTH 500 0
DWIDTH 8 0
BBX 3 2 2 4
BITMAP
E0
40
ENDCHAR
STARTCHAR uni02D2
ENCODING 722
SWIDTH 500 0
DWIDTH 8 0
BBX 2 4 3 1
BITMAP
80
40
40
80
ENDCHAR
STARTCHAR uni02D3
ENCODING 723
SWIDTH 500 0
DWIDTH 8 0
BBX 2 4 2 1
BITMAP
40
80
80
40
ENDCHAR
STARTCHAR uni02D4
ENCODING 724
SWIDTH 500 0
DWIDTH 8 0
BBX 5 3 1 2
BITMAP
20
20
F8
ENDCHAR
STARTCHAR uni02D5
ENCODING 725
SWIDTH 500 0
DWIDTH 8 0
BBX 5 3 1 1
BITMAP
F8
20
20
ENDCHAR
STARTCHAR uni02D6
ENCODING 726
SWIDTH 500 0
DWIDTH 8 0
BBX 5 5 1 1
BITMAP
20
20
F8
20
20
ENDCHAR
STARTCHAR uni02D7
ENCODING 727
SWIDTH 500 0
DWIDTH 8 0
BBX 5 1 1 3
BITMAP
F8
ENDCHAR
STARTCHAR breve
ENCODING 728
SWIDTH 500 0
DWIDTH 8 0
BBX 5 2 1 7
BITMAP
88
70
ENDCHAR
STARTCHAR dotaccent
ENCODING 729
SWIDTH 500 0
DWIDTH 8 0
BBX 1 1 3 7
BITMAP
80
ENDCHAR
STARTCHAR ring
ENCODING 730
SWIDTH 500 0
DWIDTH 8 0
BBX 3 3 2 6
BITMAP
40
A0
40
ENDCHAR
STARTCHAR ogonek
ENCODING 731
SWIDTH 500 0
DWIDTH 8 0
BBX 3 3 2 -2
BITMAP
40
80
60
ENDCHAR
STARTCHAR tilde
ENCODING 732
SWIDTH 500 0
DWIDTH 8 0
BBX 5 3 1 6
BITMAP
48
A8
90
ENDCHAR
STARTCHAR hungarumlaut
ENCODING 733
SWIDTH 500 0
DWIDTH 8 0
BBX 7 3 0 6
BITMAP
22
44
88
ENDCHAR
STARTCHAR uni02DE
ENCODING 734
SWIDTH 500 0
DWIDTH 8 0
BBX 7 4 0 3
BITMAP
10
32
4C
80
ENDCHAR
STARTCHAR uni02DF
ENCODING 735
SWIDTH 500 0
DWIDTH 8 0
BBX 5 3 1 6
BITMAP
D8
20
D8
ENDCHAR
STARTCHAR uni02E0
ENCODING 736
SWIDTH 500 0
DWIDTH 8 0
BBX 7 6 0 2
BITMAP
EE
44
28
10
28
10
ENDCHAR
STARTCHAR uni02E1
ENCODING 737
SWIDTH 500 0
DWIDTH 8 0
BBX 3 7 2 3
BITMAP
C0
40
40
40
40
40
E0
ENDCHAR
STARTCHAR uni02E2
ENCODING 738
SWIDTH 500 0
DWIDTH 8 0
BBX 5 5 1 3
BITMAP
78
80
70
08
F0
ENDCHAR
STARTCHAR uni02E3
ENCODING 739
SWIDTH 500 0
DWIDTH 8 0
BBX 7 5 0 3
BITMAP
EE
44
38
44
EE
ENDCHAR
STARTCHAR uni02E4
ENCODING 740
SWIDTH 500 0
DWIDTH 8 0
BBX 5 7 1 3
BITMAP
70
88
80
40
20
20
70
ENDCHAR
STARTCHAR uni02E5
ENCODING 741
SWIDTH 500 0
DWIDTH 8 0
BBX 3 9 2 0
BITMAP
E0
20
20
20
20
20
20
20
20
ENDCHAR
STARTCHAR uni02E6
ENCODING 742
SWIDTH 500 0
DWIDTH 8 0
BBX 3 9 2 0
BITMAP
20
20
E0
20
20
20
20
20
20
ENDCHAR
STARTCHAR uni02E7
ENCODING 743
SWIDTH 500 0
DWIDTH 8 0
BBX 3 9 2 0
BITMAP
20
20
20
20
E0
20
20
20
20
ENDCHAR
STARTCHAR uni02E8
ENCODING 744
SWIDTH 500 0
DWIDTH 8 0
BBX 3 9 2 0
BITMAP
20
20
20
20
20
20
E0
20
20
ENDCHAR
STARTCHAR uni02E9
ENCODING 745
SWIDTH 500 0
DWIDTH 8 0
BBX 3 9 2 0
BITMAP
20
20
20
20
20
20
20
20
E0
ENDCHAR
STARTCHAR uni02EA
ENCODING 746
SWIDTH 500 0
DWIDTH 8 0
BBX 3 9 2 0
BITMAP
80
80
80
80
80
80
80
80
E0
ENDCHAR
STARTCHAR uni02EB
ENCODING 747
SWIDTH 500 0
DWIDTH 8 0
BBX 3 9 2 0
BITMAP
80
80
80
80
E0
80
80
80
80
ENDCHAR
STARTCHAR uni02EC
ENCODING 748
SWIDTH 500 0
DWIDTH 8 0
BBX 5 3 1 -2
BITMAP
88
50
20
ENDCHAR
STARTCHAR uni02ED
ENCODING 749
SWIDTH 500 0
DWIDTH 8 0
BBX 5 3 1 6
BITMAP
F8
00
F8
ENDCHAR
STARTCHAR uni02EE
ENCODING 750
SWIDTH 500 0
DWIDTH 8 0
BBX 5 4 1 4
BITMAP
D8
D8
48
90
ENDCHAR
STARTCHAR uni02EF
ENCODING 751
SWIDTH 500 0
DWIDTH 8 0
BBX 5 5 1 -2
BITMAP
88
88
50
50
20
ENDCHAR
STARTCHAR uni02F0
ENCODING 752
SWIDTH 500 0
DWIDTH 8 0
BBX 5 5 1 -2
BITMAP
20
50
50
88
88
ENDCHAR
STARTCHAR uni02F1
ENCODING 753
SWIDTH 500 0
DWIDTH 8 0
BBX 5 5 1 -2
BITMAP
18
60
80
60
18
ENDCHAR
STARTCHAR uni02F2
ENCODING 754
SWIDTH 500 0
DWIDTH 8 0
BBX 5 5 1 -2
BITMAP
C0
30
08
30
C0
ENDCHAR
STARTCHAR uni02F3
ENCODING 755
SWIDTH 500 0
DWIDTH 8 0
BBX 3 3 2 -2
BITMAP
40
A0
40
ENDCHAR
STARTCHAR uni02F4
ENCODING 756
SWIDTH 500 0
DWIDTH 8 0
BBX 3 3 2 2
BITMAP
80
40
20
ENDCHAR
STARTCHAR uni02F5
ENCODING 757
SWIDTH 500 0
DWIDTH 8 0
BBX 7 3 0 2
BITMAP
88
44
22
ENDCHAR
STARTCHAR uni02F6
ENCODING 758
SWIDTH 500 0
DWIDTH 8 0
BBX 7 3 0 2
BITMAP
22
44
88
ENDCHAR
STARTCHAR uni02F7
ENCODING 759
SWIDTH 500 0
DWIDTH 8 0
BBX 5 3 1 -2
BITMAP
48
A8
90
ENDCHAR
STARTCHAR uni02F8
ENCODING 760
SWIDTH 500 0
DWIDTH 8 0
BBX 2 5 2 1
BITMAP
C0
C0
00
C0
C0
ENDCHAR
STARTCHAR uni02F9
ENCODING 761
SWIDTH 500 0
DWIDTH 8 0
BBX 3 4 2 5
BITMAP
E0
80
80
80
ENDCHAR
STARTCHAR uni02FA
ENCODING 762
SWIDTH 500 0
DWIDTH 8 0
BBX 3 4 2 5
BITMAP
E0
20
20
20
ENDCHAR
STARTCHAR uni02FB
ENCODING 763
SWIDTH 500 0
DWIDTH 8 0
BBX 3 4 2 0
BITMAP
80
80
80
E0
ENDCHAR
STARTCHAR uni02FC
ENCODING 764
SWIDTH 500 0
DWIDTH 8 0
BBX 3 4 2 0
BITMAP
20
20
20
E0
ENDCHAR
STARTCHAR uni02FD
ENCODING 765
SWIDTH 500 0
DWIDTH 8 0
BBX 7 2 0 0
BITMAP
82
FE
ENDCHAR
STARTCHAR uni02FE
ENCODING 766
SWIDTH 500 0
DWIDTH 8 0
BBX 7 2 0 0
BITMAP
80
FE
ENDCHAR
STARTCHAR uni02FF
ENCODING 767
SWIDTH 500 0
DWIDTH 8 0
BBX 7 5 0 -2
BITMAP
20
40
FE
40
20
ENDCHAR
STARTCHAR gravecomb
ENCODING 768
SWIDTH 500 0
DWIDTH 8 0
BBX 7 10 0 0
BITMAP
20
10
00
10
44
00
82
00
44
10
ENDCHAR
STARTCHAR acutecomb
ENCODING 769
SWIDTH 500 0
DWIDTH 8 0
BBX 7 10 0 0
BITMAP
08
10
00
10
44
00
82
00
44
10
ENDCHAR
STARTCHAR uni0302
ENCODING 770
SWIDTH 500 0
DWIDTH 8 0
BBX 7 10 0 0
BITMAP
10
28
00
10
44
00
82
00
44
10
ENDCHAR
STARTCHAR tildecomb
ENCODING 771
SWIDTH 500 0
DWIDTH 8 0
BBX 7 10 0 0
BITMAP
34
48
00
10
44
00
82
00
44
10
ENDCHAR
STARTCHAR uni0304
ENCODING 772
SWIDTH 500 0
DWIDTH 8 0
BBX 7 9 0 0
BITMAP
7C
00
10
44
00
82
00
44
10
ENDCHAR
STARTCHAR uni0305
ENCODING 773
SWIDTH 500 0
DWIDTH 8 0
BBX 7 9 0 0
BITMAP
FE
00
10
44
00
82
00
44
10
ENDCHAR
STARTCHAR uni0306
ENCODING 774
SWIDTH 500 0
DWIDTH 8 0
BBX 7 10 0 0
BITMAP
44
38
00
10
44
00
82
00
44
10
ENDCHAR
STARTCHAR uni0307
ENCODING 775
SWIDTH 500 0
DWIDTH 8 0
BBX 7 9 0 0
BITMAP
10
00
10
44
00
82
00
44
10
ENDCHAR
STARTCHAR uni0308
ENCODING 776
SWIDTH 500 0
DWIDTH 8 0
BBX 7 9 0 0
BITMAP
44
00
10
44
00
82
00
44
10
ENDCHAR
STARTCHAR hookabovecomb
ENCODING 777
SWIDTH 500 0
DWIDTH 8 0
BBX 7 10 0 0
BITMAP
30
08
10
00
44
00
82
00
44
10
ENDCHAR
STARTCHAR uni030A
ENCODING 778
SWIDTH 500 0
DWIDTH 8 0
BBX 7 10 0 0
BITMAP
10
28
10
00
44
00
82
00
44
10
ENDCHAR
STARTCHAR uni030B
ENCODING 779
SWIDTH 500 0
DWIDTH 8 0
BBX 7 10 0 0
BITMAP
24
48
00
10
44
00
82
00
44
10
ENDCHAR
STARTCHAR uni030C
ENCODING 780
SWIDTH 500 0
DWIDTH 8 0
BBX 7 10 0 0
BITMAP
28
10
00
10
44
00
82
00
44
10
ENDCHAR
STARTCHAR uni030D
ENCODING 781
SWIDTH 500 0
DWIDTH 8 0
BBX 7 10 0 0
BITMAP
10
10
00
10
44
00
82
00
44
10
ENDCHAR
STARTCHAR uni030E
ENCODING 782
SWIDTH 500 0
DWIDTH 8 0
BBX 7 10 0 0
BITMAP
28
28
00
10
44
00
82
00
44
10
ENDCHAR
STARTCHAR uni030F
ENCODING 783
SWIDTH 500 0
DWIDTH 8 0
BBX 7 10 0 0
BITMAP
48
24
00
10
44
00
82
00
44
10
ENDCHAR
STARTCHAR uni0310
ENCODING 784
SWIDTH 500 0
DWIDTH 8 0
BBX 7 10 0 0
BITMAP
10
44
38
00
44
00
82
00
44
10
ENDCHAR
STARTCHAR uni0311
ENCODING 785
SWIDTH 500 0
DWIDTH 8 0
BBX 7 10 0 0
BITMAP
38
44
00
10
44
00
82
00
44
10
ENDCHAR
STARTCHAR uni0312
ENCODING 786
SWIDTH 500 0
DWIDTH 8 0
BBX 7 10 0 0
BITMAP
10
20
30
00
44
00
82
00
44
10
ENDCHAR
STARTCHAR uni0313
ENCODING 787
SWIDTH 500 0
DWIDTH 8 0
BBX 7 10 0 0
BITMAP
30
10
20
00
44
00
82
00
44
10
ENDCHAR
STARTCHAR uni0314
ENCODING 788
SWIDTH 500 0
DWIDTH 8 0
BBX 7 10 0 0
BITMAP
30
20
10
00
44
00
82
00
44
10
ENDCHAR
STARTCHAR uni0315
ENCODING 789
SWIDTH 500 0
DWIDTH 8 0
BBX 7 10 0 0
BITMAP
0C
04
08
00
44
00
82
00
44
10
ENDCHAR
STARTCHAR uni0316
ENCODING 790
SWIDTH 500 0
DWIDTH 8 0
BBX 7 9 0 -2
BITMAP
10
44
00
82
00
44
00
20
10
ENDCHAR
STARTCHAR uni0317
ENCODING 791
SWIDTH 500 0
DWIDTH 8 0
BBX 7 9 0 -2
BITMAP
10
44
00
82
00
44
00
10
20
ENDCHAR
STARTCHAR uni0318
ENCODING 792
SWIDTH 500 0
DWIDTH 8 0
BBX 7 9 0 -2
BITMAP
10
44
00
82
00
44
10
30
10
ENDCHAR
STARTCHAR uni0319
ENCODING 793
SWIDTH 500 0
DWIDTH 8 0
BBX 7 9 0 -2
BITMAP
10
44
00
82
00
44
10
18
10
ENDCHAR
STARTCHAR uni031A
ENCODING 794
SWIDTH 500 0
DWIDTH 8 0
BBX 7 10 0 0
BITMAP
7C
04
04
10
44
00
82
00
44
10
ENDCHAR
STARTCHAR uni031B
ENCODING 795
SWIDTH 500 0
DWIDTH 8 0
BBX 7 7 0 0
BITMAP
10
42
02
8C
00
44
10
ENDCHAR
STARTCHAR uni031C
ENCODING 796
SWIDTH 500 0
DWIDTH 8 0
BBX 7 9 0 -2
BITMAP
10
44
00
82
00
44
10
20
10
ENDCHAR
STARTCHAR uni031D
ENCODING 797
SWIDTH 500 0
DWIDTH 8 0
BBX 7 9 0 -2
BITMAP
10
44
00
82
00
44
00
10
38
ENDCHAR
STARTCHAR uni031E
ENCODING 798
SWIDTH 500 0
DWIDTH 8 0
BBX 7 9 0 -2
BITMAP
10
44
00
82
00
44
00
38
10
ENDCHAR
STARTCHAR uni031F
ENCODING 799
SWIDTH 500 0
DWIDTH 8 0
BBX 7 9 0 -2
BITMAP
10
44
00
82
00
44
10
38
10
ENDCHAR
STARTCHAR uni0320
ENCODING 800
SWIDTH 500 0
DWIDTH 8 0
BBX 7 8 0 -1
BITMAP
10
44
00
82
00
44
00
38
ENDCHAR
STARTCHAR uni0321
ENCODING 801
SWIDTH 500 0
DWIDTH 8 0
BBX 7 9 0 -2
BITMAP
10
44
00
82
00
40
08
08
30
ENDCHAR
STARTCHAR uni0322
ENCODING 802
SWIDTH 500 0
DWIDTH 8 0
BBX 7 9 0 -2
BITMAP
10
44
00
82
00
04
20
20
18
ENDCHAR
STARTCHAR dotbelowcomb
ENCODING 803
SWIDTH 500 0
DWIDTH 8 0
BBX 7 9 0 -2
BITMAP
10
44
00
82
00
44
10
00
10
ENDCHAR
STARTCHAR uni0324
ENCODING 804
SWIDTH 500 0
DWIDTH 8 0
BBX 7 9 0 -2
BITMAP
10
44
00
82
00
44
10
00
44
ENDCHAR
STARTCHAR uni0325
ENCODING 805
SWIDTH 500 0
DWIDTH 8 0
BBX 7 9 0 -2
BITMAP
10
44
00
82
00
44
10
28
10
ENDCHAR
STARTCHAR uni0326
ENCODING 806
SWIDTH 500 0
DWIDTH 8 0
BBX 7 9 0 -2
BITMAP
10
44
00
82
00
04
30
10
20
ENDCHAR
STARTCHAR uni0327
ENCODING 807
SWIDTH 500 0
DWIDTH 8 0
BBX 7 9 0 -2
BITMAP
10
44
00
82
00
44
10
08
30
ENDCHAR
STARTCHAR uni0328
ENCODING 808
SWIDTH 500 0
DWIDTH 8 0
BBX 7 9 0 -2
BITMAP
10
44
00
82
00
04
20
20
18
ENDCHAR
STARTCHAR uni0329
ENCODING 809
SWIDTH 500 0
DWIDTH 8 0
BBX 7 9 0 -2
BITMAP
10
44
00
82
00
44
10
10
10
ENDCHAR
STARTCHAR uni032A
ENCODING 810
SWIDTH 500 0
DWIDTH 8 0
BBX 7 9 0 -2
BITMAP
10
44
00
82
00
44
00
7C
44
ENDCHAR
STARTCHAR uni032B
ENCODING 811
SWIDTH 500 0
DWIDTH 8 0
BBX 7 9 0 -2
BITMAP
10
44
00
82
00
44
00
92
6C
ENDCHAR
STARTCHAR uni032C
ENCODING 812
SWIDTH 500 0
DWIDTH 8 0
BBX 7 9 0 -2
BITMAP
10
44
00
82
00
44
00
28
10
ENDCHAR
STARTCHAR uni032D
ENCODING 813
SWIDTH 500 0
DWIDTH 8 0
BBX 7 9 0 -2
BITMAP
10
44
00
82
00
44
00
10
28
ENDCHAR
STARTCHAR uni032E
ENCODING 814
SWIDTH 500 0
DWIDTH 8 0
BBX 7 9 0 -2
BITMAP
10
44
00
82
00
44
10
44
38
ENDCHAR
STARTCHAR uni032F
ENCODING 815
SWIDTH 500 0
DWIDTH 8 0
BBX 7 9 0 -2
BITMAP
10
44
00
82
00
44
00
38
44
ENDCHAR
STARTCHAR uni0330
ENCODING 816
SWIDTH 500 0
DWIDTH 8 0
BBX 7 9 0 -2
BITMAP
10
44
00
82
00
44
00
34
48
ENDCHAR
STARTCHAR uni0331
ENCODING 817
SWIDTH 500 0
DWIDTH 8 0
BBX 7 9 0 -2
BITMAP
10
44
00
82
00
44
10
00
7C
ENDCHAR
STARTCHAR uni0332
ENCODING 818
SWIDTH 500 0
DWIDTH 8 0
BBX 7 9 0 -2
BITMAP
10
44
00
82
00
44
10
00
FE
ENDCHAR
STARTCHAR uni0333
ENCODING 819
SWIDTH 500 0
DWIDTH 8 0
BBX 7 9 0 -2
BITMAP
10
44
00
82
00
00
FE
00
FE
ENDCHAR
STARTCHAR uni0334
ENCODING 820
SWIDTH 500 0
DWIDTH 8 0
BBX 5 7 1 0
BITMAP
20
00
68
90
00
88
20
ENDCHAR
STARTCHAR uni0335
ENCODING 821
SWIDTH 500 0
DWIDTH 8 0
BBX 5 7 1 0
BITMAP
20
88
00
F8
00
88
20
ENDCHAR
STARTCHAR uni0336
ENCODING 822
SWIDTH 500 0
DWIDTH 8 0
BBX 7 7 0 0
BITMAP
10
44
00
FE
00
44
10
ENDCHAR
STARTCHAR uni0337
ENCODING 823
SWIDTH 500 0
DWIDTH 8 0
BBX 7 7 0 0
BITMAP
10
44
08
92
20
44
10
ENDCHAR
STARTCHAR uni0338
ENCODING 824
SWIDTH 500 0
DWIDTH 8 0
BBX 7 8 0 -1
BITMAP
04
48
08
92
10
24
20
40
ENDCHAR
STARTCHAR uni0339
ENCODING 825
SWIDTH 500 0
DWIDTH 8 0
BBX 7 9 0 -2
BITMAP
10
44
00
82
00
44
10
08
10
ENDCHAR
STARTCHAR uni033A
ENCODING 826
SWIDTH 500 0
DWIDTH 8 0
BBX 7 9 0 -2
BITMAP
10
44
00
82
00
44
10
44
7C
ENDCHAR
STARTCHAR uni033B
ENCODING 827
SWIDTH 500 0
DWIDTH 8 0
BBX 7 9 0 -2
BITMAP
10
44
00
82
00
00
38
28
38
ENDCHAR
STARTCHAR uni033C
ENCODING 828
SWIDTH 500 0
DWIDTH 8 0
BBX 7 9 0 -2
BITMAP
10
44
00
82
00
44
00
6C
92
ENDCHAR
STARTCHAR uni033D
ENCODING 829
SWIDTH 500 0
DWIDTH 8 0
BBX 7 10 0 0
BITMAP
6C
10
6C
00
44
00
82
00
44
10
ENDCHAR
STARTCHAR uni033E
ENCODING 830
SWIDTH 500 0
DWIDTH 8 0
BBX 7 10 0 0
BITMAP
10
20
10
08
50
00
82
00
44
10
ENDCHAR
STARTCHAR uni033F
ENCODING 831
SWIDTH 500 0
DWIDTH 8 0
BBX 7 10 0 0
BITMAP
FE
00
FE
00
44
00
82
00
44
10
ENDCHAR
STARTCHAR uni0340
ENCODING 832
SWIDTH 500 0
DWIDTH 8 0
BBX 7 10 0 0
BITMAP
20
10
00
10
44
00
82
00
44
10
ENDCHAR
STARTCHAR uni0341
ENCODING 833
SWIDTH 500 0
DWIDTH 8 0
BBX 7 10 0 0
BITMAP
08
10
00
10
44
00
82
00
44
10
ENDCHAR
STARTCHAR uni0342
ENCODING 834
SWIDTH 500 0
DWIDTH 8 0
BBX 7 10 0 0
BITMAP
34
48
00
10
44
00
82
00
44
10
ENDCHAR
STARTCHAR uni0343
ENCODING 835
SWIDTH 500 0
DWIDTH 8 0
BBX 7 10 0 0
BITMAP
30
10
20
00
44
00
82
00
44
10
ENDCHAR
STARTCHAR uni0344
ENCODING 836
SWIDTH 500 0
DWIDTH 8 0
BBX 7 10 0 0
BITMAP
08
10
44
10
44
00
82
00
44
10
ENDCHAR
STARTCHAR uni0345
ENCODING 837
SWIDTH 500 0
DWIDTH 8 0
BBX 7 9 0 -2
BITMAP
10
44
00
82
00
44
10
14
08
ENDCHAR
STARTCHAR uni0346
ENCODING 838
SWIDTH 500 0
DWIDTH 8 0
BBX 7 10 0 0
BITMAP
7C
44
00
10
44
00
82
00
44
10
ENDCHAR
STARTCHAR uni0347
ENCODING 839
SWIDTH 500 0
DWIDTH 8 0
BBX 7 9 0 -2
BITMAP
10
44
00
82
00
00
7C
00
7C
ENDCHAR
STARTCHAR uni0348
ENCODING 840
SWIDTH 500 0
DWIDTH 8 0
BBX 7 9 0 -2
BITMAP
10
44
00
82
00
44
00
28
28
ENDCHAR
STARTCHAR uni0349
ENCODING 841
SWIDTH 500 0
DWIDTH 8 0
BBX 7 9 0 -2
BITMAP
10
44
00
82
00
44
00
7C
04
ENDCHAR
STARTCHAR uni034A
ENCODING 842
SWIDTH 500 0
DWIDTH 8 0
BBX 7 10 0 0
BITMAP
6A
92
AC
00
44
00
82
00
44
10
ENDCHAR
STARTCHAR uni034B
ENCODING 843
SWIDTH 500 0
DWIDTH 8 0
BBX 7 10 0 0
BITMAP
08
62
92
8C
20
00
82
00
44
10
ENDCHAR
STARTCHAR uni034C
ENCODING 844
SWIDTH 500 0
DWIDTH 8 0
BBX 7 10 0 0
BITMAP
34
48
00
34
48
00
82
00
44
10
ENDCHAR
STARTCHAR uni034D
ENCODING 845
SWIDTH 500 0
DWIDTH 8 0
BBX 7 9 0 -2
BITMAP
10
44
00
82
00
00
44
FE
44
ENDCHAR
STARTCHAR uni034E
ENCODING 846
SWIDTH 500 0
DWIDTH 8 0
BBX 7 9 0 -2
BITMAP
10
44
00
82
00
10
38
54
10
ENDCHAR
STARTCHAR uni034F
ENCODING 847
SWIDTH 500 0
DWIDTH 8 0
BBX 7 7 0 0
BITMAP
10
44
00
82
00
44
10
ENDCHAR
STARTCHAR uni0350
ENCODING 848
SWIDTH 500 0
DWIDTH 8 0
BBX 7 10 0 0
BITMAP
30
08
30
00
44
00
82
00
44
10
ENDCHAR
STARTCHAR uni0351
ENCODING 849
SWIDTH 500 0
DWIDTH 8 0
BBX 7 10 0 0
BITMAP
10
20
10
00
44
00
82
00
44
10
ENDCHAR
STARTCHAR uni0352
ENCODING 850
SWIDTH 500 0
DWIDTH 8 0
BBX 7 10 0 0
BITMAP
38
44
10
00
44
00
82
00
44
10
ENDCHAR
STARTCHAR uni0353
ENCODING 851
SWIDTH 500 0
DWIDTH 8 0
BBX 7 9 0 -2
BITMAP
10
44
00
82
00
00
6C
10
6C
ENDCHAR
STARTCHAR uni0354
ENCODING 852
SWIDTH 500 0
DWIDTH 8 0
BBX 7 9 0 -2
BITMAP
10
44
00
82
00
40
18
20
18
ENDCHAR
STARTCHAR uni0355
ENCODING 853
SWIDTH 500 0
DWIDTH 8 0
BBX 7 9 0 -2
BITMAP
10
44
00
82
00
04
30
08
30
ENDCHAR
STARTCHAR uni0356
ENCODING 854
SWIDTH 500 0
DWIDTH 8 0
BBX 7 9 0 -2
BITMAP
10
44
00
82
00
00
C4
2A
CA
ENDCHAR
STARTCHAR uni0357
ENCODING 855
SWIDTH 500 0
DWIDTH 8 0
BBX 7 10 0 0
BITMAP
10
08
10
00
44
00
82
00
44
10
ENDCHAR
STARTCHAR uni0358
ENCODING 856
SWIDTH 500 0
DWIDTH 8 0
BBX 7 8 0 0
BITMAP
04
10
44
00
82
00
44
10
ENDCHAR
STARTCHAR uni0359
ENCODING 857
SWIDTH 500 0
DWIDTH 8 0
BBX 7 9 0 -2
BITMAP
10
44
00
82
00
00
28
10
28
ENDCHAR
STARTCHAR uni035A
ENCODING 858
SWIDTH 500 0
DWIDTH 8 0
BBX 7 9 0 -2
BITMAP
10
44
00
82
00
00
28
54
28
ENDCHAR
STARTCHAR uni035B
ENCODING 859
SWIDTH 500 0
DWIDTH 8 0
BBX 7 10 0 0
BITMAP
20
30
10
00
44
00
82
00
44
10
ENDCHAR
STARTCHAR uni035C
ENCODING 860
SWIDTH 500 0
DWIDTH 8 0
BBX 7 9 0 -2
BITMAP
10
44
00
82
00
44
10
82
7C
ENDCHAR
STARTCHAR uni035D
ENCODING 861
SWIDTH 500 0
DWIDTH 8 0
BBX 7 10 0 0
BITMAP
82
7C
00
10
44
00
82
00
44
10
ENDCHAR
STARTCHAR uni035E
ENCODING 862
SWIDTH 500 0
DWIDTH 8 0
BBX 7 9 0 0
BITMAP
FE
00
10
44
00
82
00
44
10
ENDCHAR
STARTCHAR uni035F
ENCODING 863
SWIDTH 500 0
DWIDTH 8 0
BBX 7 9 0 -2
BITMAP
10
44
00
82
00
44
10
00
FE
ENDCHAR
STARTCHAR uni0360
ENCODING 864
SWIDTH 500 0
DWIDTH 8 0
BBX 7 10 0 0
BITMAP
62
9C
00
10
44
00
82
00
44
10
ENDCHAR
STARTCHAR uni0361
ENCODING 865
SWIDTH 500 0
DWIDTH 8 0
BBX 7 10 0 0
BITMAP
7C
82
00
10
44
00
82
00
44
10
ENDCHAR
STARTCHAR uni0362
ENCODING 866
SWIDTH 500 0
DWIDTH 8 0
BBX 7 9 0 -2
BITMAP
10
44
00
82
00
40
04
FE
04
ENDCHAR
STARTCHAR uni0363
ENCODING 867
SWIDTH 500 0
DWIDTH 8 0
BBX 7 10 0 0
BITMAP
78
04
3C
44
3A
00
82
00
44
10
ENDCHAR
STARTCHAR uni0364
ENCODING 868
SWIDTH 500 0
DWIDTH 8 0
BBX 7 10 0 0
BITMAP
38
44
7C
40
3C
00
82
00
44
10
ENDCHAR
STARTCHAR uni0365
ENCODING 869
SWIDTH 500 0
DWIDTH 8 0
BBX 7 10 0 0
BITMAP
10
00
30
10
38
00
82
00
44
10
ENDCHAR
STARTCHAR uni0366
ENCODING 870
SWIDTH 500 0
DWIDTH 8 0
BBX 7 10 0 0
BITMAP
38
44
44
44
38
00
82
00
44
10
ENDCHAR
STARTCHAR uni0367
ENCODING 871
SWIDTH 500 0
DWIDTH 8 0
BBX 7 10 0 0
BITMAP
CC
44
44
44
3A
00
82
00
44
10
ENDCHAR
STARTCHAR uni0368
ENCODING 872
SWIDTH 500 0
DWIDTH 8 0
BBX 7 10 0 0
BITMAP
34
4C
40
44
38
00
82
00
44
10
ENDCHAR
STARTCHAR uni0369
ENCODING 873
SWIDTH 500 0
DWIDTH 8 0
BBX 7 10 0 0
BITMAP
0C
04
3C
44
3A
00
82
00
44
10
ENDCHAR
STARTCHAR uni036A
ENCODING 874
SWIDTH 500 0
DWIDTH 8 0
BBX 7 10 0 0
BITMAP
C0
40
78
44
E6
00
82
00
44
10
ENDCHAR
STARTCHAR uni036B
ENCODING 875
SWIDTH 500 0
DWIDTH 8 0
BBX 7 10 0 0
BITMAP
E8
54
54
54
D6
00
82
00
44
10
ENDCHAR
STARTCHAR uni036C
ENCODING 876
SWIDTH 500 0
DWIDTH 8 0
BBX 7 10 0 0
BITMAP
D8
64
40
40
E4
00
82
00
44
10
ENDCHAR
STARTCHAR uni036D
ENCODING 877
SWIDTH 500 0
DWIDTH 8 0
BBX 7 10 0 0
BITMAP
10
3C
10
14
48
00
82
00
44
10
ENDCHAR
STARTCHAR uni036E
ENCODING 878
SWIDTH 500 0
DWIDTH 8 0
BBX 7 10 0 0
BITMAP
EE
44
28
28
10
00
82
00
44
10
ENDCHAR
STARTCHAR uni036F
ENCODING 879
SWIDTH 500 0
DWIDTH 8 0
BBX 7 10 0 0
BITMAP
EE
44
38
44
EE
00
82
00
44
10
ENDCHAR
STARTCHAR uni0370
ENCODING 880
SWIDTH 500 0
DWIDTH 8 0
BBX 6 7 0 0
BITMAP
E0
40
44
7C
44
40
E0
ENDCHAR
STARTCHAR uni0371
ENCODING 881
SWIDTH 500 0
DWIDTH 8 0
BBX 6 6 0 0
BITMAP
C0
44
7C
44
40
20
ENDCHAR
STARTCHAR uni0372
ENCODING 882
SWIDTH 500 0
DWIDTH 8 0
BBX 7 7 0 0
BITMAP
FE
54
54
54
D6
10
38
ENDCHAR
STARTCHAR uni0373
ENCODING 883
SWIDTH 500 0
DWIDTH 8 0
BBX 7 8 0 -2
BITMAP
FE
54
54
54
54
D2
10
38
ENDCHAR
STARTCHAR uni0374
ENCODING 884
SWIDTH 500 0
DWIDTH 8 0
BBX 2 4 2 4
BITMAP
C0
C0
80
80
ENDCHAR
STARTCHAR uni0375
ENCODING 885
SWIDTH 500 0
DWIDTH 8 0
BBX 2 4 2 -2
BITMAP
C0
C0
80
80
ENDCHAR
STARTCHAR uni0376
ENCODING 886
SWIDTH 500 0
DWIDTH 8 0
BBX 7 7 0 0
BITMAP
E6
4C
54
54
54
64
4E
ENDCHAR
STARTCHAR uni0377
ENCODING 887
SWIDTH 500 0
DWIDTH 8 0
BBX 7 6 0 0
BITMAP
E6
4C
54
54
64
42
ENDCHAR
STARTCHAR uni037A
ENCODING 890
SWIDTH 500 0
DWIDTH 8 0
BBX 3 3 3 -2
BITMAP
80
A0
40
ENDCHAR
STARTCHAR uni037B
ENCODING 891
SWIDTH 500 0
DWIDTH 8 0
BBX 5 6 1 0
BITMAP
B0
C8
08
08
88
70
ENDCHAR
STARTCHAR uni037C
ENCODING 892
SWIDTH 500 0
DWIDTH 8 0
BBX 5 6 1 0
BITMAP
68
98
80
A0
88
70
ENDCHAR
STARTCHAR uni037D
ENCODING 893
SWIDTH 500 0
DWIDTH 8 0
BBX 5 6 1 0
BITMAP
B0
C8
08
28
88
70
ENDCHAR
STARTCHAR uni037E
ENCODING 894
SWIDTH 500 0
DWIDTH 8 0
BBX 2 8 2 -2
BITMAP
C0
C0
00
00
C0
C0
40
80
ENDCHAR
STARTCHAR tonos
ENCODING 900
SWIDTH 500 0
DWIDTH 8 0
BBX 3 3 2 6
BITMAP
20
40
80
ENDCHAR
STARTCHAR dieresistonos
ENCODING 901
SWIDTH 500 0
DWIDTH 8 0
BBX 5 3 1 7
BITMAP
10
20
88
ENDCHAR
STARTCHAR Alphatonos
ENCODING 902
SWIDTH 500 0
DWIDTH 8 0
BBX 7 7 0 0
BITMAP
48
94
14
24
3C
24
76
ENDCHAR
STARTCHAR anoteleia
ENCODING 903
SWIDTH 500 0
DWIDTH 8 0
BBX 2 2 2 4
BITMAP
C0
C0
ENDCHAR
STARTCHAR Epsilontonos
ENCODING 904
SWIDTH 500 0
DWIDTH 8 0
BBX 7 7 0 0
BITMAP
5E
8A
08
0C
08
0A
1E
ENDCHAR
STARTCHAR Etatonos
ENCODING 905
SWIDTH 500 0
DWIDTH 8 0
BBX 7 7 0 0
BITMAP
56
94
14
1C
14
14
36
ENDCHAR
STARTCHAR Iotatonos
ENCODING 906
SWIDTH 500 0
DWIDTH 8 0
BBX 6 7 0 0
BITMAP
5C
88
08
08
08
08
1C
ENDCHAR
STARTCHAR Omicrontonos
ENCODING 908
SWIDTH 500 0
DWIDTH 8 0
BBX 7 7 0 0
BITMAP
4C
92
12
12
12
12
0C
ENDCHAR
STARTCHAR Upsilontonos
ENCODING 910
SWIDTH 500 0
DWIDTH 8 0
BBX 7 7 0 0
BITMAP
56
94
14
08
08
08
1C
ENDCHAR
STARTCHAR Omegatonos
ENCODING 911
SWIDTH 500 0
DWIDTH 8 0
BBX 7 7 0 0
BITMAP
5C
A2
22
22
22
14
36
ENDCHAR
STARTCHAR iotadieresistonos
ENCODING 912
SWIDTH 500 0
DWIDTH 8 0
BBX 5 10 1 0
BITMAP
10
20
88
00
60
20
20
20
20
10
ENDCHAR
STARTCHAR Alpha
ENCODING 913
SWIDTH 500 0
DWIDTH 8 0
BBX 7 7 0 0
BITMAP
10
28
28
44
7C
44
EE
ENDCHAR
STARTCHAR Beta
ENCODING 914
SWIDTH 500 0
DWIDTH 8 0
BBX 7 7 0 0
BITMAP
F0
48
48
7C
42
42
FC
ENDCHAR
STARTCHAR Gamma
ENCODING 915
SWIDTH 500 0
DWIDTH 8 0
BBX 7 7 0 0
BITMAP
FE
42
40
40
40
40
E0
ENDCHAR
STARTCHAR uni0394
ENCODING 916
SWIDTH 500 0
DWIDTH 8 0
BBX 7 7 0 0
BITMAP
10
28
28
44
44
44
FE
ENDCHAR
STARTCHAR Epsilon
ENCODING 917
SWIDTH 500 0
DWIDTH 8 0
BBX 7 7 0 0
BITMAP
FE
42
48
78
48
42
FE
ENDCHAR
STARTCHAR Zeta
ENCODING 918
SWIDTH 500 0
DWIDTH 8 0
BBX 7 7 0 0
BITMAP
FE
84
08
10
20
42
FE
ENDCHAR
STARTCHAR Eta
ENCODING 919
SWIDTH 500 0
DWIDTH 8 0
BBX 7 7 0 0
BITMAP
EE
44
44
7C
44
44
EE
ENDCHAR
STARTCHAR Theta
ENCODING 920
SWIDTH 500 0
DWIDTH 8 0
BBX 7 7 0 0
BITMAP
38
44
AA
BA
AA
44
38
ENDCHAR
STARTCHAR Iota
ENCODING 921
SWIDTH 500 0
DWIDTH 8 0
BBX 3 7 2 0
BITMAP
E0
40
40
40
40
40
E0
ENDCHAR
STARTCHAR Kappa
ENCODING 922
SWIDTH 500 0
DWIDTH 8 0
BBX 7 7 0 0
BITMAP
EE
44
48
70
48
44
EE
ENDCHAR
STARTCHAR Lambda
ENCODING 923
SWIDTH 500 0
DWIDTH 8 0
BBX 7 7 0 0
BITMAP
10
28
28
44
44
44
EE
ENDCHAR
STARTCHAR Mu
ENCODING 924
SWIDTH 500 0
DWIDTH 8 0
BBX 7 7 0 0
BITMAP
C6
6C
54
54
44
44
EE
ENDCHAR
STARTCHAR Nu
ENCODING 925
SWIDTH 500 0
DWIDTH 8 0
BBX 7 7 0 0
BITMAP
CE
64
54
54
54
4C
E4
ENDCHAR
STARTCHAR Xi
ENCODING 926
SWIDTH 500 0
DWIDTH 8 0
BBX 7 7 0 0
BITMAP
FE
82
28
38
28
82
FE
ENDCHAR
STARTCHAR Omicron
ENCODING 927
SWIDTH 500 0
DWIDTH 8 0
BBX 7 7 0 0
BITMAP
38
44
82
82
82
44
38
ENDCHAR
STARTCHAR Pi
ENCODING 928
SWIDTH 500 0
DWIDTH 8 0
BBX 7 7 0 0
BITMAP
FE
44
44
44
44
44
EE
ENDCHAR
STARTCHAR Rho
ENCODING 929
SWIDTH 500 0
DWIDTH 8 0
BBX 7 7 0 0
BITMAP
FC
42
42
62
5C
40
E0
ENDCHAR
STARTCHAR Sigma
ENCODING 931
SWIDTH 500 0
DWIDTH 8 0
BBX 7 7 0 0
BITMAP
FE
42
20
10
20
42
FE
ENDCHAR
STARTCHAR Tau
ENCODING 932
SWIDTH 500 0
DWIDTH 8 0
BBX 7 7 0 0
BITMAP
FE
92
10
10
10
10
38
ENDCHAR
STARTCHAR Upsilon
ENCODING 933
SWIDTH 500 0
DWIDTH 8 0
BBX 7 7 0 0
BITMAP
EE
44
28
10
10
10
38
ENDCHAR
STARTCHAR Phi
ENCODING 934
SWIDTH 500 0
DWIDTH 8 0
BBX 7 7 0 0
BITMAP
38
10
7C
92
7C
10
38
ENDCHAR
STARTCHAR Chi
ENCODING 935
SWIDTH 500 0
DWIDTH 8 0
BBX 7 7 0 0
BITMAP
EE
44
28
10
28
44
EE
ENDCHAR
STARTCHAR Psi
ENCODING 936
SWIDTH 500 0
DWIDTH 8 0
BBX 7 7 0 0
BITMAP
92
54
54
38
10
10
38
ENDCHAR
STARTCHAR uni03A9
ENCODING 937
SWIDTH 500 0
DWIDTH 8 0
BBX 7 7 0 0
BITMAP
38
44
82
82
44
AA
EE
ENDCHAR
STARTCHAR Iotadieresis
ENCODING 938
SWIDTH 500 0
DWIDTH 8 0
BBX 5 9 1 0
BITMAP
88
00
70
20
20
20
20
20
70
ENDCHAR
STARTCHAR Upsilondieresis
ENCODING 939
SWIDTH 500 0
DWIDTH 8 0
BBX 7 9 0 0
BITMAP
44
00
EE
44
28
10
10
10
38
ENDCHAR
STARTCHAR alphatonos
ENCODING 940
SWIDTH 500 0
DWIDTH 8 0
BBX 6 9 1 0
BITMAP
10
20
00
74
88
88
88
88
74
ENDCHAR
STARTCHAR epsilontonos
ENCODING 941
SWIDTH 500 0
DWIDTH 8 0
BBX 5 9 1 0
BITMAP
10
20
00
70
88
60
80
88
70
ENDCHAR
STARTCHAR etatonos
ENCODING 942
SWIDTH 500 0
DWIDTH 8 0
BBX 7 11 0 -2
BITMAP
08
10
00
D8
64
44
44
44
E4
04
0E
ENDCHAR
STARTCHAR iotatonos
ENCODING 943
SWIDTH 500 0
DWIDTH 8 0
BBX 3 9 2 0
BITMAP
20
40
00
C0
40
40
40
40
20
ENDCHAR
STARTCHAR upsilondieresistonos
ENCODING 944
SWIDTH 500 0
DWIDTH 8 0
BBX 7 10 0 0
BITMAP
08
10
44
00
EE
44
44
44
44
38
ENDCHAR
STARTCHAR alpha
ENCODING 945
SWIDTH 500 0
DWIDTH 8 0
BBX 6 6 1 0
BITMAP
74
88
88
88
88
74
ENDCHAR
STARTCHAR beta
ENCODING 946
SWIDTH 500 0
DWIDTH 8 0
BBX 6 10 0 -2
BITMAP
30
48
48
78
44
44
64
58
40
E0
ENDCHAR
STARTCHAR gamma
ENCODING 947
SWIDTH 500 0
DWIDTH 8 0
BBX 7 8 0 -2
BITMAP
EE
44
28
10
28
28
28
10
ENDCHAR
STARTCHAR delta
ENCODING 948
SWIDTH 500 0
DWIDTH 8 0
BBX 5 8 1 0
BITMAP
60
80
70
28
48
88
88
70
ENDCHAR
STARTCHAR epsilon
ENCODING 949
SWIDTH 500 0
DWIDTH 8 0
BBX 5 6 1 0
BITMAP
70
88
60
80
88
70
ENDCHAR
STARTCHAR zeta
ENCODING 950
SWIDTH 500 0
DWIDTH 8 0
BBX 5 10 1 -2
BITMAP
F8
90
20
40
80
80
80
70
08
10
ENDCHAR
STARTCHAR eta
ENCODING 951
SWIDTH 500 0
DWIDTH 8 0
BBX 7 8 0 -2
BITMAP
D8
64
44
44
44
E4
04
0E
ENDCHAR
STARTCHAR theta
ENCODING 952
SWIDTH 500 0
DWIDTH 8 0
BBX 5 8 1 0
BITMAP
70
88
88
F8
88
88
88
70
ENDCHAR
STARTCHAR iota
ENCODING 953
SWIDTH 500 0
DWIDTH 8 0
BBX 3 6 2 0
BITMAP
C0
40
40
40
40
20
ENDCHAR
STARTCHAR kappa
ENCODING 954
SWIDTH 500 0
DWIDTH 8 0
BBX 7 6 0 0
BITMAP
CE
44
78
48
44
EE
ENDCHAR
STARTCHAR lambda
ENCODING 955
SWIDTH 500 0
DWIDTH 8 0
BBX 7 8 0 0
BITMAP
60
10
10
28
28
44
44
EE
ENDCHAR
STARTCHAR uni03BC
ENCODING 956
SWIDTH 500 0
DWIDTH 8 0
BBX 7 8 0 -2
BITMAP
CC
44
44
44
4C
76
40
E0
ENDCHAR
STARTCHAR nu
ENCODING 957
SWIDTH 500 0
DWIDTH 8 0
BBX 7 6 0 0
BITMAP
EE
44
44
28
28
10
ENDCHAR
STARTCHAR xi
ENCODING 958
SWIDTH 500 0
DWIDTH 8 0
BBX 5 10 1 -2
BITMAP
F8
40
80
70
80
80
80
70
08
10
ENDCHAR
STARTCHAR omicron
ENCODING 959
SWIDTH 500 0
DWIDTH 8 0
BBX 5 6 1 0
BITMAP
70
88
88
88
88
70
ENDCHAR
STARTCHAR pi
ENCODING 960
SWIDTH 500 0
DWIDTH 8 0
BBX 7 6 0 0
BITMAP
FC
48
48
48
4A
E4
ENDCHAR
STARTCHAR rho
ENCODING 961
SWIDTH 500 0
DWIDTH 8 0
BBX 6 8 0 -2
BITMAP
38
44
44
44
44
78
40
E0
ENDCHAR
STARTCHAR sigma1
ENCODING 962
SWIDTH 500 0
DWIDTH 8 0
BBX 5 8 1 -2
BITMAP
68
98
80
80
80
70
08
10
ENDCHAR
STARTCHAR sigma
ENCODING 963
SWIDTH 500 0
DWIDTH 8 0
BBX 6 6 1 0
BITMAP
7C
90
88
88
88
70
ENDCHAR
STARTCHAR tau
ENCODING 964
SWIDTH 500 0
DWIDTH 8 0
BBX 5 6 1 0
BITMAP
F8
A8
20
20
20
10
ENDCHAR
STARTCHAR upsilon
ENCODING 965
SWIDTH 500 0
DWIDTH 8 0
BBX 7 6 0 0
BITMAP
EE
44
44
44
44
38
ENDCHAR
STARTCHAR phi
ENCODING 966
SWIDTH 500 0
DWIDTH 8 0
BBX 5 8 1 -2
BITMAP
10
A8
A8
A8
A8
70
20
70
ENDCHAR
STARTCHAR chi
ENCODING 967
SWIDTH 500 0
DWIDTH 8 0
BBX 7 8 0 -2
BITMAP
EE
44
28
10
28
28
44
EE
ENDCHAR
STARTCHAR psi
ENCODING 968
SWIDTH 500 0
DWIDTH 8 0
BBX 7 8 0 -2
BITMAP
92
54
54
54
54
38
10
38
ENDCHAR
STARTCHAR omega
ENCODING 969
SWIDTH 500 0
DWIDTH 8 0
BBX 7 6 0 0
BITMAP
44
82
92
92
92
6C
ENDCHAR
STARTCHAR iotadieresis
ENCODING 970
SWIDTH 500 0
DWIDTH 8 0
BBX 5 8 1 0
BITMAP
88
00
60
20
20
20
20
10
ENDCHAR
STARTCHAR upsilondieresis
ENCODING 971
SWIDTH 500 0
DWIDTH 8 0
BBX 7 8 0 0
BITMAP
44
00
EE
44
44
44
44
38
ENDCHAR
STARTCHAR omicrontonos
ENCODING 972
SWIDTH 500 0
DWIDTH 8 0
BBX 5 9 1 0
BITMAP
10
20
00
70
88
88
88
88
70
ENDCHAR
STARTCHAR upsilontonos
ENCODING 973
SWIDTH 500 0
DWIDTH 8 0
BBX 7 9 0 0
BITMAP
08
10
00
EE
44
44
44
44
38
ENDCHAR
STARTCHAR omegatonos
ENCODING 974
SWIDTH 500 0
DWIDTH 8 0
BBX 7 9 0 0
BITMAP
08
10
00
44
82
92
92
92
6C
ENDCHAR
STARTCHAR uni03CF
ENCODING 975
SWIDTH 500 0
DWIDTH 8 0
BBX 7 9 0 -2
BITMAP
EE
44
48
70
48
44
E2
04
0E
ENDCHAR
STARTCHAR uni03D0
ENCODING 976
SWIDTH 500 0
DWIDTH 8 0
BBX 5 8 1 0
BITMAP
70
88
88
B0
88
88
88
70
ENDCHAR
STARTCHAR theta1
ENCODING 977
SWIDTH 500 0
DWIDTH 8 0
BBX 7 8 0 0
BITMAP
18
24
24
1E
44
A4
24
18
ENDCHAR
STARTCHAR Upsilon1
ENCODING 978
SWIDTH 500 0
DWIDTH 8 0
BBX 7 7 0 0
BITMAP
E6
4A
28
10
10
10
38
ENDCHAR
STARTCHAR uni03D3
ENCODING 979
SWIDTH 500 0
DWIDTH 8 0
BBX 7 7 0 0
BITMAP
52
94
14
08
08
08
1C
ENDCHAR
STARTCHAR uni03D4
ENCODING 980
SWIDTH 500 0
DWIDTH 8 0
BBX 7 9 0 0
BITMAP
44
00
E6
4A
28
10
10
10
38
ENDCHAR
STARTCHAR phi1
ENCODING 981
SWIDTH 500 0
DWIDTH 8 0
BBX 5 8 1 -2
BITMAP
50
A8
A8
A8
A8
70
20
70
ENDCHAR
STARTCHAR omega1
ENCODING 982
SWIDTH 500 0
DWIDTH 8 0
BBX 7 6 0 0
BITMAP
FE
44
54
54
54
28
ENDCHAR
STARTCHAR uni03D7
ENCODING 983
SWIDTH 500 0
DWIDTH 8 0
BBX 7 8 0 -2
BITMAP
44
2A
3C
68
A8
46
02
0C
ENDCHAR
STARTCHAR uni03D8
ENCODING 984
SWIDTH 500 0
DWIDTH 8 0
BBX 7 9 0 -2
BITMAP
38
44
82
82
82
44
38
10
38
ENDCHAR
STARTCHAR uni03D9
ENCODING 985
SWIDTH 500 0
DWIDTH 8 0
BBX 5 8 1 -2
BITMAP
70
88
88
88
88
70
20
70
ENDCHAR
STARTCHAR uni03DA
ENCODING 986
SWIDTH 500 0
DWIDTH 8 0
BBX 7 9 0 -2
BITMAP
3A
46
80
80
80
40
3C
02
04
ENDCHAR
STARTCHAR uni03DB
ENCODING 987
SWIDTH 500 0
DWIDTH 8 0
BBX 5 8 1 -2
BITMAP
68
98
80
80
80
70
08
10
ENDCHAR
STARTCHAR uni03DC
ENCODING 988
SWIDTH 500 0
DWIDTH 8 0
BBX 7 7 0 0
BITMAP
FE
42
48
78
48
40
E0
ENDCHAR
STARTCHAR uni03DD
ENCODING 989
SWIDTH 500 0
DWIDTH 8 0
BBX 6 8 0 -2
BITMAP
34
4C
40
40
78
40
40
E0
ENDCHAR
STARTCHAR uni03DE
ENCODING 990
SWIDTH 500 0
DWIDTH 8 0
BBX 5 7 1 0
BITMAP
E0
40
80
F8
08
10
38
ENDCHAR
STARTCHAR uni03DF
ENCODING 991
SWIDTH 500 0
DWIDTH 8 0
BBX 5 10 1 -2
BITMAP
C0
20
20
40
80
F8
08
10
20
18
ENDCHAR
STARTCHAR uni03E0
ENCODING 992
SWIDTH 500 0
DWIDTH 8 0
BBX 7 7 0 0
BITMAP
B8
C4
1E
02
9E
44
38
ENDCHAR
STARTCHAR uni03E1
ENCODING 993
SWIDTH 500 0
DWIDTH 8 0
BBX 3 10 2 -2
BITMAP
40
20
20
E0
20
E0
20
20
20
40
ENDCHAR
STARTCHAR uni03E2
ENCODING 994
SWIDTH 500 0
DWIDTH 8 0
BBX 7 9 0 -2
BITMAP
EE
44
92
BA
BA
92
6E
02
0C
ENDCHAR
STARTCHAR uni03E3
ENCODING 995
SWIDTH 500 0
DWIDTH 8 0
BBX 7 8 0 -2
BITMAP
44
92
BA
BA
92
6E
02
0C
ENDCHAR
STARTCHAR uni03E4
ENCODING 996
SWIDTH 500 0
DWIDTH 8 0
BBX 7 7 0 0
BITMAP
4E
84
84
44
3C
04
0E
ENDCHAR
STARTCHAR uni03E5
ENCODING 997
SWIDTH 500 0
DWIDTH 8 0
BBX 6 8 1 -2
BITMAP
58
88
88
88
98
68
08
1C
ENDCHAR
STARTCHAR uni03E6
ENCODING 998
SWIDTH 500 0
DWIDTH 8 0
BBX 7 7 0 0
BITMAP
E0
40
7C
42
E2
04
18
ENDCHAR
STARTCHAR uni03E7
ENCODING 999
SWIDTH 500 0
DWIDTH 8 0
BBX 5 7 1 0
BITMAP
20
70
A8
48
08
88
70
ENDCHAR
STARTCHAR uni03E8
ENCODING 1000
SWIDTH 500 0
DWIDTH 8 0
BBX 7 7 0 0
BITMAP
B8
C4
04
78
82
84
78
ENDCHAR
STARTCHAR uni03E9
ENCODING 1001
SWIDTH 500 0
DWIDTH 8 0
BBX 5 8 1 -2
BITMAP
B0
C8
08
30
40
80
88
70
ENDCHAR
STARTCHAR uni03EA
ENCODING 1002
SWIDTH 500 0
DWIDTH 8 0
BBX 7 7 0 0
BITMAP
C6
AA
10
28
28
44
FE
ENDCHAR
STARTCHAR uni03EB
ENCODING 1003
SWIDTH 500 0
DWIDTH 8 0
BBX 7 6 0 0
BITMAP
C6
28
10
28
44
FE
ENDCHAR
STARTCHAR uni03EC
ENCODING 1004
SWIDTH 500 0
DWIDTH 8 0
BBX 7 7 0 0
BITMAP
7A
84
F0
88
88
88
70
ENDCHAR
STARTCHAR uni03ED
ENCODING 1005
SWIDTH 500 0
DWIDTH 8 0
BBX 6 7 1 0
BITMAP
04
78
90
88
88
88
70
ENDCHAR
STARTCHAR uni03EE
ENCODING 1006
SWIDTH 500 0
DWIDTH 8 0
BBX 7 8 0 -1
BITMAP
6C
28
FE
AA
28
28
70
80
ENDCHAR
STARTCHAR uni03EF
ENCODING 1007
SWIDTH 500 0
DWIDTH 8 0
BBX 5 10 1 -2
BITMAP
60
20
F8
A8
20
20
20
20
20
40
ENDCHAR
STARTCHAR uni03F0
ENCODING 1008
SWIDTH 500 0
DWIDTH 8 0
BBX 7 6 0 0
BITMAP
44
2A
3C
68
A8
44
ENDCHAR
STARTCHAR uni03F1
ENCODING 1009
SWIDTH 500 0
DWIDTH 8 0
BBX 5 8 1 -2
BITMAP
70
88
88
88
88
F0
80
70
ENDCHAR
STARTCHAR uni03F2
ENCODING 1010
SWIDTH 500 0
DWIDTH 8 0
BBX 5 6 1 0
BITMAP
68
98
80
80
88
70
ENDCHAR
STARTCHAR uni03F3
ENCODING 1011
SWIDTH 500 0
DWIDTH 8 0
BBX 3 10 1 -2
BITMAP
20
00
60
20
20
20
20
20
20
C0
ENDCHAR
STARTCHAR uni03F4
ENCODING 1012
SWIDTH 500 0
DWIDTH 8 0
BBX 7 7 0 0
BITMAP
38
44
82
FE
82
44
38
ENDCHAR
STARTCHAR uni03F5
ENCODING 1013
SWIDTH 500 0
DWIDTH 8 0
BBX 5 6 1 0
BITMAP
68
98
80
E0
88
70
ENDCHAR
STARTCHAR uni03F6
ENCODING 1014
SWIDTH 500 0
DWIDTH 8 0
BBX 5 6 1 0
BITMAP
B0
C8
08
38
88
70
ENDCHAR
STARTCHAR uni03F7
ENCODING 1015
SWIDTH 500 0
DWIDTH 8 0
BBX 6 7 0 0
BITMAP
E0
40
78
44
78
40
E0
ENDCHAR
STARTCHAR uni03F8
ENCODING 1016
SWIDTH 500 0
DWIDTH 8 0
BBX 6 10 0 -2
BITMAP
C0
40
58
64
44
44
44
78
40
E0
ENDCHAR
STARTCHAR uni03F9
ENCODING 1017
SWIDTH 500 0
DWIDTH 8 0
BBX 7 7 0 0
BITMAP
3A
46
80
80
82
44
38
ENDCHAR
STARTCHAR uni03FA
ENCODING 1018
SWIDTH 500 0
DWIDTH 8 0
BBX 7 7 0 0
BITMAP
C6
6C
54
56
40
40
E0
ENDCHAR
STARTCHAR uni03FB
ENCODING 1019
SWIDTH 500 0
DWIDTH 8 0
BBX 7 8 0 -2
BITMAP
C6
6C
54
54
44
42
40
E0
ENDCHAR
STARTCHAR uni03FC
ENCODING 1020
SWIDTH 500 0
DWIDTH 8 0
BBX 6 8 0 -2
BITMAP
38
44
44
44
78
40
F8
40
ENDCHAR
STARTCHAR uni03FD
ENCODING 1021
SWIDTH 500 0
DWIDTH 8 0
BBX 7 7 0 0
BITMAP
B8
C4
02
02
82
44
38
ENDCHAR
STARTCHAR uni03FE
ENCODING 1022
SWIDTH 500 0
DWIDTH 8 0
BBX 7 7 0 0
BITMAP
3A
46
80
90
82
44
38
ENDCHAR
STARTCHAR uni03FF
ENCODING 1023
SWIDTH 500 0
DWIDTH 8 0
BBX 7 7 0 0
BITMAP
B8
C4
02
12
82
44
38
ENDCHAR
STARTCHAR uni0400
ENCODING 1024
SWIDTH 500 0
DWIDTH 8 0
BBX 7 10 0 0
BITMAP
20
10
00
FE
42
48
78
48
42
FE
ENDCHAR
STARTCHAR uni0401
ENCODING 1025
SWIDTH 500 0
DWIDTH 8 0
BBX 7 9 0 0
BITMAP
44
00
FE
42
48
78
48
42
FE
ENDCHAR
STARTCHAR uni0402
ENCODING 1026
SWIDTH 500 0
DWIDTH 8 0
BBX 7 7 0 0
BITMAP
F8
A8
20
3C
22
22
74
ENDCHAR
STARTCHAR uni0403
ENCODING 1027
SWIDTH 500 0
DWIDTH 8 0
BBX 7 10 0 0
BITMAP
08
10
00
FE
42
40
40
40
40
E0
ENDCHAR
STARTCHAR uni0404
ENCODING 1028
SWIDTH 500 0
DWIDTH 8 0
BBX 7 7 0 0
BITMAP
3A
46
80
F0
82
44
38
ENDCHAR
STARTCHAR uni0405
ENCODING 1029
SWIDTH 500 0
DWIDTH 8 0
BBX 7 7 0 0
BITMAP
7A
86
80
7C
02
C2
BC
ENDCHAR
STARTCHAR uni0406
ENCODING 1030
SWIDTH 500 0
DWIDTH 8 0
BBX 3 7 2 0
BITMAP
E0
40
40
40
40
40
E0
ENDCHAR
STARTCHAR uni0407
ENCODING 1031
SWIDTH 500 0
DWIDTH 8 0
BBX 5 9 1 0
BITMAP
88
00
70
20
20
20
20
20
70
ENDCHAR
STARTCHAR uni0408
ENCODING 1032
SWIDTH 500 0
DWIDTH 8 0
BBX 6 7 1 0
BITMAP
1C
08
08
08
88
88
70
ENDCHAR
STARTCHAR uni0409
ENCODING 1033
SWIDTH 500 0
DWIDTH 8 0
BBX 7 7 0 0
BITMAP
F8
50
50
5C
52
52
9C
ENDCHAR
STARTCHAR uni040A
ENCODING 1034
SWIDTH 500 0
DWIDTH 8 0
BBX 7 7 0 0
BITMAP
D8
50
50
7C
52
52
DC
ENDCHAR
STARTCHAR uni040B
ENCODING 1035
SWIDTH 500 0
DWIDTH 8 0
BBX 7 7 0 0
BITMAP
F8
A8
20
38
24
24
76
ENDCHAR
STARTCHAR uni040C
ENCODING 1036
SWIDTH 500 0
DWIDTH 8 0
BBX 7 10 0 0
BITMAP
08
10
00
E6
4A
48
70
48
44
EE
ENDCHAR
STARTCHAR uni040D
ENCODING 1037
SWIDTH 500 0
DWIDTH 8 0
BBX 7 10 0 0
BITMAP
20
10
00
EE
44
4C
54
64
44
EE
ENDCHAR
STARTCHAR uni040E
ENCODING 1038
SWIDTH 500 0
DWIDTH 8 0
BBX 7 10 0 0
BITMAP
44
38
00
EE
44
44
24
28
90
E0
ENDCHAR
STARTCHAR uni040F
ENCODING 1039
SWIDTH 500 0
DWIDTH 8 0
BBX 7 9 0 -2
BITMAP
EE
44
44
44
44
44
FE
10
10
ENDCHAR
STARTCHAR uni0410
ENCODING 1040
SWIDTH 500 0
DWIDTH 8 0
BBX 7 7 0 0
BITMAP
10
28
28
44
7C
44
EE
ENDCHAR
STARTCHAR uni0411
ENCODING 1041
SWIDTH 500 0
DWIDTH 8 0
BBX 7 7 0 0
BITMAP
FE
42
40
7C
42
42
FC
ENDCHAR
STARTCHAR uni0412
ENCODING 1042
SWIDTH 500 0
DWIDTH 8 0
BBX 7 7 0 0
BITMAP
F0
48
48
7C
42
42
FC
ENDCHAR
STARTCHAR uni0413
ENCODING 1043
SWIDTH 500 0
DWIDTH 8 0
BBX 7 7 0 0
BITMAP
FE
42
40
40
40
40
E0
ENDCHAR
STARTCHAR uni0414
ENCODING 1044
SWIDTH 500 0
DWIDTH 8 0
BBX 7 9 0 -2
BITMAP
7E
24
24
24
24
44
FE
82
82
ENDCHAR
STARTCHAR uni0415
ENCODING 1045
SWIDTH 500 0
DWIDTH 8 0
BBX 7 7 0 0
BITMAP
FE
42
48
78
48
42
FE
ENDCHAR
STARTCHAR uni0416
ENCODING 1046
SWIDTH 500 0
DWIDTH 8 0
BBX 7 7 0 0
BITMAP
D6
54
54
38
54
54
D6
ENDCHAR
STARTCHAR uni0417
ENCODING 1047
SWIDTH 500 0
DWIDTH 8 0
BBX 7 7 0 0
BITMAP
BC
C2
02
3C
02
82
7C
ENDCHAR
STARTCHAR uni0418
ENCODING 1048
SWIDTH 500 0
DWIDTH 8 0
BBX 7 7 0 0
BITMAP
EE
44
4C
54
64
44
EE
ENDCHAR
STARTCHAR uni0419
ENCODING 1049
SWIDTH 500 0
DWIDTH 8 0
BBX 7 10 0 0
BITMAP
44
38
00
EE
44
4C
54
64
44
EE
ENDCHAR
STARTCHAR uni041A
ENCODING 1050
SWIDTH 500 0
DWIDTH 8 0
BBX 7 7 0 0
BITMAP
E6
4A
48
70
48
44
EE
ENDCHAR
STARTCHAR uni041B
ENCODING 1051
SWIDTH 500 0
DWIDTH 8 0
BBX 7 7 0 0
BITMAP
7E
24
24
24
24
A4
CE
ENDCHAR
STARTCHAR uni041C
ENCODING 1052
SWIDTH 500 0
DWIDTH 8 0
BBX 7 7 0 0
BITMAP
C6
6C
54
54
44
44
EE
ENDCHAR
STARTCHAR uni041D
ENCODING 1053
SWIDTH 500 0
DWIDTH 8 0
BBX 7 7 0 0
BITMAP
EE
44
44
7C
44
44
EE
ENDCHAR
STARTCHAR uni041E
ENCODING 1054
SWIDTH 500 0
DWIDTH 8 0
BBX 7 7 0 0
BITMAP
38
44
82
82
82
44
38
ENDCHAR
STARTCHAR uni041F
ENCODING 1055
SWIDTH 500 0
DWIDTH 8 0
BBX 7 7 0 0
BITMAP
FE
44
44
44
44
44
EE
ENDCHAR
STARTCHAR uni0420
ENCODING 1056
SWIDTH 500 0
DWIDTH 8 0
BBX 7 7 0 0
BITMAP
FC
42
42
62
5C
40
E0
ENDCHAR
STARTCHAR uni0421
ENCODING 1057
SWIDTH 500 0
DWIDTH 8 0
BBX 7 7 0 0
BITMAP
3A
46
80
80
82
44
38
ENDCHAR
STARTCHAR uni0422
ENCODING 1058
SWIDTH 500 0
DWIDTH 8 0
BBX 7 7 0 0
BITMAP
FE
92
10
10
10
10
38
ENDCHAR
STARTCHAR uni0423
ENCODING 1059
SWIDTH 500 0
DWIDTH 8 0
BBX 7 7 0 0
BITMAP
EE
44
44
24
28
90
E0
ENDCHAR
STARTCHAR uni0424
ENCODING 1060
SWIDTH 500 0
DWIDTH 8 0
BBX 7 7 0 0
BITMAP
38
10
7C
92
7C
10
38
ENDCHAR
STARTCHAR uni0425
ENCODING 1061
SWIDTH 500 0
DWIDTH 8 0
BBX 7 7 0 0
BITMAP
EE
44
28
10
28
44
EE
ENDCHAR
STARTCHAR uni0426
ENCODING 1062
SWIDTH 500 0
DWIDTH 8 0
BBX 7 9 0 -2
BITMAP
EE
44
44
44
44
44
FE
02
02
ENDCHAR
STARTCHAR uni0427
ENCODING 1063
SWIDTH 500 0
DWIDTH 8 0
BBX 7 7 0 0
BITMAP
EE
44
44
3C
04
04
0E
ENDCHAR
STARTCHAR uni0428
ENCODING 1064
SWIDTH 500 0
DWIDTH 8 0
BBX 7 7 0 0
BITMAP
D6
54
54
54
54
54
FE
ENDCHAR
STARTCHAR uni0429
ENCODING 1065
SWIDTH 500 0
DWIDTH 8 0
BBX 7 9 0 -2
BITMAP
D6
54
54
54
54
54
FE
02
02
ENDCHAR
STARTCHAR uni042A
ENCODING 1066
SWIDTH 500 0
DWIDTH 8 0
BBX 7 7 0 0
BITMAP
F0
A0
20
3C
22
22
7C
ENDCHAR
STARTCHAR uni042B
ENCODING 1067
SWIDTH 500 0
DWIDTH 8 0
BBX 7 7 0 0
BITMAP
EE
44
44
64
54
54
E6
ENDCHAR
STARTCHAR uni042C
ENCODING 1068
SWIDTH 500 0
DWIDTH 8 0
BBX 7 7 0 0
BITMAP
E0
40
40
7C
42
42
FC
ENDCHAR
STARTCHAR uni042D
ENCODING 1069
SWIDTH 500 0
DWIDTH 8 0
BBX 7 7 0 0
BITMAP
B8
C4
02
1E
82
44
38
ENDCHAR
STARTCHAR uni042E
ENCODING 1070
SWIDTH 500 0
DWIDTH 8 0
BBX 7 7 0 0
BITMAP
CC
52
52
72
52
52
CC
ENDCHAR
STARTCHAR uni042F
ENCODING 1071
SWIDTH 500 0
DWIDTH 8 0
BBX 7 7 0 0
BITMAP
7E
84
84
7C
24
A4
CE
ENDCHAR
STARTCHAR uni0430
ENCODING 1072
SWIDTH 500 0
DWIDTH 8 0
BBX 6 6 1 0
BITMAP
70
88
18
68
88
74
ENDCHAR
STARTCHAR uni0431
ENCODING 1073
SWIDTH 500 0
DWIDTH 8 0
BBX 5 8 1 0
BITMAP
70
80
B0
C8
88
88
88
70
ENDCHAR
STARTCHAR uni0432
ENCODING 1074
SWIDTH 500 0
DWIDTH 8 0
BBX 6 6 0 0
BITMAP
F8
44
78
44
44
F8
ENDCHAR
STARTCHAR uni0433
ENCODING 1075
SWIDTH 500 0
DWIDTH 8 0
BBX 6 6 0 0
BITMAP
FC
44
40
40
40
E0
ENDCHAR
STARTCHAR uni0434
ENCODING 1076
SWIDTH 500 0
DWIDTH 8 0
BBX 7 8 0 -2
BITMAP
7E
24
24
24
44
FE
82
82
ENDCHAR
STARTCHAR uni0435
ENCODING 1077
SWIDTH 500 0
DWIDTH 8 0
BBX 5 6 1 0
BITMAP
70
88
F8
80
88
70
ENDCHAR
STARTCHAR uni0436
ENCODING 1078
SWIDTH 500 0
DWIDTH 8 0
BBX 7 6 0 0
BITMAP
D6
54
38
54
54
D6
ENDCHAR
STARTCHAR uni0437
ENCODING 1079
SWIDTH 500 0
DWIDTH 8 0
BBX 5 6 1 0
BITMAP
B0
C8
08
30
88
70
ENDCHAR
STARTCHAR uni0438
ENCODING 1080
SWIDTH 500 0
DWIDTH 8 0
BBX 7 6 0 0
BITMAP
EE
4C
54
64
44
EE
ENDCHAR
STARTCHAR uni0439
ENCODING 1081
SWIDTH 500 0
DWIDTH 8 0
BBX 7 9 0 0
BITMAP
44
38
00
EE
4C
54
64
44
EE
ENDCHAR
STARTCHAR uni043A
ENCODING 1082
SWIDTH 500 0
DWIDTH 8 0
BBX 7 6 0 0
BITMAP
E6
4A
70
48
44
EE
ENDCHAR
STARTCHAR uni043B
ENCODING 1083
SWIDTH 500 0
DWIDTH 8 0
BBX 7 6 0 0
BITMAP
7E
24
24
24
A4
CE
ENDCHAR
STARTCHAR uni043C
ENCODING 1084
SWIDTH 500 0
DWIDTH 8 0
BBX 7 6 0 0
BITMAP
C6
6C
54
54
44
EE
ENDCHAR
STARTCHAR uni043D
ENCODING 1085
SWIDTH 500 0
DWIDTH 8 0
BBX 7 6 0 0
BITMAP
EE
44
7C
44
44
EE
ENDCHAR
STARTCHAR uni043E
ENCODING 1086
SWIDTH 500 0
DWIDTH 8 0
BBX 5 6 1 0
BITMAP
70
88
88
88
88
70
ENDCHAR
STARTCHAR uni043F
ENCODING 1087
SWIDTH 500 0
DWIDTH 8 0
BBX 7 6 0 0
BITMAP
FE
44
44
44
44
EE
ENDCHAR
STARTCHAR uni0440
ENCODING 1088
SWIDTH 500 0
DWIDTH 8 0
BBX 6 8 0 -2
BITMAP
D8
64
44
44
44
78
40
E0
ENDCHAR
STARTCHAR uni0441
ENCODING 1089
SWIDTH 500 0
DWIDTH 8 0
BBX 5 6 1 0
BITMAP
68
98
80
80
88
70
ENDCHAR
STARTCHAR uni0442
ENCODING 1090
SWIDTH 500 0
DWIDTH 8 0
BBX 5 6 1 0
BITMAP
F8
A8
20
20
20
70
ENDCHAR
STARTCHAR uni0443
ENCODING 1091
SWIDTH 500 0
DWIDTH 8 0
BBX 7 8 0 -2
BITMAP
EE
44
44
28
28
10
10
60
ENDCHAR
STARTCHAR uni0444
ENCODING 1092
SWIDTH 500 0
DWIDTH 8 0
BBX 7 10 0 -2
BITMAP
30
10
74
9A
92
92
B2
5C
10
38
ENDCHAR
STARTCHAR uni0445
ENCODING 1093
SWIDTH 500 0
DWIDTH 8 0
BBX 7 6 0 0
BITMAP
EE
44
38
28
44
EE
ENDCHAR
STARTCHAR uni0446
ENCODING 1094
SWIDTH 500 0
DWIDTH 8 0
BBX 7 8 0 -2
BITMAP
EE
44
44
44
44
FE
02
02
ENDCHAR
STARTCHAR uni0447
ENCODING 1095
SWIDTH 500 0
DWIDTH 8 0
BBX 7 6 0 0
BITMAP
EE
44
44
3C
04
0E
ENDCHAR
STARTCHAR uni0448
ENCODING 1096
SWIDTH 500 0
DWIDTH 8 0
BBX 7 6 0 0
BITMAP
D6
54
54
54
54
FE
ENDCHAR
STARTCHAR uni0449
ENCODING 1097
SWIDTH 500 0
DWIDTH 8 0
BBX 7 8 0 -2
BITMAP
D6
54
54
54
54
FE
02
02
ENDCHAR
STARTCHAR uni044A
ENCODING 1098
SWIDTH 500 0
DWIDTH 8 0
BBX 7 6 0 0
BITMAP
F0
A0
3C
22
22
7C
ENDCHAR
STARTCHAR uni044B
ENCODING 1099
SWIDTH 500 0
DWIDTH 8 0
BBX 7 6 0 0
BITMAP
EE
44
64
54
54
E6
ENDCHAR
STARTCHAR uni044C
ENCODING 1100
SWIDTH 500 0
DWIDTH 8 0
BBX 6 6 0 0
BITMAP
E0
40
78
44
44
F8
ENDCHAR
STARTCHAR uni044D
ENCODING 1101
SWIDTH 500 0
DWIDTH 8 0
BBX 5 6 1 0
BITMAP
B0
C8
08
38
88
70
ENDCHAR
STARTCHAR uni044E
ENCODING 1102
SWIDTH 500 0
DWIDTH 8 0
BBX 7 6 0 0
BITMAP
CC
52
72
52
52
CC
ENDCHAR
STARTCHAR uni044F
ENCODING 1103
SWIDTH 500 0
DWIDTH 8 0
BBX 7 6 0 0
BITMAP
3E
44
44
3C
A4
CE
ENDCHAR
STARTCHAR uni0450
ENCODING 1104
SWIDTH 500 0
DWIDTH 8 0
BBX 5 9 1 0
BITMAP
40
20
00
70
88
F8
80
88
70
ENDCHAR
STARTCHAR uni0451
ENCODING 1105
SWIDTH 500 0
DWIDTH 8 0
BBX 5 8 1 0
BITMAP
88
00
70
88
F8
80
88
70
ENDCHAR
STARTCHAR uni0452
ENCODING 1106
SWIDTH 500 0
DWIDTH 8 0
BBX 6 10 0 -2
BITMAP
C0
40
F8
40
58
64
44
E4
04
18
ENDCHAR
STARTCHAR uni0453
ENCODING 1107
SWIDTH 500 0
DWIDTH 8 0
BBX 6 9 0 0
BITMAP
08
10
00
FC
44
40
40
40
E0
ENDCHAR
STARTCHAR uni0454
ENCODING 1108
SWIDTH 500 0
DWIDTH 8 0
BBX 5 6 1 0
BITMAP
68
98
80
E0
88
70
ENDCHAR
STARTCHAR uni0455
ENCODING 1109
SWIDTH 500 0
DWIDTH 8 0
BBX 5 6 1 0
BITMAP
68
98
60
10
C8
B0
ENDCHAR
STARTCHAR uni0456
ENCODING 1110
SWIDTH 500 0
DWIDTH 8 0
BBX 3 8 2 0
BITMAP
40
00
C0
40
40
40
40
E0
ENDCHAR
STARTCHAR uni0457
ENCODING 1111
SWIDTH 500 0
DWIDTH 8 0
BBX 5 8 1 0
BITMAP
88
00
60
20
20
20
20
70
ENDCHAR
STARTCHAR uni0458
ENCODING 1112
SWIDTH 500 0
DWIDTH 8 0
BBX 3 10 1 -2
BITMAP
20
00
60
20
20
20
20
20
20
C0
ENDCHAR
STARTCHAR uni0459
ENCODING 1113
SWIDTH 500 0
DWIDTH 8 0
BBX 7 6 0 0
BITMAP
F8
50
5C
52
52
9C
ENDCHAR
STARTCHAR uni045A
ENCODING 1114
SWIDTH 500 0
DWIDTH 8 0
BBX 7 6 0 0
BITMAP
D8
50
7C
52
52
DC
ENDCHAR
STARTCHAR uni045B
ENCODING 1115
SWIDTH 500 0
DWIDTH 8 0
BBX 7 8 0 0
BITMAP
C0
40
F8
40
58
64
44
E6
ENDCHAR
STARTCHAR uni045C
ENCODING 1116
SWIDTH 500 0
DWIDTH 8 0
BBX 7 9 0 0
BITMAP
08
10
00
E6
4A
70
48
44
EE
ENDCHAR
STARTCHAR uni045D
ENCODING 1117
SWIDTH 500 0
DWIDTH 8 0
BBX 7 9 0 0
BITMAP
20
10
00
EE
4C
54
64
44
EE
ENDCHAR
STARTCHAR uni045E
ENCODING 1118
SWIDTH 500 0
DWIDTH 8 0
BBX 7 11 0 -2
BITMAP
44
38
00
EE
44
44
28
28
10
10
60
ENDCHAR
STARTCHAR uni045F
ENCODING 1119
SWIDTH 500 0
DWIDTH 8 0
BBX 7 8 0 -2
BITMAP
EE
44
44
44
44
FE
10
10
ENDCHAR
STARTCHAR uni0460
ENCODING 1120
SWIDTH 500 0
DWIDTH 8 0
BBX 7 7 0 0
BITMAP
6C
AA
82
BA
92
92
6C
ENDCHAR
STARTCHAR uni0461
ENCODING 1121
SWIDTH 500 0
DWIDTH 8 0
BBX 7 6 0 0
BITMAP
44
82
92
92
92
6C
ENDCHAR
STARTCHAR uni0462
ENCODING 1122
SWIDTH 500 0
DWIDTH 8 0
BBX 7 7 0 0
BITMAP
70
20
F8
A0
3C
22
7C
ENDCHAR
STARTCHAR uni0463
ENCODING 1123
SWIDTH 500 0
DWIDTH 8 0
BBX 7 8 0 0
BITMAP
60
20
F8
A0
3C
22
22
7C
ENDCHAR
STARTCHAR uni0464
ENCODING 1124
SWIDTH 500 0
DWIDTH 8 0
BBX 7 7 0 0
BITMAP
E6
4A
48
7C
48
48
E6
ENDCHAR
STARTCHAR uni0465
ENCODING 1125
SWIDTH 500 0
DWIDTH 8 0
BBX 7 6 0 0
BITMAP
E6
4A
78
4C
48
E6
ENDCHAR
STARTCHAR uni0466
ENCODING 1126
SWIDTH 500 0
DWIDTH 8 0
BBX 7 7 0 0
BITMAP
10
28
28
44
7C
54
D6
ENDCHAR
STARTCHAR uni0467
ENCODING 1127
SWIDTH 500 0
DWIDTH 8 0
BBX 7 6 0 0
BITMAP
10
28
28
44
7C
D6
ENDCHAR
STARTCHAR uni0468
ENCODING 1128
SWIDTH 500 0
DWIDTH 8 0
BBX 7 7 0 0
BITMAP
88
94
94
E2
BE
AA
AA
ENDCHAR
STARTCHAR uni0469
ENCODING 1129
SWIDTH 500 0
DWIDTH 8 0
BBX 7 6 0 0
BITMAP
88
94
94
E2
BE
AA
ENDCHAR
STARTCHAR uni046A
ENCODING 1130
SWIDTH 500 0
DWIDTH 8 0
BBX 7 7 0 0
BITMAP
FE
44
28
38
54
54
D6
ENDCHAR
STARTCHAR uni046B
ENCODING 1131
SWIDTH 500 0
DWIDTH 8 0
BBX 7 6 0 0
BITMAP
FE
44
28
38
54
D6
ENDCHAR
STARTCHAR uni046C
ENCODING 1132
SWIDTH 500 0
DWIDTH 8 0
BBX 7 7 0 0
BITMAP
BE
A2
94
FC
AA
AA
AA
ENDCHAR
STARTCHAR uni046D
ENCODING 1133
SWIDTH 500 0
DWIDTH 8 0
BBX 7 6 0 0
BITMAP
BE
A2
94
FC
AA
AA
ENDCHAR
STARTCHAR uni046E
ENCODING 1134
SWIDTH 500 0
DWIDTH 8 0
BBX 7 12 0 -2
BITMAP
28
10
00
BC
C2
02
3C
02
02
7C
80
7C
ENDCHAR
STARTCHAR uni046F
ENCODING 1135
SWIDTH 500 0
DWIDTH 8 0
BBX 5 11 1 -2
BITMAP
50
20
00
B0
C8
08
30
08
70
80
70
ENDCHAR
STARTCHAR uni0470
ENCODING 1136
SWIDTH 500 0
DWIDTH 8 0
BBX 7 7 0 0
BITMAP
D6
54
54
38
10
10
38
ENDCHAR
STARTCHAR uni0471
ENCODING 1137
SWIDTH 500 0
DWIDTH 8 0
BBX 7 8 0 -2
BITMAP
D6
54
54
54
54
38
10
38
ENDCHAR
STARTCHAR uni0472
ENCODING 1138
SWIDTH 500 0
DWIDTH 8 0
BBX 7 7 0 0
BITMAP
38
44
A2
D6
8A
44
38
ENDCHAR
STARTCHAR uni0473
ENCODING 1139
SWIDTH 500 0
DWIDTH 8 0
BBX 5 6 1 0
BITMAP
70
88
E8
B8
88
70
ENDCHAR
STARTCHAR uni0474
ENCODING 1140
SWIDTH 500 0
DWIDTH 8 0
BBX 7 7 0 0
BITMAP
E6
4A
48
48
28
28
10
ENDCHAR
STARTCHAR uni0475
ENCODING 1141
SWIDTH 500 0
DWIDTH 8 0
BBX 7 6 0 0
BITMAP
E6
4A
48
28
28
10
ENDCHAR
STARTCHAR uni0476
ENCODING 1142
SWIDTH 500 0
DWIDTH 8 0
BBX 7 10 0 0
BITMAP
48
24
00
E6
4A
48
48
28
28
10
ENDCHAR
STARTCHAR uni0477
ENCODING 1143
SWIDTH 500 0
DWIDTH 8 0
BBX 7 9 0 0
BITMAP
48
24
00
E6
4A
48
28
28
10
ENDCHAR
STARTCHAR uni0478
ENCODING 1144
SWIDTH 500 0
DWIDTH 8 0
BBX 7 9 0 -2
BITMAP
40
AA
AA
AA
AA
A4
44
04
18
ENDCHAR
STARTCHAR uni0479
ENCODING 1145
SWIDTH 500 0
DWIDTH 8 0
BBX 7 8 0 -2
BITMAP
4A
AA
AA
AA
A4
44
04
18
ENDCHAR
STARTCHAR uni047A
ENCODING 1146
SWIDTH 500 0
DWIDTH 8 0
BBX 7 9 0 -1
BITMAP
10
38
54
82
82
82
54
38
10
ENDCHAR
STARTCHAR uni047B
ENCODING 1147
SWIDTH 500 0
DWIDTH 8 0
BBX 5 8 1 -1
BITMAP
20
70
A8
88
88
A8
70
20
ENDCHAR
STARTCHAR uni047C
ENCODING 1148
SWIDTH 500 0
DWIDTH 8 0
BBX 7 10 0 0
BITMAP
04
7C
40
6C
AA
82
BA
92
92
6C
ENDCHAR
STARTCHAR uni047D
ENCODING 1149
SWIDTH 500 0
DWIDTH 8 0
BBX 7 9 0 0
BITMAP
04
7C
40
44
82
92
92
92
6C
ENDCHAR
STARTCHAR uni047E
ENCODING 1150
SWIDTH 500 0
DWIDTH 8 0
BBX 7 10 0 0
BITMAP
7C
54
00
6C
AA
82
BA
92
92
6C
ENDCHAR
STARTCHAR uni047F
ENCODING 1151
SWIDTH 500 0
DWIDTH 8 0
BBX 7 9 0 0
BITMAP
7C
54
00
44
82
92
92
92
6C
ENDCHAR
STARTCHAR uni0480
ENCODING 1152
SWIDTH 500 0
DWIDTH 8 0
BBX 7 9 0 -2
BITMAP
3A
46
80
80
80
44
3C
04
0E
ENDCHAR
STARTCHAR uni0481
ENCODING 1153
SWIDTH 500 0
DWIDTH 8 0
BBX 6 8 1 -2
BITMAP
68
98
80
80
88
78
08
1C
ENDCHAR
STARTCHAR uni0482
ENCODING 1154
SWIDTH 500 0
DWIDTH 8 0
BBX 7 10 0 -2
BITMAP
04
04
38
0E
10
10
E0
38
40
40
ENDCHAR
STARTCHAR uni0483
ENCODING 1155
SWIDTH 500 0
DWIDTH 8 0
BBX 7 10 0 0
BITMAP
04
7C
40
10
44
00
82
00
44
10
ENDCHAR
STARTCHAR uni0484
ENCODING 1156
SWIDTH 500 0
DWIDTH 8 0
BBX 7 10 0 0
BITMAP
18
24
40
10
44
00
82
00
44
10
ENDCHAR
STARTCHAR uni0485
ENCODING 1157
SWIDTH 500 0
DWIDTH 8 0
BBX 7 10 0 0
BITMAP
40
7C
40
10
44
00
82
00
44
10
ENDCHAR
STARTCHAR uni0486
ENCODING 1158
SWIDTH 500 0
DWIDTH 8 0
BBX 7 10 0 0
BITMAP
04
7C
04
10
44
00
82
00
44
10
ENDCHAR
STARTCHAR uni0487
ENCODING 1159
SWIDTH 500 0
DWIDTH 8 0
BBX 7 10 0 0
BITMAP
70
4C
00
10
44
00
82
00
44
10
ENDCHAR
STARTCHAR uni0488
ENCODING 1160
SWIDTH 500 0
DWIDTH 8 0
BBX 11 12 -4 -2
BITMAP
0400
0A00
2080
5140
0000
4040
A0A0
0000
2080
5140
0400
0A00
ENDCHAR
STARTCHAR uni0489
ENCODING 1161
SWIDTH 500 0
DWIDTH 8 0
BBX 12 12 -5 -2
BITMAP
0200
4460
5680
36C0
0000
B0E0
70D0
0000
36C0
16A0
6220
0400
ENDCHAR
STARTCHAR uni048A
ENCODING 1162
SWIDTH 500 0
DWIDTH 8 0
BBX 7 12 0 -2
BITMAP
44
38
00
EE
44
4C
54
64
44
EE
02
04
ENDCHAR
STARTCHAR uni048B
ENCODING 1163
SWIDTH 500 0
DWIDTH 8 0
BBX 7 11 0 -2
BITMAP
44
38
00
EE
4C
54
64
44
EE
02
04
ENDCHAR
STARTCHAR uni048C
ENCODING 1164
SWIDTH 500 0
DWIDTH 8 0
BBX 7 7 0 0
BITMAP
E0
40
F0
40
7C
42
FC
ENDCHAR
STARTCHAR uni048D
ENCODING 1165
SWIDTH 500 0
DWIDTH 8 0
BBX 7 8 0 0
BITMAP
E0
40
F0
40
7C
42
42
FC
ENDCHAR
STARTCHAR uni048E
ENCODING 1166
SWIDTH 500 0
DWIDTH 8 0
BBX 7 7 0 0
BITMAP
FC
42
42
6A
5C
48
E4
ENDCHAR
STARTCHAR uni048F
ENCODING 1167
SWIDTH 500 0
DWIDTH 8 0
BBX 6 8 0 -2
BITMAP
D8
64
44
44
54
78
48
E4
ENDCHAR
STARTCHAR uni0490
ENCODING 1168
SWIDTH 500 0
DWIDTH 8 0
BBX 7 9 0 0
BITMAP
02
02
FE
40
40
40
40
40
E0
ENDCHAR
STARTCHAR uni0491
ENCODING 1169
SWIDTH 500 0
DWIDTH 8 0
BBX 6 8 0 0
BITMAP
04
04
FC
40
40
40
40
E0
ENDCHAR
STARTCHAR uni0492
ENCODING 1170
SWIDTH 500 0
DWIDTH 8 0
BBX 7 7 0 0
BITMAP
FE
42
40
F0
40
40
E0
ENDCHAR
STARTCHAR uni0493
ENCODING 1171
SWIDTH 500 0
DWIDTH 8 0
BBX 6 6 0 0
BITMAP
FC
44
F0
40
40
E0
ENDCHAR
STARTCHAR uni0494
ENCODING 1172
SWIDTH 500 0
DWIDTH 8 0
BBX 7 9 0 -2
BITMAP
FE
42
40
7C
42
42
E2
02
0C
ENDCHAR
STARTCHAR uni0495
ENCODING 1173
SWIDTH 500 0
DWIDTH 8 0
BBX 6 8 0 -2
BITMAP
FC
44
40
78
44
E4
04
18
ENDCHAR
STARTCHAR uni0496
ENCODING 1174
SWIDTH 500 0
DWIDTH 8 0
BBX 7 9 0 -2
BITMAP
D6
54
54
38
54
54
D6
02
02
ENDCHAR
STARTCHAR uni0497
ENCODING 1175
SWIDTH 500 0
DWIDTH 8 0
BBX 7 8 0 -2
BITMAP
D6
54
38
54
54
D6
02
02
ENDCHAR
STARTCHAR uni0498
ENCODING 1176
SWIDTH 500 0
DWIDTH 8 0
BBX 7 9 0 -2
BITMAP
BC
C2
02
3C
02
82
7C
08
30
ENDCHAR
STARTCHAR uni0499
ENCODING 1177
SWIDTH 500 0
DWIDTH 8 0
BBX 5 8 1 -2
BITMAP
B0
C8
08
30
88
70
10
60
ENDCHAR
STARTCHAR uni049A
ENCODING 1178
SWIDTH 500 0
DWIDTH 8 0
BBX 7 9 0 -2
BITMAP
E6
4A
48
70
48
44
EE
02
02
ENDCHAR
STARTCHAR uni049B
ENCODING 1179
SWIDTH 500 0
DWIDTH 8 0
BBX 7 8 0 -2
BITMAP
E6
4A
70
48
44
EE
02
02
ENDCHAR
STARTCHAR uni049C
ENCODING 1180
SWIDTH 500 0
DWIDTH 8 0
BBX 7 7 0 0
BITMAP
E6
44
54
78
54
44
EE
ENDCHAR
STARTCHAR uni049D
ENCODING 1181
SWIDTH 500 0
DWIDTH 8 0
BBX 7 6 0 0
BITMAP
E6
54
78
54
44
EE
ENDCHAR
STARTCHAR uni049E
ENCODING 1182
SWIDTH 500 0
DWIDTH 8 0
BBX 7 7 0 0
BITMAP
E6
4A
E8
50
78
44
EE
ENDCHAR
STARTCHAR uni049F
ENCODING 1183
SWIDTH 500 0
DWIDTH 8 0
BBX 7 8 0 0
BITMAP
C0
40
F6
4A
70
48
44
EE
ENDCHAR
STARTCHAR uni04A0
ENCODING 1184
SWIDTH 500 0
DWIDTH 8 0
BBX 7 7 0 0
BITMAP
E6
AA
28
30
28
24
76
ENDCHAR
STARTCHAR uni04A1
ENCODING 1185
SWIDTH 500 0
DWIDTH 8 0
BBX 7 6 0 0
BITMAP
E6
AA
30
28
24
76
ENDCHAR
STARTCHAR uni04A2
ENCODING 1186
SWIDTH 500 0
DWIDTH 8 0
BBX 7 9 0 -2
BITMAP
EE
44
44
7C
44
44
EE
02
02
ENDCHAR
STARTCHAR uni04A3
ENCODING 1187
SWIDTH 500 0
DWIDTH 8 0
BBX 7 8 0 -2
BITMAP
EE
44
7C
44
44
EE
02
02
ENDCHAR
STARTCHAR uni04A4
ENCODING 1188
SWIDTH 500 0
DWIDTH 8 0
BBX 7 7 0 0
BITMAP
DE
4A
48
78
48
48
EC
ENDCHAR
STARTCHAR uni04A5
ENCODING 1189
SWIDTH 500 0
DWIDTH 8 0
BBX 7 6 0 0
BITMAP
DE
4A
78
48
48
EC
ENDCHAR
STARTCHAR uni04A6
ENCODING 1190
SWIDTH 500 0
DWIDTH 8 0
BBX 7 9 0 -2
BITMAP
F8
50
50
5C
52
52
DA
02
0C
ENDCHAR
STARTCHAR uni04A7
ENCODING 1191
SWIDTH 500 0
DWIDTH 8 0
BBX 7 8 0 -2
BITMAP
F8
50
5C
52
52
DA
02
0C
ENDCHAR
STARTCHAR uni04A8
ENCODING 1192
SWIDTH 500 0
DWIDTH 8 0
BBX 7 8 0 -1
BITMAP
38
44
8A
92
92
54
38
06
ENDCHAR
STARTCHAR uni04A9
ENCODING 1193
SWIDTH 500 0
DWIDTH 8 0
BBX 5 8 1 -2
BITMAP
70
98
A8
A8
A8
70
20
18
ENDCHAR
STARTCHAR uni04AA
ENCODING 1194
SWIDTH 500 0
DWIDTH 8 0
BBX 7 9 0 -2
BITMAP
3A
46
80
80
82
44
38
08
30
ENDCHAR
STARTCHAR uni04AB
ENCODING 1195
SWIDTH 500 0
DWIDTH 8 0
BBX 5 8 1 -2
BITMAP
68
98
80
80
88
70
10
60
ENDCHAR
STARTCHAR uni04AC
ENCODING 1196
SWIDTH 500 0
DWIDTH 8 0
BBX 7 9 0 -2
BITMAP
FE
92
10
10
10
10
38
08
08
ENDCHAR
STARTCHAR uni04AD
ENCODING 1197
SWIDTH 500 0
DWIDTH 8 0
BBX 5 8 1 -2
BITMAP
F8
A8
20
20
20
70
10
10
ENDCHAR
STARTCHAR uni04AE
ENCODING 1198
SWIDTH 500 0
DWIDTH 8 0
BBX 7 7 0 0
BITMAP
EE
44
28
10
10
10
38
ENDCHAR
STARTCHAR uni04AF
ENCODING 1199
SWIDTH 500 0
DWIDTH 8 0
BBX 7 8 0 -2
BITMAP
EE
44
44
28
28
10
10
38
ENDCHAR
STARTCHAR uni04B0
ENCODING 1200
SWIDTH 500 0
DWIDTH 8 0
BBX 7 7 0 0
BITMAP
EE
44
28
10
7C
10
38
ENDCHAR
STARTCHAR uni04B1
ENCODING 1201
SWIDTH 500 0
DWIDTH 8 0
BBX 7 8 0 -2
BITMAP
EE
44
28
28
10
7C
10
38
ENDCHAR
STARTCHAR uni04B2
ENCODING 1202
SWIDTH 500 0
DWIDTH 8 0
BBX 7 9 0 -2
BITMAP
EE
44
28
10
28
44
EE
02
02
ENDCHAR
STARTCHAR uni04B3
ENCODING 1203
SWIDTH 500 0
DWIDTH 8 0
BBX 7 8 0 -2
BITMAP
EE
44
38
28
44
EE
02
02
ENDCHAR
STARTCHAR uni04B4
ENCODING 1204
SWIDTH 500 0
DWIDTH 8 0
BBX 7 9 0 -2
BITMAP
FE
AC
24
24
24
24
7E
02
02
ENDCHAR
STARTCHAR uni04B5
ENCODING 1205
SWIDTH 500 0
DWIDTH 8 0
BBX 7 8 0 -2
BITMAP
FE
AC
24
24
24
7E
02
02
ENDCHAR
STARTCHAR uni04B6
ENCODING 1206
SWIDTH 500 0
DWIDTH 8 0
BBX 7 9 0 -2
BITMAP
EE
44
44
3C
04
04
0E
02
02
ENDCHAR
STARTCHAR uni04B7
ENCODING 1207
SWIDTH 500 0
DWIDTH 8 0
BBX 7 8 0 -2
BITMAP
EE
44
44
3C
04
0E
02
02
ENDCHAR
STARTCHAR uni04B8
ENCODING 1208
SWIDTH 500 0
DWIDTH 8 0
BBX 7 7 0 0
BITMAP
EE
44
54
3C
14
04
0E
ENDCHAR
STARTCHAR uni04B9
ENCODING 1209
SWIDTH 500 0
DWIDTH 8 0
BBX 7 6 0 0
BITMAP
EE
44
54
3C
14
0E
ENDCHAR
STARTCHAR uni04BA
ENCODING 1210
SWIDTH 500 0
DWIDTH 8 0
BBX 7 7 0 0
BITMAP
E0
40
40
78
44
44
EE
ENDCHAR
STARTCHAR uni04BB
ENCODING 1211
SWIDTH 500 0
DWIDTH 8 0
BBX 7 6 0 0
BITMAP
E0
40
78
44
44
EE
ENDCHAR
STARTCHAR uni04BC
ENCODING 1212
SWIDTH 500 0
DWIDTH 8 0
BBX 7 7 0 0
BITMAP
1C
22
A2
7E
20
22
1C
ENDCHAR
STARTCHAR uni04BD
ENCODING 1213
SWIDTH 500 0
DWIDTH 8 0
BBX 7 6 0 0
BITMAP
1C
A2
7E
20
22
1C
ENDCHAR
STARTCHAR uni04BE
ENCODING 1214
SWIDTH 500 0
DWIDTH 8 0
BBX 7 9 0 -2
BITMAP
1C
22
A2
7E
20
22
1C
08
06
ENDCHAR
STARTCHAR uni04BF
ENCODING 1215
SWIDTH 500 0
DWIDTH 8 0
BBX 7 8 0 -2
BITMAP
1C
A2
7E
20
22
1C
08
06
ENDCHAR
STARTCHAR uni04C0
ENCODING 1216
SWIDTH 500 0
DWIDTH 8 0
BBX 3 7 2 0
BITMAP
E0
40
40
40
40
40
E0
ENDCHAR
STARTCHAR uni04C1
ENCODING 1217
SWIDTH 500 0
DWIDTH 8 0
BBX 7 10 0 0
BITMAP
44
38
00
D6
54
54
38
54
54
D6
ENDCHAR
STARTCHAR uni04C2
ENCODING 1218
SWIDTH 500 0
DWIDTH 8 0
BBX 7 9 0 0
BITMAP
44
38
00
D6
54
38
54
54
D6
ENDCHAR
STARTCHAR uni04C3
ENCODING 1219
SWIDTH 500 0
DWIDTH 8 0
BBX 7 9 0 -2
BITMAP
E6
4A
48
7C
42
42
E2
02
0C
ENDCHAR
STARTCHAR uni04C4
ENCODING 1220
SWIDTH 500 0
DWIDTH 8 0
BBX 7 8 0 -2
BITMAP
E6
4A
48
7C
42
E2
02
0C
ENDCHAR
STARTCHAR uni04C5
ENCODING 1221
SWIDTH 500 0
DWIDTH 8 0
BBX 7 9 0 -2
BITMAP
7E
24
24
24
24
A4
CE
02
04
ENDCHAR
STARTCHAR uni04C6
ENCODING 1222
SWIDTH 500 0
DWIDTH 8 0
BBX 7 8 0 -2
BITMAP
7E
24
24
24
A4
CE
02
04
ENDCHAR
STARTCHAR uni04C7
ENCODING 1223
SWIDTH 500 0
DWIDTH 8 0
BBX 7 9 0 -2
BITMAP
EE
44
44
7C
44
44
E4
04
18
ENDCHAR
STARTCHAR uni04C8
ENCODING 1224
SWIDTH 500 0
DWIDTH 8 0
BBX 7 8 0 -2
BITMAP
EE
44
7C
44
44
E4
04
18
ENDCHAR
STARTCHAR uni04C9
ENCODING 1225
SWIDTH 500 0
DWIDTH 8 0
BBX 7 9 0 -2
BITMAP
EE
44
44
7C
44
44
EE
02
04
ENDCHAR
STARTCHAR uni04CA
ENCODING 1226
SWIDTH 500 0
DWIDTH 8 0
BBX 7 8 0 -2
BITMAP
EE
44
7C
44
44
EE
02
04
ENDCHAR
STARTCHAR uni04CB
ENCODING 1227
SWIDTH 500 0
DWIDTH 8 0
BBX 7 9 0 -2
BITMAP
EE
44
44
3C
04
04
0E
08
08
ENDCHAR
STARTCHAR uni04CC
ENCODING 1228
SWIDTH 500 0
DWIDTH 8 0
BBX 7 8 0 -2
BITMAP
EE
44
44
3C
04
0E
08
08
ENDCHAR
STARTCHAR uni04CD
ENCODING 1229
SWIDTH 500 0
DWIDTH 8 0
BBX 7 9 0 -2
BITMAP
C6
6C
54
54
44
44
EE
02
04
ENDCHAR
STARTCHAR uni04CE
ENCODING 1230
SWIDTH 500 0
DWIDTH 8 0
BBX 7 8 0 -2
BITMAP
C6
6C
54
54
44
EE
02
04
ENDCHAR
STARTCHAR uni04CF
ENCODING 1231
SWIDTH 500 0
DWIDTH 8 0
BBX 3 8 2 0
BITMAP
E0
40
40
40
40
40
40
E0
ENDCHAR
STARTCHAR uni04D0
ENCODING 1232
SWIDTH 500 0
DWIDTH 8 0
BBX 7 10 0 0
BITMAP
44
38
00
10
28
28
44
7C
44
EE
ENDCHAR
STARTCHAR uni04D1
ENCODING 1233
SWIDTH 500 0
DWIDTH 8 0
BBX 6 9 1 0
BITMAP
88
70
00
70
88
18
68
88
74
ENDCHAR
STARTCHAR uni04D2
ENCODING 1234
SWIDTH 500 0
DWIDTH 8 0
BBX 7 9 0 0
BITMAP
44
00
10
28
28
44
7C
44
EE
ENDCHAR
STARTCHAR uni04D3
ENCODING 1235
SWIDTH 500 0
DWIDTH 8 0
BBX 6 8 1 0
BITMAP
88
00
70
88
18
68
88
74
ENDCHAR
STARTCHAR uni04D4
ENCODING 1236
SWIDTH 500 0
DWIDTH 8 0
BBX 7 7 0 0
BITMAP
3E
52
50
9C
F0
92
DE
ENDCHAR
STARTCHAR uni04D5
ENCODING 1237
SWIDTH 500 0
DWIDTH 8 0
BBX 7 6 0 0
BITMAP
6C
92
3E
50
92
6C
ENDCHAR
STARTCHAR uni04D6
ENCODING 1238
SWIDTH 500 0
DWIDTH 8 0
BBX 7 10 0 0
BITMAP
44
38
00
FE
42
48
78
48
42
FE
ENDCHAR
STARTCHAR uni04D7
ENCODING 1239
SWIDTH 500 0
DWIDTH 8 0
BBX 5 9 1 0
BITMAP
88
70
00
70
88
F8
80
88
70
ENDCHAR
STARTCHAR uni04D8
ENCODING 1240
SWIDTH 500 0
DWIDTH 8 0
BBX 7 7 0 0
BITMAP
B8
C4
02
FE
82
44
38
ENDCHAR
STARTCHAR uni04D9
ENCODING 1241
SWIDTH 500 0
DWIDTH 8 0
BBX 5 6 1 0
BITMAP
70
88
08
F8
88
70
ENDCHAR
STARTCHAR uni04DA
ENCODING 1242
SWIDTH 500 0
DWIDTH 8 0
BBX 7 9 0 0
BITMAP
44
00
B8
C4
02
FE
82
44
38
ENDCHAR
STARTCHAR uni04DB
ENCODING 1243
SWIDTH 500 0
DWIDTH 8 0
BBX 5 8 1 0
BITMAP
88
00
70
88
08
F8
88
70
ENDCHAR
STARTCHAR uni04DC
ENCODING 1244
SWIDTH 500 0
DWIDTH 8 0
BBX 7 9 0 0
BITMAP
44
00
D6
54
54
38
54
54
D6
ENDCHAR
STARTCHAR uni04DD
ENCODING 1245
SWIDTH 500 0
DWIDTH 8 0
BBX 7 8 0 0
BITMAP
44
00
D6
54
38
54
54
D6
ENDCHAR
STARTCHAR uni04DE
ENCODING 1246
SWIDTH 500 0
DWIDTH 8 0
BBX 7 9 0 0
BITMAP
44
00
BC
C2
02
3C
02
82
7C
ENDCHAR
STARTCHAR uni04DF
ENCODING 1247
SWIDTH 500 0
DWIDTH 8 0
BBX 5 8 1 0
BITMAP
88
00
B0
C8
08
30
88
70
ENDCHAR
STARTCHAR uni04E0
ENCODING 1248
SWIDTH 500 0
DWIDTH 8 0
BBX 7 7 0 0
BITMAP
FE
84
08
1C
02
82
7C
ENDCHAR
STARTCHAR uni04E1
ENCODING 1249
SWIDTH 500 0
DWIDTH 8 0
BBX 5 8 1 -2
BITMAP
F8
90
20
70
08
08
88
70
ENDCHAR
STARTCHAR uni04E2
ENCODING 1250
SWIDTH 500 0
DWIDTH 8 0
BBX 7 9 0 0
BITMAP
7C
00
EE
44
4C
54
64
44
EE
ENDCHAR
STARTCHAR uni04E3
ENCODING 1251
SWIDTH 500 0
DWIDTH 8 0
BBX 7 8 0 0
BITMAP
7C
00
EE
4C
54
64
44
EE
ENDCHAR
STARTCHAR uni04E4
ENCODING 1252
SWIDTH 500 0
DWIDTH 8 0
BBX 7 9 0 0
BITMAP
44
00
EE
44
4C
54
64
44
EE
ENDCHAR
STARTCHAR uni04E5
ENCODING 1253
SWIDTH 500 0
DWIDTH 8 0
BBX 7 8 0 0
BITMAP
44
00
EE
4C
54
64
44
EE
ENDCHAR
STARTCHAR uni04E6
ENCODING 1254
SWIDTH 500 0
DWIDTH 8 0
BBX 7 9 0 0
BITMAP
44
00
38
44
82
82
82
44
38
ENDCHAR
STARTCHAR uni04E7
ENCODING 1255
SWIDTH 500 0
DWIDTH 8 0
BBX 5 8 1 0
BITMAP
88
00
70
88
88
88
88
70
ENDCHAR
STARTCHAR uni04E8
ENCODING 1256
SWIDTH 500 0
DWIDTH 8 0
BBX 7 7 0 0
BITMAP
38
44
82
FE
82
44
38
ENDCHAR
STARTCHAR uni04E9
ENCODING 1257
SWIDTH 500 0
DWIDTH 8 0
BBX 5 6 1 0
BITMAP
70
88
F8
88
88
70
ENDCHAR
STARTCHAR uni04EA
ENCODING 1258
SWIDTH 500 0
DWIDTH 8 0
BBX 7 9 0 0
BITMAP
44
00
38
44
82
FE
82
44
38
ENDCHAR
STARTCHAR uni04EB
ENCODING 1259
SWIDTH 500 0
DWIDTH 8 0
BBX 5 8 1 0
BITMAP
88
00
70
88
F8
88
88
70
ENDCHAR
STARTCHAR uni04EC
ENCODING 1260
SWIDTH 500 0
DWIDTH 8 0
BBX 7 9 0 0
BITMAP
44
00
B8
C4
02
1E
82
44
38
ENDCHAR
STARTCHAR uni04ED
ENCODING 1261
SWIDTH 500 0
DWIDTH 8 0
BBX 5 8 1 0
BITMAP
88
00
B0
C8
08
38
88
70
ENDCHAR
STARTCHAR uni04EE
ENCODING 1262
SWIDTH 500 0
DWIDTH 8 0
BBX 7 9 0 0
BITMAP
7C
00
EE
44
44
24
28
90
E0
ENDCHAR
STARTCHAR uni04EF
ENCODING 1263
SWIDTH 500 0
DWIDTH 8 0
BBX 7 10 0 -2
BITMAP
7C
00
EE
44
44
28
28
10
10
60
ENDCHAR
STARTCHAR uni04F0
ENCODING 1264
SWIDTH 500 0
DWIDTH 8 0
BBX 7 9 0 0
BITMAP
44
00
EE
44
44
24
28
90
E0
ENDCHAR
STARTCHAR uni04F1
ENCODING 1265
SWIDTH 500 0
DWIDTH 8 0
BBX 7 10 0 -2
BITMAP
44
00
EE
44
44
28
28
10
10
60
ENDCHAR
STARTCHAR uni04F2
ENCODING 1266
SWIDTH 500 0
DWIDTH 8 0
BBX 7 10 0 0
BITMAP
24
48
00
EE
44
44
24
28
90
E0
ENDCHAR
STARTCHAR uni04F3
ENCODING 1267
SWIDTH 500 0
DWIDTH 8 0
BBX 7 11 0 -2
BITMAP
24
48
00
EE
44
44
28
28
10
10
60
ENDCHAR
STARTCHAR uni04F4
ENCODING 1268
SWIDTH 500 0
DWIDTH 8 0
BBX 7 9 0 0
BITMAP
44
00
EE
44
44
3C
04
04
0E
ENDCHAR
STARTCHAR uni04F5
ENCODING 1269
SWIDTH 500 0
DWIDTH 8 0
BBX 7 8 0 0
BITMAP
44
00
EE
44
44
3C
04
0E
ENDCHAR
STARTCHAR uni04F6
ENCODING 1270
SWIDTH 500 0
DWIDTH 8 0
BBX 7 9 0 -2
BITMAP
FE
42
40
40
40
40
E0
20
20
ENDCHAR
STARTCHAR uni04F7
ENCODING 1271
SWIDTH 500 0
DWIDTH 8 0
BBX 6 8 0 -2
BITMAP
FC
44
40
40
40
E0
20
20
ENDCHAR
STARTCHAR uni04F8
ENCODING 1272
SWIDTH 500 0
DWIDTH 8 0
BBX 7 9 0 0
BITMAP
44
00
EE
44
44
64
54
54
E6
ENDCHAR
STARTCHAR uni04F9
ENCODING 1273
SWIDTH 500 0
DWIDTH 8 0
BBX 7 8 0 0
BITMAP
44
00
EE
44
64
54
54
E6
ENDCHAR
STARTCHAR uni04FA
ENCODING 1274
SWIDTH 500 0
DWIDTH 8 0
BBX 7 9 0 -2
BITMAP
FE
42
40
F0
40
40
E0
20
C0
ENDCHAR
STARTCHAR uni04FB
ENCODING 1275
SWIDTH 500 0
DWIDTH 8 0
BBX 6 8 0 -2
BITMAP
FC
44
F0
40
40
E0
20
C0
ENDCHAR
STARTCHAR uni04FC
ENCODING 1276
SWIDTH 500 0
DWIDTH 8 0
BBX 7 9 0 -2
BITMAP
EE
44
28
10
28
44
EE
02
0C
ENDCHAR
STARTCHAR uni04FD
ENCODING 1277
SWIDTH 500 0
DWIDTH 8 0
BBX 7 8 0 -2
BITMAP
EE
44
38
28
44
EE
02
0C
ENDCHAR
STARTCHAR uni04FE
ENCODING 1278
SWIDTH 500 0
DWIDTH 8 0
BBX 7 7 0 0
BITMAP
EE
44
28
7C
28
44
EE
ENDCHAR
STARTCHAR uni04FF
ENCODING 1279
SWIDTH 500 0
DWIDTH 8 0
BBX 7 6 0 0
BITMAP
EE
44
FE
28
44
EE
ENDCHAR
STARTCHAR uni0500
ENCODING 1280
SWIDTH 500 0
DWIDTH 8 0
BBX 7 7 0 0
BITMAP
0E
04
04
7C
84
84
7E
ENDCHAR
STARTCHAR uni0501
ENCODING 1281
SWIDTH 500 0
DWIDTH 8 0
BBX 6 8 1 0
BITMAP
18
08
78
88
88
88
98
6C
ENDCHAR
STARTCHAR uni0502
ENCODING 1282
SWIDTH 500 0
DWIDTH 8 0
BBX 7 7 0 0
BITMAP
38
10
10
76
92
92
6C
ENDCHAR
STARTCHAR uni0503
ENCODING 1283
SWIDTH 500 0
DWIDTH 8 0
BBX 7 8 0 0
BITMAP
30
10
70
90
90
96
B2
5C
ENDCHAR
STARTCHAR uni0504
ENCODING 1284
SWIDTH 500 0
DWIDTH 8 0
BBX 7 7 0 0
BITMAP
A0
D0
10
66
12
12
0C
ENDCHAR
STARTCHAR uni0505
ENCODING 1285
SWIDTH 500 0
DWIDTH 8 0
BBX 7 6 0 0
BITMAP
A0
D0
10
66
12
0C
ENDCHAR
STARTCHAR uni0506
ENCODING 1286
SWIDTH 500 0
DWIDTH 8 0
BBX 7 9 0 -2
BITMAP
B8
C4
04
38
04
04
06
02
02
ENDCHAR
STARTCHAR uni0507
ENCODING 1287
SWIDTH 500 0
DWIDTH 8 0
BBX 6 8 1 -2
BITMAP
B0
C8
08
30
08
0C
04
04
ENDCHAR
STARTCHAR uni0508
ENCODING 1288
SWIDTH 500 0
DWIDTH 8 0
BBX 7 7 0 0
BITMAP
F8
50
50
56
52
52
8C
ENDCHAR
STARTCHAR uni0509
ENCODING 1289
SWIDTH 500 0
DWIDTH 8 0
BBX 7 6 0 0
BITMAP
F8
50
50
56
52
8C
ENDCHAR
STARTCHAR uni050A
ENCODING 1290
SWIDTH 500 0
DWIDTH 8 0
BBX 7 7 0 0
BITMAP
D8
50
50
76
52
52
CC
ENDCHAR
STARTCHAR uni050B
ENCODING 1291
SWIDTH 500 0
DWIDTH 8 0
BBX 7 6 0 0
BITMAP
D8
50
70
56
52
CC
ENDCHAR
STARTCHAR uni050C
ENCODING 1292
SWIDTH 500 0
DWIDTH 8 0
BBX 7 7 0 0
BITMAP
3A
46
80
8E
84
44
38
ENDCHAR
STARTCHAR uni050D
ENCODING 1293
SWIDTH 500 0
DWIDTH 8 0
BBX 6 6 1 0
BITMAP
68
98
80
9C
88
70
ENDCHAR
STARTCHAR uni050E
ENCODING 1294
SWIDTH 500 0
DWIDTH 8 0
BBX 7 7 0 0
BITMAP
F8
A8
20
2E
24
24
18
ENDCHAR
STARTCHAR uni050F
ENCODING 1295
SWIDTH 500 0
DWIDTH 8 0
BBX 7 6 0 0
BITMAP
F8
A8
20
2E
24
18
ENDCHAR
STARTCHAR uni0510
ENCODING 1296
SWIDTH 500 0
DWIDTH 8 0
BBX 7 7 0 0
BITMAP
7A
86
80
78
80
82
7C
ENDCHAR
STARTCHAR uni0511
ENCODING 1297
SWIDTH 500 0
DWIDTH 8 0
BBX 5 6 1 0
BITMAP
68
98
80
60
88
70
ENDCHAR
STARTCHAR uni0512
ENCODING 1298
SWIDTH 500 0
DWIDTH 8 0
BBX 7 9 0 -2
BITMAP
7E
24
24
24
24
A4
C4
04
18
ENDCHAR
STARTCHAR uni0513
ENCODING 1299
SWIDTH 500 0
DWIDTH 8 0
BBX 7 8 0 -2
BITMAP
7E
24
24
24
A4
C4
04
18
ENDCHAR
STARTCHAR uni0514
ENCODING 1300
SWIDTH 500 0
DWIDTH 8 0
BBX 7 7 0 0
BITMAP
7A
2A
24
24
24
AA
CA
ENDCHAR
STARTCHAR uni0515
ENCODING 1301
SWIDTH 500 0
DWIDTH 8 0
BBX 7 6 0 0
BITMAP
7A
2A
24
24
AA
CA
ENDCHAR
STARTCHAR uni0516
ENCODING 1302
SWIDTH 500 0
DWIDTH 8 0
BBX 7 7 0 0
BITMAP
F2
4A
4A
6C
52
42
E6
ENDCHAR
STARTCHAR uni0517
ENCODING 1303
SWIDTH 500 0
DWIDTH 8 0
BBX 7 8 0 -2
BITMAP
E6
54
58
54
54
66
40
E0
ENDCHAR
STARTCHAR uni0518
ENCODING 1304
SWIDTH 500 0
DWIDTH 8 0
BBX 7 7 0 0
BITMAP
7E
92
90
7C
50
52
9E
ENDCHAR
STARTCHAR uni0519
ENCODING 1305
SWIDTH 500 0
DWIDTH 8 0
BBX 7 6 0 0
BITMAP
7C
92
9E
70
52
8C
ENDCHAR
STARTCHAR uni051A
ENCODING 1306
SWIDTH 500 0
DWIDTH 8 0
BBX 7 7 0 0
BITMAP
38
44
82
B2
8A
44
3A
ENDCHAR
STARTCHAR uni051B
ENCODING 1307
SWIDTH 500 0
DWIDTH 8 0
BBX 6 8 1 -2
BITMAP
74
88
88
88
98
68
08
1C
ENDCHAR
STARTCHAR uni051C
ENCODING 1308
SWIDTH 500 0
DWIDTH 8 0
BBX 7 7 0 0
BITMAP
EE
44
54
54
54
28
28
ENDCHAR
STARTCHAR uni051D
ENCODING 1309
SWIDTH 500 0
DWIDTH 8 0
BBX 7 6 0 0
BITMAP
EE
44
54
54
28
28
ENDCHAR
STARTCHAR uni051E
ENCODING 1310
SWIDTH 500 0
DWIDTH 8 0
BBX 7 7 0 0
BITMAP
EA
44
4A
70
48
44
EE
ENDCHAR
STARTCHAR uni051F
ENCODING 1311
SWIDTH 500 0
DWIDTH 8 0
BBX 7 6 0 0
BITMAP
EA
44
7A
48
44
EE
ENDCHAR
STARTCHAR uni0520
ENCODING 1312
SWIDTH 500 0
DWIDTH 8 0
BBX 7 9 0 -2
BITMAP
7C
28
28
2C
2A
AA
CA
02
0C
ENDCHAR
STARTCHAR uni0521
ENCODING 1313
SWIDTH 500 0
DWIDTH 8 0
BBX 7 8 0 -2
BITMAP
7C
28
2C
2A
AA
CA
02
0C
ENDCHAR
STARTCHAR uni0522
ENCODING 1314
SWIDTH 500 0
DWIDTH 8 0
BBX 7 9 0 -2
BITMAP
D8
50
50
7C
52
52
DA
02
0C
ENDCHAR
STARTCHAR uni0523
ENCODING 1315
SWIDTH 500 0
DWIDTH 8 0
BBX 7 8 0 -2
BITMAP
D8
50
7C
52
52
DA
02
0C
ENDCHAR
STARTCHAR uni0524
ENCODING 1316
SWIDTH 500 0
DWIDTH 8 0
BBX 7 9 0 -2
BITMAP
FE
44
44
44
44
44
EE
02
02
ENDCHAR
STARTCHAR uni0525
ENCODING 1317
SWIDTH 500 0
DWIDTH 8 0
BBX 7 8 0 -2
BITMAP
FE
44
44
44
44
EE
02
02
ENDCHAR
STARTCHAR uni0526
ENCODING 1318
SWIDTH 500 0
DWIDTH 8 0
BBX 7 9 0 -2
BITMAP
E0
40
40
78
44
44
EE
02
02
ENDCHAR
STARTCHAR uni0527
ENCODING 1319
SWIDTH 500 0
DWIDTH 8 0
BBX 7 10 0 -2
BITMAP
C0
40
58
64
44
44
44
EE
02
02
ENDCHAR
STARTCHAR uni0531
ENCODING 1329
SWIDTH 500 0
DWIDTH 8 0
BBX 7 7 0 0
BITMAP
D8
48
48
48
4C
4A
32
ENDCHAR
STARTCHAR uni0532
ENCODING 1330
SWIDTH 500 0
DWIDTH 8 0
BBX 6 7 0 0
BITMAP
38
44
44
40
78
44
E0
ENDCHAR
STARTCHAR uni0533
ENCODING 1331
SWIDTH 500 0
DWIDTH 8 0
BBX 7 7 0 0
BITMAP
70
88
88
7C
0A
08
1C
ENDCHAR
STARTCHAR uni0534
ENCODING 1332
SWIDTH 500 0
DWIDTH 8 0
BBX 7 7 0 0
BITMAP
70
88
88
0C
0A
08
1C
ENDCHAR
STARTCHAR uni0535
ENCODING 1333
SWIDTH 500 0
DWIDTH 8 0
BBX 6 7 0 0
BITMAP
C0
40
78
44
40
44
38
ENDCHAR
STARTCHAR uni0536
ENCODING 1334
SWIDTH 500 0
DWIDTH 8 0
BBX 6 9 1 -2
BITMAP
70
88
88
88
68
10
E0
98
04
ENDCHAR
STARTCHAR uni0537
ENCODING 1335
SWIDTH 500 0
DWIDTH 8 0
BBX 5 9 1 -2
BITMAP
C0
40
70
48
40
40
70
08
10
ENDCHAR
STARTCHAR uni0538
ENCODING 1336
SWIDTH 500 0
DWIDTH 8 0
BBX 6 8 0 -1
BITMAP
38
44
44
40
40
40
F8
04
ENDCHAR
STARTCHAR uni0539
ENCODING 1337
SWIDTH 500 0
DWIDTH 8 0
BBX 7 7 0 0
BITMAP
38
44
4E
54
54
48
E0
ENDCHAR
STARTCHAR uni053A
ENCODING 1338
SWIDTH 500 0
DWIDTH 8 0
BBX 7 7 0 0
BITMAP
18
08
7C
8A
88
88
70
ENDCHAR
STARTCHAR uni053B
ENCODING 1339
SWIDTH 500 0
DWIDTH 8 0
BBX 6 7 0 0
BITMAP
C0
40
78
44
40
40
E0
ENDCHAR
STARTCHAR uni053C
ENCODING 1340
SWIDTH 500 0
DWIDTH 8 0
BBX 5 9 1 -2
BITMAP
C0
40
40
40
40
40
70
08
10
ENDCHAR
STARTCHAR uni053D
ENCODING 1341
SWIDTH 500 0
DWIDTH 8 0
BBX 7 7 0 0
BITMAP
C0
40
66
52
4A
4A
E4
ENDCHAR
STARTCHAR uni053E
ENCODING 1342
SWIDTH 500 0
DWIDTH 8 0
BBX 7 8 0 0
BITMAP
80
7C
2A
44
44
44
44
38
ENDCHAR
STARTCHAR uni053F
ENCODING 1343
SWIDTH 500 0
DWIDTH 8 0
BBX 7 7 0 0
BITMAP
C0
40
4C
44
3C
04
0E
ENDCHAR
STARTCHAR uni0540
ENCODING 1344
SWIDTH 500 0
DWIDTH 8 0
BBX 5 8 1 -1
BITMAP
40
70
08
10
20
40
F8
08
ENDCHAR
STARTCHAR uni0541
ENCODING 1345
SWIDTH 500 0
DWIDTH 8 0
BBX 7 8 0 -1
BITMAP
38
44
44
34
08
50
A2
5C
ENDCHAR
STARTCHAR uni0542
ENCODING 1346
SWIDTH 500 0
DWIDTH 8 0
BBX 7 8 0 -1
BITMAP
70
88
88
08
08
08
0C
02
ENDCHAR
STARTCHAR uni0543
ENCODING 1347
SWIDTH 500 0
DWIDTH 8 0
BBX 5 8 1 0
BITMAP
10
08
D0
20
50
88
88
F8
ENDCHAR
STARTCHAR uni0544
ENCODING 1348
SWIDTH 500 0
DWIDTH 8 0
BBX 7 7 0 0
BITMAP
DC
4A
48
48
48
48
30
ENDCHAR
STARTCHAR uni0545
ENCODING 1349
SWIDTH 500 0
DWIDTH 8 0
BBX 5 7 1 0
BITMAP
70
08
88
F0
88
08
70
ENDCHAR
STARTCHAR uni0546
ENCODING 1350
SWIDTH 500 0
DWIDTH 8 0
BBX 7 8 0 0
BITMAP
40
80
60
20
20
22
22
1C
ENDCHAR
STARTCHAR uni0547
ENCODING 1351
SWIDTH 500 0
DWIDTH 8 0
BBX 7 8 0 0
BITMAP
02
7C
A0
20
40
44
44
38
ENDCHAR
STARTCHAR uni0548
ENCODING 1352
SWIDTH 500 0
DWIDTH 8 0
BBX 7 7 0 0
BITMAP
38
44
44
44
44
44
EE
ENDCHAR
STARTCHAR uni0549
ENCODING 1353
SWIDTH 500 0
DWIDTH 8 0
BBX 6 8 1 -1
BITMAP
70
88
88
88
68
10
EC
DC
ENDCHAR
STARTCHAR uni054A
ENCODING 1354
SWIDTH 500 0
DWIDTH 8 0
BBX 6 7 1 0
BITMAP
70
A8
A8
28
28
08
1C
ENDCHAR
STARTCHAR uni054B
ENCODING 1355
SWIDTH 500 0
DWIDTH 8 0
BBX 6 9 1 -2
BITMAP
70
88
88
88
48
50
E0
98
04
ENDCHAR
STARTCHAR uni054C
ENCODING 1356
SWIDTH 500 0
DWIDTH 8 0
BBX 7 7 0 0
BITMAP
30
48
48
4C
4A
48
EC
ENDCHAR
STARTCHAR uni054D
ENCODING 1357
SWIDTH 500 0
DWIDTH 8 0
BBX 6 7 0 0
BITMAP
CC
44
44
44
44
44
38
ENDCHAR
STARTCHAR uni054E
ENCODING 1358
SWIDTH 500 0
DWIDTH 8 0
BBX 7 8 0 -1
BITMAP
18
08
C8
48
38
08
0C
02
ENDCHAR
STARTCHAR uni054F
ENCODING 1359
SWIDTH 500 0
DWIDTH 8 0
BBX 5 7 1 0
BITMAP
70
88
40
20
10
88
70
ENDCHAR
STARTCHAR uni0550
ENCODING 1360
SWIDTH 500 0
DWIDTH 8 0
BBX 6 7 0 0
BITMAP
38
44
40
40
40
40
E0
ENDCHAR
STARTCHAR uni0551
ENCODING 1361
SWIDTH 500 0
DWIDTH 8 0
BBX 5 7 1 0
BITMAP
70
88
88
70
88
08
70
ENDCHAR
STARTCHAR uni0552
ENCODING 1362
SWIDTH 500 0
DWIDTH 8 0
BBX 7 7 0 0
BITMAP
C0
40
78
44
44
42
E0
ENDCHAR
STARTCHAR uni0553
ENCODING 1363
SWIDTH 500 0
DWIDTH 8 0
BBX 5 7 1 0
BITMAP
60
20
70
A8
70
20
70
ENDCHAR
STARTCHAR uni0554
ENCODING 1364
SWIDTH 500 0
DWIDTH 8 0
BBX 6 7 0 0
BITMAP
18
24
38
A0
78
24
70
ENDCHAR
STARTCHAR uni0555
ENCODING 1365
SWIDTH 500 0
DWIDTH 8 0
BBX 5 7 1 0
BITMAP
70
88
88
88
88
88
70
ENDCHAR
STARTCHAR uni0556
ENCODING 1366
SWIDTH 500 0
DWIDTH 8 0
BBX 7 7 0 0
BITMAP
60
90
90
7C
12
92
7C
ENDCHAR
STARTCHAR uni0559
ENCODING 1369
SWIDTH 500 0
DWIDTH 8 0
BBX 2 3 2 6
BITMAP
40
80
40
ENDCHAR
STARTCHAR uni055A
ENCODING 1370
SWIDTH 500 0
DWIDTH 8 0
BBX 2 3 3 6
BITMAP
80
40
80
ENDCHAR
STARTCHAR uni055B
ENCODING 1371
SWIDTH 500 0
DWIDTH 8 0
BBX 1 3 3 6
BITMAP
80
80
80
ENDCHAR
STARTCHAR uni055C
ENCODING 1372
SWIDTH 500 0
DWIDTH 8 0
BBX 5 3 1 6
BITMAP
08
70
80
ENDCHAR
STARTCHAR uni055D
ENCODING 1373
SWIDTH 500 0
DWIDTH 8 0
BBX 2 4 2 5
BITMAP
C0
C0
40
40
ENDCHAR
STARTCHAR uni055E
ENCODING 1374
SWIDTH 500 0
DWIDTH 8 0
BBX 5 4 1 5
BITMAP
30
48
88
30
ENDCHAR
STARTCHAR uni055F
ENCODING 1375
SWIDTH 500 0
DWIDTH 8 0
BBX 5 4 1 5
BITMAP
60
80
88
70
ENDCHAR
STARTCHAR uni0561
ENCODING 1377
SWIDTH 500 0
DWIDTH 8 0
BBX 7 6 0 0
BITMAP
D6
54
54
54
54
2E
ENDCHAR
STARTCHAR uni0562
ENCODING 1378
SWIDTH 500 0
DWIDTH 8 0
BBX 6 8 0 -2
BITMAP
D8
64
44
44
40
7C
40
E0
ENDCHAR
STARTCHAR uni0563
ENCODING 1379
SWIDTH 500 0
DWIDTH 8 0
BBX 6 8 1 -2
BITMAP
74
88
88
88
88
7C
08
1C
ENDCHAR
STARTCHAR uni0564
ENCODING 1380
SWIDTH 500 0
DWIDTH 8 0
BBX 7 8 0 -2
BITMAP
D8
64
44
44
44
E6
04
0E
ENDCHAR
STARTCHAR uni0565
ENCODING 1381
SWIDTH 500 0
DWIDTH 8 0
BBX 7 8 0 0
BITMAP
C0
40
7C
40
44
44
4C
36
ENDCHAR
STARTCHAR uni0566
ENCODING 1382
SWIDTH 500 0
DWIDTH 8 0
BBX 6 8 1 -2
BITMAP
74
88
88
88
98
68
08
0C
ENDCHAR
STARTCHAR uni0567
ENCODING 1383
SWIDTH 500 0
DWIDTH 8 0
BBX 6 9 0 -1
BITMAP
C0
40
7C
40
40
40
40
78
04
ENDCHAR
STARTCHAR uni0568
ENCODING 1384
SWIDTH 500 0
DWIDTH 8 0
BBX 7 8 0 -2
BITMAP
D8
64
44
44
44
4E
40
7C
ENDCHAR
STARTCHAR uni0569
ENCODING 1385
SWIDTH 500 0
DWIDTH 8 0
BBX 7 8 0 -2
BITMAP
D8
64
4E
54
54
48
40
E0
ENDCHAR
STARTCHAR uni056A
ENCODING 1386
SWIDTH 500 0
DWIDTH 8 0
BBX 6 8 1 0
BITMAP
18
08
7C
88
88
88
88
70
ENDCHAR
STARTCHAR uni056B
ENCODING 1387
SWIDTH 500 0
DWIDTH 8 0
BBX 7 10 0 -2
BITMAP
C0
40
58
64
44
44
44
4E
40
E0
ENDCHAR
STARTCHAR uni056C
ENCODING 1388
SWIDTH 500 0
DWIDTH 8 0
BBX 5 8 1 -2
BITMAP
C0
40
40
40
40
40
40
78
ENDCHAR
STARTCHAR uni056D
ENCODING 1389
SWIDTH 500 0
DWIDTH 8 0
BBX 7 10 0 -2
BITMAP
C0
40
66
52
52
52
52
4C
40
E0
ENDCHAR
STARTCHAR uni056E
ENCODING 1390
SWIDTH 500 0
DWIDTH 8 0
BBX 5 8 1 0
BITMAP
60
40
38
50
88
88
88
70
ENDCHAR
STARTCHAR uni056F
ENCODING 1391
SWIDTH 500 0
DWIDTH 8 0
BBX 7 10 0 -2
BITMAP
C0
40
4C
44
44
44
4C
34
04
0E
ENDCHAR
STARTCHAR uni0570
ENCODING 1392
SWIDTH 500 0
DWIDTH 8 0
BBX 7 8 0 0
BITMAP
C0
40
58
64
44
44
44
EE
ENDCHAR
STARTCHAR uni0571
ENCODING 1393
SWIDTH 500 0
DWIDTH 8 0
BBX 6 9 1 0
BITMAP
20
40
20
70
88
88
88
98
6C
ENDCHAR
STARTCHAR uni0572
ENCODING 1394
SWIDTH 500 0
DWIDTH 8 0
BBX 7 8 0 -2
BITMAP
D8
64
44
44
44
E4
04
06
ENDCHAR
STARTCHAR uni0573
ENCODING 1395
SWIDTH 500 0
DWIDTH 8 0
BBX 7 8 0 0
BITMAP
38
40
F8
44
44
44
4C
36
ENDCHAR
STARTCHAR uni0574
ENCODING 1396
SWIDTH 500 0
DWIDTH 8 0
BBX 7 9 0 0
BITMAP
04
0A
08
C4
44
44
44
4C
36
ENDCHAR
STARTCHAR uni0575
ENCODING 1397
SWIDTH 500 0
DWIDTH 8 0
BBX 3 8 1 -2
BITMAP
60
20
20
20
20
20
A0
40
ENDCHAR
STARTCHAR uni0576
ENCODING 1398
SWIDTH 500 0
DWIDTH 8 0
BBX 6 8 1 0
BITMAP
70
80
98
88
88
88
98
6C
ENDCHAR
STARTCHAR uni0577
ENCODING 1399
SWIDTH 500 0
DWIDTH 8 0
BBX 6 6 0 0
BITMAP
F8
24
40
40
44
38
ENDCHAR
STARTCHAR uni0578
ENCODING 1400
SWIDTH 500 0
DWIDTH 8 0
BBX 7 6 0 0
BITMAP
D8
64
44
44
44
EE
ENDCHAR
STARTCHAR uni0579
ENCODING 1401
SWIDTH 500 0
DWIDTH 8 0
BBX 5 10 1 -2
BITMAP
20
40
20
10
08
08
30
40
80
78
ENDCHAR
STARTCHAR uni057A
ENCODING 1402
SWIDTH 500 0
DWIDTH 8 0
BBX 7 8 0 -2
BITMAP
D6
54
54
54
54
2C
04
0E
ENDCHAR
STARTCHAR uni057B
ENCODING 1403
SWIDTH 500 0
DWIDTH 8 0
BBX 5 8 1 -2
BITMAP
70
88
88
48
30
40
80
78
ENDCHAR
STARTCHAR uni057C
ENCODING 1404
SWIDTH 500 0
DWIDTH 8 0
BBX 7 6 0 0
BITMAP
D0
68
48
48
48
EE
ENDCHAR
STARTCHAR uni057D
ENCODING 1405
SWIDTH 500 0
DWIDTH 8 0
BBX 7 6 0 0
BITMAP
CC
44
44
44
4C
36
ENDCHAR
STARTCHAR uni057E
ENCODING 1406
SWIDTH 500 0
DWIDTH 8 0
BBX 7 10 0 -2
BITMAP
0C
04
C4
44
44
44
4C
34
04
0E
ENDCHAR
STARTCHAR uni057F
ENCODING 1407
SWIDTH 500 0
DWIDTH 8 0
BBX 7 6 0 0
BITMAP
D8
54
54
54
54
36
ENDCHAR
STARTCHAR uni0580
ENCODING 1408
SWIDTH 500 0
DWIDTH 8 0
BBX 7 8 0 -2
BITMAP
D8
64
44
44
44
4E
40
E0
ENDCHAR
STARTCHAR uni0581
ENCODING 1409
SWIDTH 500 0
DWIDTH 8 0
BBX 6 8 1 -2
BITMAP
74
88
88
88
98
68
88
70
ENDCHAR
STARTCHAR uni0582
ENCODING 1410
SWIDTH 500 0
DWIDTH 8 0
BBX 5 6 1 0
BITMAP
C0
40
40
40
40
78
ENDCHAR
STARTCHAR uni0583
ENCODING 1411
SWIDTH 500 0
DWIDTH 8 0
BBX 7 10 0 -2
BITMAP
30
10
D8
54
54
54
54
36
10
38
ENDCHAR
STARTCHAR uni0584
ENCODING 1412
SWIDTH 500 0
DWIDTH 8 0
BBX 6 8 0 -2
BITMAP
D8
64
44
78
40
FC
40
E0
ENDCHAR
STARTCHAR uni0585
ENCODING 1413
SWIDTH 500 0
DWIDTH 8 0
BBX 5 6 1 0
BITMAP
70
88
88
88
88
70
ENDCHAR
STARTCHAR uni0586
ENCODING 1414
SWIDTH 500 0
DWIDTH 8 0
BBX 5 10 1 -2
BITMAP
60
A0
70
28
28
A8
A8
70
20
70
ENDCHAR
STARTCHAR uni0587
ENCODING 1415
SWIDTH 500 0
DWIDTH 8 0
BBX 7 8 0 0
BITMAP
C0
40
58
48
48
48
58
2E
ENDCHAR
STARTCHAR uni0589
ENCODING 1417
SWIDTH 500 0
DWIDTH 8 0
BBX 2 6 2 0
BITMAP
C0
C0
00
00
C0
C0
ENDCHAR
STARTCHAR uni058A
ENCODING 1418
SWIDTH 500 0
DWIDTH 8 0
BBX 7 1 0 3
BITMAP
FE
ENDCHAR
STARTCHAR uni058F
ENCODING 1423
SWIDTH 500 0
DWIDTH 8 0
BBX 7 7 0 0
BITMAP
70
88
BE
08
3E
08
1C
ENDCHAR
STARTCHAR uni0591
ENCODING 1425
SWIDTH 500 0
DWIDTH 8 0
BBX 3 3 2 -2
BITMAP
40
40
A0
ENDCHAR
STARTCHAR uni0592
ENCODING 1426
SWIDTH 500 0
DWIDTH 8 0
BBX 5 2 1 7
BITMAP
20
88
ENDCHAR
STARTCHAR uni0593
ENCODING 1427
SWIDTH 500 0
DWIDTH 8 0
BBX 3 4 2 6
BITMAP
60
C0
60
C0
ENDCHAR
STARTCHAR uni0594
ENCODING 1428
SWIDTH 500 0
DWIDTH 8 0
BBX 1 3 3 6
BITMAP
80
00
80
ENDCHAR
STARTCHAR uni0595
ENCODING 1429
SWIDTH 500 0
DWIDTH 8 0
BBX 3 3 2 6
BITMAP
A0
80
A0
ENDCHAR
STARTCHAR uni0596
ENCODING 1430
SWIDTH 500 0
DWIDTH 8 0
BBX 3 3 2 -2
BITMAP
80
80
60
ENDCHAR
STARTCHAR uni0597
ENCODING 1431
SWIDTH 500 0
DWIDTH 8 0
BBX 1 1 3 7
BITMAP
80
ENDCHAR
STARTCHAR uni0598
ENCODING 1432
SWIDTH 500 0
DWIDTH 8 0
BBX 5 3 1 6
BITMAP
48
A8
90
ENDCHAR
STARTCHAR uni0599
ENCODING 1433
SWIDTH 500 0
DWIDTH 8 0
BBX 3 3 0 6
BITMAP
C0
20
20
ENDCHAR
STARTCHAR uni059A
ENCODING 1434
SWIDTH 500 0
DWIDTH 8 0
BBX 2 3 4 -2
BITMAP
40
80
40
ENDCHAR
STARTCHAR uni059B
ENCODING 1435
SWIDTH 500 0
DWIDTH 8 0
BBX 3 3 2 -2
BITMAP
A0
20
C0
ENDCHAR
STARTCHAR uni059C
ENCODING 1436
SWIDTH 500 0
DWIDTH 8 0
BBX 3 3 2 6
BITMAP
60
80
80
ENDCHAR
STARTCHAR uni059D
ENCODING 1437
SWIDTH 500 0
DWIDTH 8 0
BBX 3 3 4 6
BITMAP
60
80
80
ENDCHAR
STARTCHAR uni059E
ENCODING 1438
SWIDTH 500 0
DWIDTH 8 0
BBX 5 4 2 6
BITMAP
60
98
A0
20
ENDCHAR
STARTCHAR uni059F
ENCODING 1439
SWIDTH 500 0
DWIDTH 8 0
BBX 7 3 0 6
BITMAP
44
AA
6C
ENDCHAR
STARTCHAR uni05A0
ENCODING 1440
SWIDTH 500 0
DWIDTH 8 0
BBX 3 3 4 6
BITMAP
40
A0
C0
ENDCHAR
STARTCHAR uni05A1
ENCODING 1441
SWIDTH 500 0
DWIDTH 8 0
BBX 3 3 2 6
BITMAP
A0
C0
80
ENDCHAR
STARTCHAR uni05A2
ENCODING 1442
SWIDTH 500 0
DWIDTH 8 0
BBX 3 3 2 -2
BITMAP
A0
40
40
ENDCHAR
STARTCHAR uni05A3
ENCODING 1443
SWIDTH 500 0
DWIDTH 8 0
BBX 3 3 2 -2
BITMAP
20
20
E0
ENDCHAR
STARTCHAR uni05A4
ENCODING 1444
SWIDTH 500 0
DWIDTH 8 0
BBX 2 3 2 -2
BITMAP
40
80
40
ENDCHAR
STARTCHAR uni05A5
ENCODING 1445
SWIDTH 500 0
DWIDTH 8 0
BBX 3 3 2 -2
BITMAP
20
20
C0
ENDCHAR
STARTCHAR uni05A6
ENCODING 1446
SWIDTH 500 0
DWIDTH 8 0
BBX 5 4 0 -2
BITMAP
20
28
C8
30
ENDCHAR
STARTCHAR uni05A7
ENCODING 1447
SWIDTH 500 0
DWIDTH 8 0
BBX 3 3 2 -2
BITMAP
60
40
C0
ENDCHAR
STARTCHAR uni05A8
ENCODING 1448
SWIDTH 500 0
DWIDTH 8 0
BBX 3 3 2 6
BITMAP
C0
20
20
ENDCHAR
STARTCHAR uni05A9
ENCODING 1449
SWIDTH 500 0
DWIDTH 8 0
BBX 3 3 0 6
BITMAP
40
A0
60
ENDCHAR
STARTCHAR uni05AA
ENCODING 1450
SWIDTH 500 0
DWIDTH 8 0
BBX 3 3 2 -2
BITMAP
A0
40
40
ENDCHAR
STARTCHAR uni05AB
ENCODING 1451
SWIDTH 500 0
DWIDTH 8 0
BBX 2 3 2 6
BITMAP
40
80
40
ENDCHAR
STARTCHAR uni05AC
ENCODING 1452
SWIDTH 500 0
DWIDTH 8 0
BBX 3 3 2 6
BITMAP
20
20
E0
ENDCHAR
STARTCHAR uni05AD
ENCODING 1453
SWIDTH 500 0
DWIDTH 8 0
BBX 3 3 4 -2
BITMAP
80
80
60
ENDCHAR
STARTCHAR uni05AE
ENCODING 1454
SWIDTH 500 0
DWIDTH 8 0
BBX 5 3 0 6
BITMAP
48
A8
90
ENDCHAR
STARTCHAR uni05AF
ENCODING 1455
SWIDTH 500 0
DWIDTH 8 0
BBX 3 3 2 6
BITMAP
40
A0
40
ENDCHAR
STARTCHAR uni05B0
ENCODING 1456
SWIDTH 500 0
DWIDTH 8 0
BBX 1 3 3 -2
BITMAP
80
00
80
ENDCHAR
STARTCHAR uni05B1
ENCODING 1457
SWIDTH 500 0
DWIDTH 8 0
BBX 5 3 1 -2
BITMAP
A8
00
48
ENDCHAR
STARTCHAR uni05B2
ENCODING 1458
SWIDTH 500 0
DWIDTH 8 0
BBX 5 3 1 -2
BITMAP
E8
00
08
ENDCHAR
STARTCHAR uni05B3
ENCODING 1459
SWIDTH 500 0
DWIDTH 8 0
BBX 5 3 1 -2
BITMAP
E8
40
08
ENDCHAR
STARTCHAR uni05B4
ENCODING 1460
SWIDTH 500 0
DWIDTH 8 0
BBX 1 1 3 -2
BITMAP
80
ENDCHAR
STARTCHAR uni05B5
ENCODING 1461
SWIDTH 500 0
DWIDTH 8 0
BBX 3 1 2 -2
BITMAP
A0
ENDCHAR
STARTCHAR uni05B6
ENCODING 1462
SWIDTH 500 0
DWIDTH 8 0
BBX 3 3 2 -2
BITMAP
A0
00
40
ENDCHAR
STARTCHAR uni05B7
ENCODING 1463
SWIDTH 500 0
DWIDTH 8 0
BBX 3 1 2 -2
BITMAP
E0
ENDCHAR
STARTCHAR uni05B8
ENCODING 1464
SWIDTH 500 0
DWIDTH 8 0
BBX 3 2 2 -2
BITMAP
E0
40
ENDCHAR
STARTCHAR uni05B9
ENCODING 1465
SWIDTH 500 0
DWIDTH 8 0
BBX 1 1 3 7
BITMAP
80
ENDCHAR
STARTCHAR uni05BA
ENCODING 1466
SWIDTH 500 0
DWIDTH 8 0
BBX 1 1 3 7
BITMAP
80
ENDCHAR
STARTCHAR uni05BB
ENCODING 1467
SWIDTH 500 0
DWIDTH 8 0
BBX 5 3 1 -2
BITMAP
80
20
08
ENDCHAR
STARTCHAR uni05BC
ENCODING 1468
SWIDTH 500 0
DWIDTH 8 0
BBX 1 1 3 3
BITMAP
80
ENDCHAR
STARTCHAR uni05BD
ENCODING 1469
SWIDTH 500 0
DWIDTH 8 0
BBX 1 3 3 -2
BITMAP
80
80
80
ENDCHAR
STARTCHAR uni05BE
ENCODING 1470
SWIDTH 500 0
DWIDTH 8 0
BBX 5 1 1 6
BITMAP
F8
ENDCHAR
STARTCHAR uni05BF
ENCODING 1471
SWIDTH 500 0
DWIDTH 8 0
BBX 3 1 2 7
BITMAP
E0
ENDCHAR
STARTCHAR uni05C0
ENCODING 1472
SWIDTH 500 0
DWIDTH 8 0
BBX 1 7 3 0
BITMAP
80
80
80
80
80
80
80
ENDCHAR
STARTCHAR uni05C1
ENCODING 1473
SWIDTH 500 0
DWIDTH 8 0
BBX 1 1 5 7
BITMAP
80
ENDCHAR
STARTCHAR uni05C2
ENCODING 1474
SWIDTH 500 0
DWIDTH 8 0
BBX 1 1 1 7
BITMAP
80
ENDCHAR
STARTCHAR uni05C3
ENCODING 1475
SWIDTH 500 0
DWIDTH 8 0
BBX 2 7 2 0
BITMAP
C0
C0
00
00
00
C0
C0
ENDCHAR
STARTCHAR uni05C4
ENCODING 1476
SWIDTH 500 0
DWIDTH 8 0
BBX 2 2 2 5
BITMAP
C0
C0
ENDCHAR
STARTCHAR uni05C5
ENCODING 1477
SWIDTH 500 0
DWIDTH 8 0
BBX 2 2 2 0
BITMAP
C0
C0
ENDCHAR
STARTCHAR uni05C6
ENCODING 1478
SWIDTH 500 0
DWIDTH 8 0
BBX 3 7 2 0
BITMAP
60
80
80
80
80
80
E0
ENDCHAR
STARTCHAR uni05C7
ENCODING 1479
SWIDTH 500 0
DWIDTH 8 0
BBX 3 2 2 -2
BITMAP
E0
40
ENDCHAR
STARTCHAR uni05D0
ENCODING 1488
SWIDTH 500 0
DWIDTH 8 0
BBX 7 7 0 0
BITMAP
42
44
24
54
48
44
84
ENDCHAR
STARTCHAR uni05D1
ENCODING 1489
SWIDTH 500 0
DWIDTH 8 0
BBX 7 7 0 0
BITMAP
78
04
04
04
04
04
FE
ENDCHAR
STARTCHAR uni05D2
ENCODING 1490
SWIDTH 500 0
DWIDTH 8 0
BBX 4 7 1 0
BITMAP
20
10
10
10
30
50
90
ENDCHAR
STARTCHAR uni05D3
ENCODING 1491
SWIDTH 500 0
DWIDTH 8 0
BBX 7 7 0 0
BITMAP
FE
04
04
04
04
04
04
ENDCHAR
STARTCHAR uni05D4
ENCODING 1492
SWIDTH 500 0
DWIDTH 8 0
BBX 6 7 0 0
BITMAP
F8
04
44
44
44
44
44
ENDCHAR
STARTCHAR uni05D5
ENCODING 1493
SWIDTH 500 0
DWIDTH 8 0
BBX 2 7 2 0
BITMAP
80
40
40
40
40
40
40
ENDCHAR
STARTCHAR uni05D6
ENCODING 1494
SWIDTH 500 0
DWIDTH 8 0
BBX 3 7 2 0
BITMAP
80
60
20
40
40
40
40
ENDCHAR
STARTCHAR uni05D7
ENCODING 1495
SWIDTH 500 0
DWIDTH 8 0
BBX 6 7 0 0
BITMAP
F8
44
44
44
44
44
44
ENDCHAR
STARTCHAR uni05D8
ENCODING 1496
SWIDTH 500 0
DWIDTH 8 0
BBX 6 7 1 0
BITMAP
98
84
84
88
88
90
E0
ENDCHAR
STARTCHAR uni05D9
ENCODING 1497
SWIDTH 500 0
DWIDTH 8 0
BBX 2 3 2 4
BITMAP
80
40
40
ENDCHAR
STARTCHAR uni05DA
ENCODING 1498
SWIDTH 500 0
DWIDTH 8 0
BBX 7 9 0 -2
BITMAP
FE
04
04
04
04
04
04
04
04
ENDCHAR
STARTCHAR uni05DB
ENCODING 1499
SWIDTH 500 0
DWIDTH 8 0
BBX 5 7 1 0
BITMAP
F0
08
08
08
08
08
F0
ENDCHAR
STARTCHAR uni05DC
ENCODING 1500
SWIDTH 500 0
DWIDTH 8 0
BBX 5 9 1 0
BITMAP
80
80
F0
08
08
08
08
10
60
ENDCHAR
STARTCHAR uni05DD
ENCODING 1501
SWIDTH 500 0
DWIDTH 8 0
BBX 6 7 0 0
BITMAP
F8
44
44
44
44
44
7C
ENDCHAR
STARTCHAR uni05DE
ENCODING 1502
SWIDTH 500 0
DWIDTH 8 0
BBX 6 7 0 0
BITMAP
98
A4
44
44
44
44
5C
ENDCHAR
STARTCHAR uni05DF
ENCODING 1503
SWIDTH 500 0
DWIDTH 8 0
BBX 2 9 2 -2
BITMAP
80
40
40
40
40
40
40
40
40
ENDCHAR
STARTCHAR uni05E0
ENCODING 1504
SWIDTH 500 0
DWIDTH 8 0
BBX 3 7 2 0
BITMAP
40
20
20
20
20
20
E0
ENDCHAR
STARTCHAR uni05E1
ENCODING 1505
SWIDTH 500 0
DWIDTH 8 0
BBX 7 7 0 0
BITMAP
FC
42
42
44
44
48
70
ENDCHAR
STARTCHAR uni05E2
ENCODING 1506
SWIDTH 500 0
DWIDTH 8 0
BBX 6 7 0 0
BITMAP
44
44
44
24
24
28
F0
ENDCHAR
STARTCHAR uni05E3
ENCODING 1507
SWIDTH 500 0
DWIDTH 8 0
BBX 5 9 1 -2
BITMAP
F0
88
88
68
08
08
08
08
08
ENDCHAR
STARTCHAR uni05E4
ENCODING 1508
SWIDTH 500 0
DWIDTH 8 0
BBX 5 7 1 0
BITMAP
F0
88
88
68
08
08
F8
ENDCHAR
STARTCHAR uni05E5
ENCODING 1509
SWIDTH 500 0
DWIDTH 8 0
BBX 5 9 1 -2
BITMAP
88
48
50
20
20
20
20
20
20
ENDCHAR
STARTCHAR uni05E6
ENCODING 1510
SWIDTH 500 0
DWIDTH 8 0
BBX 5 7 1 0
BITMAP
88
48
50
20
20
10
F8
ENDCHAR
STARTCHAR uni05E7
ENCODING 1511
SWIDTH 500 0
DWIDTH 8 0
BBX 7 9 0 -2
BITMAP
FC
02
42
44
44
48
50
40
40
ENDCHAR
STARTCHAR uni05E8
ENCODING 1512
SWIDTH 500 0
DWIDTH 8 0
BBX 5 7 1 0
BITMAP
F0
08
08
08
08
08
08
ENDCHAR
STARTCHAR uni05E9
ENCODING 1513
SWIDTH 500 0
DWIDTH 8 0
BBX 6 7 1 0
BITMAP
A8
A4
A4
C8
88
90
E0
ENDCHAR
STARTCHAR uni05EA
ENCODING 1514
SWIDTH 500 0
DWIDTH 8 0
BBX 6 7 0 0
BITMAP
F8
44
44
44
44
24
E4
ENDCHAR
STARTCHAR uni05F0
ENCODING 1520
SWIDTH 500 0
DWIDTH 8 0
BBX 5 7 1 0
BITMAP
90
48
48
48
48
48
48
ENDCHAR
STARTCHAR uni05F1
ENCODING 1521
SWIDTH 500 0
DWIDTH 8 0
BBX 5 7 1 0
BITMAP
90
48
48
08
08
08
08
ENDCHAR
STARTCHAR uni05F2
ENCODING 1522
SWIDTH 500 0
DWIDTH 8 0
BBX 5 3 1 4
BITMAP
90
48
48
ENDCHAR
STARTCHAR uni05F3
ENCODING 1523
SWIDTH 500 0
DWIDTH 8 0
BBX 2 4 3 4
BITMAP
C0
C0
80
80
ENDCHAR
STARTCHAR uni05F4
ENCODING 1524
SWIDTH 500 0
DWIDTH 8 0
BBX 5 4 1 4
BITMAP
D8
D8
90
90
ENDCHAR
STARTCHAR uni0600
ENCODING 1536
SWIDTH 500 0
DWIDTH 8 0
BBX 7 4 -1 2
BITMAP
02
04
04
FE
ENDCHAR
STARTCHAR uni0601
ENCODING 1537
SWIDTH 500 0
DWIDTH 8 0
BBX 7 3 0 1
BITMAP
AC
F2
80
ENDCHAR
STARTCHAR uni0602
ENCODING 1538
SWIDTH 500 0
DWIDTH 8 0
BBX 8 3 0 2
BITMAP
40
A0
7F
ENDCHAR
STARTCHAR uni0603
ENCODING 1539
SWIDTH 500 0
DWIDTH 8 0
BBX 8 4 -1 2
BITMAP
26
29
31
DE
ENDCHAR
STARTCHAR uni0604
ENCODING 1540
SWIDTH 500 0
DWIDTH 8 0
BBX 7 10 0 0
BITMAP
2A
14
90
48
48
40
24
2A
28
10
ENDCHAR
STARTCHAR uni0605
ENCODING 1541
SWIDTH 500 0
DWIDTH 8 0
BBX 7 10 0 0
BITMAP
0C
10
88
50
4C
40
24
2A
28
10
ENDCHAR
STARTCHAR uni0606
ENCODING 1542
SWIDTH 500 0
DWIDTH 8 0
BBX 6 7 1 0
BITMAP
C8
C8
10
20
40
80
94
ENDCHAR
STARTCHAR uni0607
ENCODING 1543
SWIDTH 500 0
DWIDTH 8 0
BBX 7 7 0 0
BITMAP
C8
C8
10
20
40
80
AA
ENDCHAR
STARTCHAR uni060B
ENCODING 1547
SWIDTH 500 0
DWIDTH 8 0
BBX 6 10 -1 -2
BITMAP
08
00
08
14
0C
FC
00
08
08
08
ENDCHAR
STARTCHAR uni060C
ENCODING 1548
SWIDTH 500 0
DWIDTH 8 0
BBX 2 4 3 0
BITMAP
40
80
C0
C0
ENDCHAR
STARTCHAR uni060D
ENCODING 1549
SWIDTH 500 0
DWIDTH 8 0
BBX 5 3 1 1
BITMAP
38
58
80
ENDCHAR
STARTCHAR uni060E
ENCODING 1550
SWIDTH 500 0
DWIDTH 8 0
BBX 7 4 0 1
BITMAP
40
A0
42
3C
ENDCHAR
STARTCHAR uni060F
ENCODING 1551
SWIDTH 500 0
DWIDTH 8 0
BBX 6 9 1 -2
BITMAP
60
80
70
80
98
A4
78
20
10
ENDCHAR
STARTCHAR uni061B
ENCODING 1563
SWIDTH 500 0
DWIDTH 8 0
BBX 2 7 3 0
BITMAP
40
80
C0
C0
00
C0
C0
ENDCHAR
STARTCHAR uni061E
ENCODING 1566
SWIDTH 500 0
DWIDTH 8 0
BBX 6 5 1 1
BITMAP
30
30
00
CC
CC
ENDCHAR
STARTCHAR uni061F
ENCODING 1567
SWIDTH 500 0
DWIDTH 8 0
BBX 6 8 1 0
BITMAP
78
CC
C0
60
30
00
30
30
ENDCHAR
STARTCHAR uni0621
ENCODING 1569
SWIDTH 500 0
DWIDTH 8 0
BBX 3 5 2 1
BITMAP
40
A0
80
60
80
ENDCHAR
STARTCHAR uni0622
ENCODING 1570
SWIDTH 500 0
DWIDTH 8 0
BBX 5 8 1 2
BITMAP
48
B0
00
20
20
20
20
20
ENDCHAR
STARTCHAR uni0627
ENCODING 1575
SWIDTH 500 0
DWIDTH 8 0
BBX 1 7 3 2
BITMAP
80
80
80
80
80
80
80
ENDCHAR
STARTCHAR uni0628
ENCODING 1576
SWIDTH 500 0
DWIDTH 8 0
BBX 7 6 0 0
BITMAP
44
82
82
7E
00
10
ENDCHAR
STARTCHAR uni0629
ENCODING 1577
SWIDTH 500 0
DWIDTH 8 0
BBX 5 6 1 2
BITMAP
50
00
20
50
88
70
ENDCHAR
STARTCHAR uni062A
ENCODING 1578
SWIDTH 500 0
DWIDTH 8 0
BBX 7 6 0 2
BITMAP
28
00
44
82
82
7E
ENDCHAR
STARTCHAR uni062B
ENCODING 1579
SWIDTH 500 0
DWIDTH 8 0
BBX 7 7 0 2
BITMAP
10
28
00
44
82
82
7E
ENDCHAR
STARTCHAR uni062C
ENCODING 1580
SWIDTH 500 0
DWIDTH 8 0
BBX 5 6 1 0
BITMAP
F8
40
80
A0
88
70
ENDCHAR
STARTCHAR uni062D
ENCODING 1581
SWIDTH 500 0
DWIDTH 8 0
BBX 5 6 1 0
BITMAP
F8
40
80
80
88
70
ENDCHAR
STARTCHAR uni062E
ENCODING 1582
SWIDTH 500 0
DWIDTH 8 0
BBX 5 8 1 0
BITMAP
20
00
F8
40
80
80
88
70
ENDCHAR
STARTCHAR uni062F
ENCODING 1583
SWIDTH 500 0
DWIDTH 8 0
BBX 4 4 1 2
BITMAP
20
10
90
70
ENDCHAR
STARTCHAR uni0630
ENCODING 1584
SWIDTH 500 0
DWIDTH 8 0
BBX 4 6 1 2
BITMAP
40
00
20
10
90
70
ENDCHAR
STARTCHAR uni0631
ENCODING 1585
SWIDTH 500 0
DWIDTH 8 0
BBX 5 6 1 0
BITMAP
10
08
08
08
88
70
ENDCHAR
STARTCHAR uni0632
ENCODING 1586
SWIDTH 500 0
DWIDTH 8 0
BBX 5 8 1 0
BITMAP
20
00
10
08
08
08
88
70
ENDCHAR
STARTCHAR uni0633
ENCODING 1587
SWIDTH 500 0
DWIDTH 8 0
BBX 7 6 0 0
BITMAP
22
2A
AA
B6
A0
40
ENDCHAR
STARTCHAR uni0634
ENCODING 1588
SWIDTH 500 0
DWIDTH 8 0
BBX 7 9 0 0
BITMAP
08
14
00
22
2A
AA
B6
A0
40
ENDCHAR
STARTCHAR uni0635
ENCODING 1589
SWIDTH 500 0
DWIDTH 8 0
BBX 7 6 0 0
BITMAP
24
2A
B2
BE
A0
40
ENDCHAR
STARTCHAR uni0636
ENCODING 1590
SWIDTH 500 0
DWIDTH 8 0
BBX 7 8 0 0
BITMAP
08
00
24
2A
B2
BE
A0
40
ENDCHAR
STARTCHAR uni0637
ENCODING 1591
SWIDTH 500 0
DWIDTH 8 0
BBX 7 7 0 2
BITMAP
40
60
40
4C
52
62
FE
ENDCHAR
STARTCHAR uni0638
ENCODING 1592
SWIDTH 500 0
DWIDTH 8 0
BBX 7 7 0 2
BITMAP
40
68
40
4C
52
62
FE
ENDCHAR
STARTCHAR uni0639
ENCODING 1593
SWIDTH 500 0
DWIDTH 8 0
BBX 5 7 1 0
BITMAP
60
80
98
60
80
80
78
ENDCHAR
STARTCHAR uni063A
ENCODING 1594
SWIDTH 500 0
DWIDTH 8 0
BBX 5 9 1 0
BITMAP
20
00
60
80
98
60
80
80
78
ENDCHAR
STARTCHAR uni0641
ENCODING 1601
SWIDTH 500 0
DWIDTH 8 0
BBX 7 6 0 2
BITMAP
08
00
44
8A
86
7E
ENDCHAR
STARTCHAR uni0642
ENCODING 1602
SWIDTH 500 0
DWIDTH 8 0
BBX 6 8 1 0
BITMAP
28
00
08
14
94
8C
84
78
ENDCHAR
STARTCHAR uni0643
ENCODING 1603
SWIDTH 500 0
DWIDTH 8 0
BBX 7 7 0 2
BITMAP
04
16
24
14
B4
84
7C
ENDCHAR
STARTCHAR uni0644
ENCODING 1604
SWIDTH 500 0
DWIDTH 8 0
BBX 7 9 0 0
BITMAP
04
06
04
04
44
84
84
84
78
ENDCHAR
STARTCHAR uni0645
ENCODING 1605
SWIDTH 500 0
DWIDTH 8 0
BBX 3 6 2 0
BITMAP
40
A0
20
60
80
40
ENDCHAR
STARTCHAR uni0646
ENCODING 1606
SWIDTH 500 0
DWIDTH 8 0
BBX 7 8 0 0
BITMAP
10
00
04
42
82
82
82
7C
ENDCHAR
STARTCHAR uni0647
ENCODING 1607
SWIDTH 500 0
DWIDTH 8 0
BBX 5 4 1 2
BITMAP
20
50
88
70
ENDCHAR
STARTCHAR uni0648
ENCODING 1608
SWIDTH 500 0
DWIDTH 8 0
BBX 5 5 1 0
BITMAP
10
28
18
88
70
ENDCHAR
STARTCHAR uni0649
ENCODING 1609
SWIDTH 500 0
DWIDTH 8 0
BBX 6 6 0 0
BITMAP
08
14
50
8C
84
78
ENDCHAR
STARTCHAR uni064A
ENCODING 1610
SWIDTH 500 0
DWIDTH 8 0
BBX 6 8 0 -2
BITMAP
08
14
50
8C
84
78
00
50
ENDCHAR
STARTCHAR uni064B
ENCODING 1611
SWIDTH 500 0
DWIDTH 8 0
BBX 5 4 1 6
BITMAP
30
C0
18
60
ENDCHAR
STARTCHAR uni064C
ENCODING 1612
SWIDTH 500 0
DWIDTH 8 0
BBX 5 4 1 6
BITMAP
90
A8
90
E8
ENDCHAR
STARTCHAR uni064D
ENCODING 1613
SWIDTH 500 0
DWIDTH 8 0
BBX 5 4 1 -2
BITMAP
30
C0
18
60
ENDCHAR
STARTCHAR uni064F
ENCODING 1615
SWIDTH 500 0
DWIDTH 8 0
BBX 4 4 1 6
BITMAP
20
50
20
D0
ENDCHAR
STARTCHAR uni0650
ENCODING 1616
SWIDTH 500 0
DWIDTH 8 0
BBX 4 2 1 0
BITMAP
30
C0
ENDCHAR
STARTCHAR uni0651
ENCODING 1617
SWIDTH 500 0
DWIDTH 8 0
BBX 5 3 1 7
BITMAP
28
A8
50
ENDCHAR
STARTCHAR uni0652
ENCODING 1618
SWIDTH 500 0
DWIDTH 8 0
BBX 3 3 2 7
BITMAP
40
A0
40
ENDCHAR
STARTCHAR uni0660
ENCODING 1632
SWIDTH 500 0
DWIDTH 8 0
BBX 3 3 2 2
BITMAP
C0
E0
60
ENDCHAR
STARTCHAR uni0661
ENCODING 1633
SWIDTH 500 0
DWIDTH 8 0
BBX 2 7 2 0
BITMAP
80
80
40
40
40
40
40
ENDCHAR
STARTCHAR uni0662
ENCODING 1634
SWIDTH 500 0
DWIDTH 8 0
BBX 5 7 1 0
BITMAP
88
C8
B0
80
40
40
40
ENDCHAR
STARTCHAR uni0663
ENCODING 1635
SWIDTH 500 0
DWIDTH 8 0
BBX 5 7 1 0
BITMAP
A8
A8
D0
80
40
40
40
ENDCHAR
STARTCHAR uni0664
ENCODING 1636
SWIDTH 500 0
DWIDTH 8 0
BBX 3 7 2 0
BITMAP
60
80
80
40
80
80
60
ENDCHAR
STARTCHAR uni0665
ENCODING 1637
SWIDTH 500 0
DWIDTH 8 0
BBX 5 5 1 1
BITMAP
70
88
88
88
70
ENDCHAR
STARTCHAR uni0666
ENCODING 1638
SWIDTH 500 0
DWIDTH 8 0
BBX 5 7 1 0
BITMAP
90
70
10
10
10
10
08
ENDCHAR
STARTCHAR uni0667
ENCODING 1639
SWIDTH 500 0
DWIDTH 8 0
BBX 5 7 1 0
BITMAP
88
88
88
50
50
50
20
ENDCHAR
STARTCHAR uni0668
ENCODING 1640
SWIDTH 500 0
DWIDTH 8 0
BBX 5 7 1 0
BITMAP
20
50
50
50
88
88
88
ENDCHAR
STARTCHAR uni0669
ENCODING 1641
SWIDTH 500 0
DWIDTH 8 0
BBX 5 7 1 0
BITMAP
60
90
90
70
10
10
08
ENDCHAR
STARTCHAR uni066A
ENCODING 1642
SWIDTH 500 0
DWIDTH 8 0
BBX 5 7 1 0
BITMAP
C8
C8
10
20
40
98
98
ENDCHAR
STARTCHAR uni0679
ENCODING 1657
SWIDTH 500 0
DWIDTH 8 0
BBX 7 7 0 2
BITMAP
20
38
00
44
82
82
7E
ENDCHAR
STARTCHAR uni067E
ENCODING 1662
SWIDTH 500 0
DWIDTH 8 0
BBX 7 7 0 -1
BITMAP
44
82
82
7E
00
28
10
ENDCHAR
STARTCHAR uni0686
ENCODING 1670
SWIDTH 500 0
DWIDTH 8 0
BBX 5 7 1 -1
BITMAP
F8
40
90
A0
90
80
78
ENDCHAR
STARTCHAR uni0688
ENCODING 1672
SWIDTH 500 0
DWIDTH 8 0
BBX 4 7 1 2
BITMAP
40
70
00
20
10
90
70
ENDCHAR
STARTCHAR uni0691
ENCODING 1681
SWIDTH 500 0
DWIDTH 8 0
BBX 5 9 1 0
BITMAP
40
70
00
10
08
08
08
88
70
ENDCHAR
STARTCHAR uni0698
ENCODING 1688
SWIDTH 500 0
DWIDTH 8 0
BBX 5 9 1 0
BITMAP
20
50
00
10
08
08
08
88
70
ENDCHAR
STARTCHAR uni06AF
ENCODING 1711
SWIDTH 500 0
DWIDTH 8 0
BBX 7 8 0 2
BITMAP
08
36
58
20
10
8C
82
7E
ENDCHAR
STARTCHAR uni06BA
ENCODING 1722
SWIDTH 500 0
DWIDTH 8 0
BBX 7 6 0 0
BITMAP
04
42
82
82
82
7C
ENDCHAR
STARTCHAR uni06BE
ENCODING 1726
SWIDTH 500 0
DWIDTH 8 0
BBX 7 5 -1 2
BITMAP
04
12
2A
12
EC
ENDCHAR
STARTCHAR uni06D2
ENCODING 1746
SWIDTH 500 0
DWIDTH 8 0
BBX 7 5 0 2
BITMAP
08
34
40
80
FE
ENDCHAR
STARTCHAR uni06DD
ENCODING 1757
SWIDTH 500 0
DWIDTH 8 0
BBX 7 7 0 0
BITMAP
38
7C
82
82
82
7C
38
ENDCHAR
STARTCHAR uni06F0
ENCODING 1776
SWIDTH 500 0
DWIDTH 8 0
BBX 3 3 2 2
BITMAP
C0
E0
60
ENDCHAR
STARTCHAR uni06F1
ENCODING 1777
SWIDTH 500 0
DWIDTH 8 0
BBX 2 7 2 0
BITMAP
80
80
40
40
40
40
40
ENDCHAR
STARTCHAR uni06F2
ENCODING 1778
SWIDTH 500 0
DWIDTH 8 0
BBX 5 7 1 0
BITMAP
88
C8
B0
80
40
40
40
ENDCHAR
STARTCHAR uni06F3
ENCODING 1779
SWIDTH 500 0
DWIDTH 8 0
BBX 5 7 1 0
BITMAP
A8
A8
D0
80
40
40
40
ENDCHAR
STARTCHAR uni06F4
ENCODING 1780
SWIDTH 500 0
DWIDTH 8 0
BBX 5 7 1 0
BITMAP
B0
C0
B8
80
40
40
40
ENDCHAR
STARTCHAR uni06F5
ENCODING 1781
SWIDTH 500 0
DWIDTH 8 0
BBX 5 7 1 0
BITMAP
20
30
50
88
88
A8
50
ENDCHAR
STARTCHAR uni06F6
ENCODING 1782
SWIDTH 500 0
DWIDTH 8 0
BBX 5 7 1 0
BITMAP
70
88
80
78
10
20
20
ENDCHAR
STARTCHAR uni06F7
ENCODING 1783
SWIDTH 500 0
DWIDTH 8 0
BBX 5 7 1 0
BITMAP
88
88
88
50
50
50
20
ENDCHAR
STARTCHAR uni06F8
ENCODING 1784
SWIDTH 500 0
DWIDTH 8 0
BBX 5 7 1 0
BITMAP
20
50
50
50
88
88
88
ENDCHAR
STARTCHAR uni06F9
ENCODING 1785
SWIDTH 500 0
DWIDTH 8 0
BBX 5 7 1 0
BITMAP
60
90
90
70
10
10
08
ENDCHAR
STARTCHAR uni07C0
ENCODING 1984
SWIDTH 500 0
DWIDTH 8 0
BBX 5 7 1 0
BITMAP
70
88
88
88
88
88
70
ENDCHAR
STARTCHAR uni07C1
ENCODING 1985
SWIDTH 500 0
DWIDTH 8 0
BBX 5 7 1 0
BITMAP
20
38
20
20
20
20
F8
ENDCHAR
STARTCHAR uni07C2
ENCODING 1986
SWIDTH 500 0
DWIDTH 8 0
BBX 5 7 1 0
BITMAP
90
88
C8
B0
80
80
80
ENDCHAR
STARTCHAR uni07C3
ENCODING 1987
SWIDTH 500 0
DWIDTH 8 0
BBX 5 7 1 0
BITMAP
08
08
08
F8
08
08
F8
ENDCHAR
STARTCHAR uni07C4
ENCODING 1988
SWIDTH 500 0
DWIDTH 8 0
BBX 5 7 1 0
BITMAP
08
08
08
F8
80
80
F8
ENDCHAR
STARTCHAR uni07C5
ENCODING 1989
SWIDTH 500 0
DWIDTH 8 0
BBX 5 7 1 0
BITMAP
80
80
80
F8
80
80
80
ENDCHAR
STARTCHAR uni07C6
ENCODING 1990
SWIDTH 500 0
DWIDTH 8 0
BBX 5 7 1 0
BITMAP
80
80
80
F8
08
08
08
ENDCHAR
STARTCHAR uni07C7
ENCODING 1991
SWIDTH 500 0
DWIDTH 8 0
BBX 5 7 1 0
BITMAP
80
80
80
80
88
B0
C0
ENDCHAR
STARTCHAR uni07C8
ENCODING 1992
SWIDTH 500 0
DWIDTH 8 0
BBX 5 7 1 0
BITMAP
80
80
80
F8
90
A0
C0
ENDCHAR
STARTCHAR uni07C9
ENCODING 1993
SWIDTH 500 0
DWIDTH 8 0
BBX 5 7 1 0
BITMAP
70
88
88
70
20
20
20
ENDCHAR
STARTCHAR uni07CA
ENCODING 1994
SWIDTH 500 0
DWIDTH 8 0
BBX 1 7 3 0
BITMAP
80
80
80
80
80
80
80
ENDCHAR
STARTCHAR uni07CB
ENCODING 1995
SWIDTH 500 0
DWIDTH 8 0
BBX 5 5 1 0
BITMAP
70
88
88
88
70
ENDCHAR
STARTCHAR uni07CC
ENCODING 1996
SWIDTH 500 0
DWIDTH 8 0
BBX 5 7 1 0
BITMAP
88
88
50
50
20
20
10
ENDCHAR
STARTCHAR uni07CD
ENCODING 1997
SWIDTH 500 0
DWIDTH 8 0
BBX 5 5 1 0
BITMAP
20
50
50
88
88
ENDCHAR
STARTCHAR uni07CE
ENCODING 1998
SWIDTH 500 0
DWIDTH 8 0
BBX 5 5 1 0
BITMAP
88
88
88
C8
B0
ENDCHAR
STARTCHAR uni07CF
ENCODING 1999
SWIDTH 500 0
DWIDTH 8 0
BBX 5 5 1 0
BITMAP
F8
08
08
08
F8
ENDCHAR
STARTCHAR uni07D0
ENCODING 2000
SWIDTH 500 0
DWIDTH 8 0
BBX 5 7 1 0
BITMAP
70
88
88
70
20
20
F8
ENDCHAR
STARTCHAR uni07D1
ENCODING 2001
SWIDTH 500 0
DWIDTH 8 0
BBX 6 7 1 0
BITMAP
10
20
30
30
00
00
FC
ENDCHAR
STARTCHAR uni07D2
ENCODING 2002
SWIDTH 500 0
DWIDTH 8 0
BBX 5 7 1 0
BITMAP
60
A0
A8
78
28
08
08
ENDCHAR
STARTCHAR uni07D3
ENCODING 2003
SWIDTH 500 0
DWIDTH 8 0
BBX 5 7 1 0
BITMAP
F8
80
80
F8
80
80
80
ENDCHAR
STARTCHAR uni07D4
ENCODING 2004
SWIDTH 500 0
DWIDTH 8 0
BBX 5 7 1 0
BITMAP
F8
08
08
F8
08
08
08
ENDCHAR
STARTCHAR uni07D5
ENCODING 2005
SWIDTH 500 0
DWIDTH 8 0
BBX 5 7 1 0
BITMAP
80
80
B0
C8
88
88
F0
ENDCHAR
STARTCHAR uni07D6
ENCODING 2006
SWIDTH 500 0
DWIDTH 8 0
BBX 5 7 1 0
BITMAP
F8
80
40
20
10
08
08
ENDCHAR
STARTCHAR uni07D7
ENCODING 2007
SWIDTH 500 0
DWIDTH 8 0
BBX 3 7 1 0
BITMAP
20
60
A0
20
20
20
20
ENDCHAR
STARTCHAR uni07D8
ENCODING 2008
SWIDTH 500 0
DWIDTH 8 0
BBX 7 5 0 0
BITMAP
6C
92
92
92
FE
ENDCHAR
STARTCHAR uni07D9
ENCODING 2009
SWIDTH 500 0
DWIDTH 8 0
BBX 5 7 1 0
BITMAP
38
20
20
F8
20
20
20
ENDCHAR
STARTCHAR uni07DA
ENCODING 2010
SWIDTH 500 0
DWIDTH 8 0
BBX 7 7 0 0
BITMAP
28
28
28
FE
28
28
28
ENDCHAR
STARTCHAR uni07DB
ENCODING 2011
SWIDTH 500 0
DWIDTH 8 0
BBX 7 5 0 0
BITMAP
FE
82
82
82
FE
ENDCHAR
STARTCHAR uni07DC
ENCODING 2012
SWIDTH 500 0
DWIDTH 8 0
BBX 5 5 1 0
BITMAP
F8
88
50
50
20
ENDCHAR
STARTCHAR uni07DD
ENCODING 2013
SWIDTH 500 0
DWIDTH 8 0
BBX 7 7 0 0
BITMAP
1C
12
12
FC
90
90
F0
ENDCHAR
STARTCHAR uni07DE
ENCODING 2014
SWIDTH 500 0
DWIDTH 8 0
BBX 5 7 1 0
BITMAP
88
88
F8
88
88
08
08
ENDCHAR
STARTCHAR uni07DF
ENCODING 2015
SWIDTH 500 0
DWIDTH 8 0
BBX 7 7 0 0
BITMAP
78
88
88
7E
08
08
08
ENDCHAR
STARTCHAR uni07E0
ENCODING 2016
SWIDTH 500 0
DWIDTH 8 0
BBX 5 7 1 0
BITMAP
F8
20
20
20
20
20
20
ENDCHAR
STARTCHAR uni07E1
ENCODING 2017
SWIDTH 500 0
DWIDTH 8 0
BBX 5 5 1 0
BITMAP
20
50
50
88
F8
ENDCHAR
STARTCHAR uni07E2
ENCODING 2018
SWIDTH 500 0
DWIDTH 8 0
BBX 7 7 0 0
BITMAP
F8
08
78
88
7E
08
08
ENDCHAR
STARTCHAR uni07E3
ENCODING 2019
SWIDTH 500 0
DWIDTH 8 0
BBX 5 7 1 0
BITMAP
F8
88
88
08
08
08
08
ENDCHAR
STARTCHAR uni07E4
ENCODING 2020
SWIDTH 500 0
DWIDTH 8 0
BBX 5 7 1 0
BITMAP
80
80
F8
88
88
08
08
ENDCHAR
STARTCHAR uni07E5
ENCODING 2021
SWIDTH 500 0
DWIDTH 8 0
BBX 5 7 1 0
BITMAP
F8
08
08
F8
88
88
F8
ENDCHAR
STARTCHAR uni07E6
ENCODING 2022
SWIDTH 500 0
DWIDTH 8 0
BBX 5 7 1 0
BITMAP
20
70
88
88
70
20
20
ENDCHAR
STARTCHAR uni07E7
ENCODING 2023
SWIDTH 500 0
DWIDTH 8 0
BBX 5 7 1 0
BITMAP
F8
20
70
88
70
20
20
ENDCHAR
STARTCHAR uni07E8
ENCODING 2024
SWIDTH 500 0
DWIDTH 8 0
BBX 5 7 1 -2
BITMAP
20
20
F8
20
20
20
20
ENDCHAR
STARTCHAR uni07E9
ENCODING 2025
SWIDTH 500 0
DWIDTH 8 0
BBX 5 7 1 -2
BITMAP
20
20
20
40
40
88
70
ENDCHAR
STARTCHAR uni07EA
ENCODING 2026
SWIDTH 500 0
DWIDTH 8 0
BBX 5 7 1 -2
BITMAP
20
20
20
40
70
88
70
ENDCHAR
STARTCHAR uni07EB
ENCODING 2027
SWIDTH 500 0
DWIDTH 8 0
BBX 7 9 0 0
BITMAP
7C
00
10
44
00
82
00
44
10
ENDCHAR
STARTCHAR uni07EC
ENCODING 2028
SWIDTH 500 0
DWIDTH 8 0
BBX 7 10 0 0
BITMAP
34
48
00
10
44
00
82
00
44
10
ENDCHAR
STARTCHAR uni07ED
ENCODING 2029
SWIDTH 500 0
DWIDTH 8 0
BBX 7 9 0 0
BITMAP
10
00
10
44
00
82
00
44
10
ENDCHAR
STARTCHAR uni07EE
ENCODING 2030
SWIDTH 500 0
DWIDTH 8 0
BBX 7 10 0 0
BITMAP
10
28
28
00
44
00
82
00
44
10
ENDCHAR
STARTCHAR uni07EF
ENCODING 2031
SWIDTH 500 0
DWIDTH 8 0
BBX 7 10 0 0
BITMAP
30
08
30
00
44
00
82
00
44
10
ENDCHAR
STARTCHAR uni07F0
ENCODING 2032
SWIDTH 500 0
DWIDTH 8 0
BBX 7 10 0 0
BITMAP
40
7C
04
10
44
00
82
00
44
10
ENDCHAR
STARTCHAR uni07F1
ENCODING 2033
SWIDTH 500 0
DWIDTH 8 0
BBX 7 10 0 0
BITMAP
18
20
18
00
44
00
82
00
44
10
ENDCHAR
STARTCHAR uni07F2
ENCODING 2034
SWIDTH 500 0
DWIDTH 8 0
BBX 7 9 0 -2
BITMAP
10
44
00
82
00
44
10
00
10
ENDCHAR
STARTCHAR uni07F3
ENCODING 2035
SWIDTH 500 0
DWIDTH 8 0
BBX 7 9 0 0
BITMAP
28
00
10
44
00
82
00
44
10
ENDCHAR
STARTCHAR uni07F4
ENCODING 2036
SWIDTH 500 0
DWIDTH 8 0
BBX 2 4 2 2
BITMAP
C0
C0
40
80
ENDCHAR
STARTCHAR uni07F5
ENCODING 2037
SWIDTH 500 0
DWIDTH 8 0
BBX 2 4 2 2
BITMAP
40
80
C0
C0
ENDCHAR
STARTCHAR uni07F6
ENCODING 2038
SWIDTH 500 0
DWIDTH 8 0
BBX 5 7 1 0
BITMAP
78
88
50
20
40
80
F8
ENDCHAR
STARTCHAR uni07F7
ENCODING 2039
SWIDTH 500 0
DWIDTH 8 0
BBX 7 7 0 0
BITMAP
38
44
6C
92
BA
92
6C
ENDCHAR
STARTCHAR uni07F8
ENCODING 2040
SWIDTH 500 0
DWIDTH 8 0
BBX 6 7 1 0
BITMAP
30
30
00
00
00
00
FC
ENDCHAR
STARTCHAR uni07F9
ENCODING 2041
SWIDTH 500 0
DWIDTH 8 0
BBX 6 7 1 0
BITMAP
FC
00
30
30
00
30
30
ENDCHAR
STARTCHAR uni07FA
ENCODING 2042
SWIDTH 500 0
DWIDTH 8 0
BBX 5 1 1 0
BITMAP
F8
ENDCHAR
STARTCHAR uni0901
ENCODING 2305
SWIDTH 500 0
DWIDTH 8 0
BBX 6 3 0 7
BITMAP
90
44
3C
ENDCHAR
STARTCHAR uni0902
ENCODING 2306
SWIDTH 500 0
DWIDTH 8 0
BBX 3 3 2 7
BITMAP
40
E0
40
ENDCHAR
STARTCHAR uni0903
ENCODING 2307
SWIDTH 500 0
DWIDTH 8 0
BBX 3 7 2 0
BITMAP
40
E0
40
00
40
E0
40
ENDCHAR
STARTCHAR uni0904
ENCODING 2308
SWIDTH 500 0
DWIDTH 8 0
BBX 8 12 0 -2
BITMAP
30
08
04
4F
A4
24
64
1C
94
64
04
04
ENDCHAR
STARTCHAR uni0905
ENCODING 2309
SWIDTH 500 0
DWIDTH 8 0
BBX 8 9 0 -2
BITMAP
4F
A4
24
64
1C
94
64
04
04
ENDCHAR
STARTCHAR uni0906
ENCODING 2310
SWIDTH 500 0
DWIDTH 8 0
BBX 8 9 0 -2
BITMAP
5F
AA
2A
4A
3A
AA
4A
0A
0A
ENDCHAR
STARTCHAR uni0907
ENCODING 2311
SWIDTH 500 0
DWIDTH 8 0
BBX 9 9 -1 -2
BITMAP
FF80
0400
1C00
2000
1C00
0200
3A00
1C00
0200
ENDCHAR
STARTCHAR uni0908
ENCODING 2312
SWIDTH 500 0
DWIDTH 8 0
BBX 9 12 -1 -2
BITMAP
0600
0900
0400
FF80
0400
1C00
2000
1C00
0200
3A00
1C00
0200
ENDCHAR
STARTCHAR uni0909
ENCODING 2313
SWIDTH 500 0
DWIDTH 8 0
BBX 9 9 -1 -2
BITMAP
FF80
0400
0200
0200
0C00
2200
2200
1200
0C00
ENDCHAR
STARTCHAR uni090A
ENCODING 2314
SWIDTH 500 0
DWIDTH 8 0
BBX 9 9 -1 -2
BITMAP
FF80
0800
0400
0400
1800
4400
4600
2500
1900
ENDCHAR
STARTCHAR uni090B
ENCODING 2315
SWIDTH 500 0
DWIDTH 8 0
BBX 9 9 -1 -2
BITMAP
FF80
0800
2A00
5F00
1A00
2900
4A00
0A00
0900
ENDCHAR
STARTCHAR uni090C
ENCODING 2316
SWIDTH 500 0
DWIDTH 8 0
BBX 9 9 -1 -2
BITMAP
FF80
0400
3600
4900
4900
4300
2400
1400
0300
ENDCHAR
STARTCHAR uni090D
ENCODING 2317
SWIDTH 500 0
DWIDTH 8 0
BBX 9 12 -1 -2
BITMAP
0900
0700
0000
FF80
2200
2200
2200
2200
2400
1000
0800
0400
ENDCHAR
STARTCHAR uni090E
ENCODING 2318
SWIDTH 500 0
DWIDTH 8 0
BBX 9 12 -1 -2
BITMAP
2000
1C00
0200
FF80
2200
2200
2200
2200
2400
1000
0800
0400
ENDCHAR
STARTCHAR uni090F
ENCODING 2319
SWIDTH 500 0
DWIDTH 8 0
BBX 9 9 -1 -2
BITMAP
FF80
2200
2200
2200
2200
2400
1000
0800
0400
ENDCHAR
STARTCHAR uni0910
ENCODING 2320
SWIDTH 500 0
DWIDTH 8 0
BBX 9 12 -1 -2
BITMAP
1800
0400
0200
FF80
2200
2200
2200
2200
2400
1000
0800
0400
ENDCHAR
STARTCHAR uni0911
ENCODING 2321
SWIDTH 500 0
DWIDTH 8 0
BBX 8 12 0 -2
BITMAP
12
0E
00
5F
AA
2A
4A
3A
AA
4A
0A
0A
ENDCHAR
STARTCHAR uni0912
ENCODING 2322
SWIDTH 500 0
DWIDTH 8 0
BBX 8 12 0 -2
BITMAP
20
1C
02
5F
AA
2A
4A
3A
AA
4A
0A
0A
ENDCHAR
STARTCHAR uni0913
ENCODING 2323
SWIDTH 500 0
DWIDTH 8 0
BBX 8 12 0 -2
BITMAP
18
04
02
5F
AA
2A
4A
3A
AA
4A
0A
0A
ENDCHAR
STARTCHAR uni0914
ENCODING 2324
SWIDTH 500 0
DWIDTH 8 0
BBX 8 12 0 -2
BITMAP
04
32
0E
5F
AA
2A
4A
3A
AA
4A
0A
0A
ENDCHAR
STARTCHAR uni0915
ENCODING 2325
SWIDTH 500 0
DWIDTH 8 0
BBX 9 9 -1 -2
BITMAP
FF80
0800
3800
4E00
5900
2900
0A00
0800
0800
ENDCHAR
STARTCHAR uni0916
ENCODING 2326
SWIDTH 500 0
DWIDTH 8 0
BBX 9 9 -1 -2
BITMAP
FF80
2100
2700
6900
4700
3100
0F00
0100
0100
ENDCHAR
STARTCHAR uni0917
ENCODING 2327
SWIDTH 500 0
DWIDTH 8 0
BBX 9 9 -1 -2
BITMAP
FF80
2200
2200
6200
2200
0200
0200
0200
0200
ENDCHAR
STARTCHAR uni0918
ENCODING 2328
SWIDTH 500 0
DWIDTH 8 0
BBX 9 9 -1 -2
BITMAP
FF80
4200
4200
3A00
2200
2600
1A00
0200
0200
ENDCHAR
STARTCHAR uni0919
ENCODING 2329
SWIDTH 500 0
DWIDTH 8 0
BBX 9 9 -1 -2
BITMAP
FF80
1000
3200
4700
7200
0800
0800
4800
3000
ENDCHAR
STARTCHAR uni091A
ENCODING 2330
SWIDTH 500 0
DWIDTH 8 0
BBX 9 9 -1 -2
BITMAP
FF80
0200
7E00
1200
2200
2600
1A00
0200
0200
ENDCHAR
STARTCHAR uni091B
ENCODING 2331
SWIDTH 500 0
DWIDTH 8 0
BBX 9 9 -1 -2
BITMAP
FF80
0200
3200
4500
4500
3500
2200
2500
1900
ENDCHAR
STARTCHAR uni091C
ENCODING 2332
SWIDTH 500 0
DWIDTH 8 0
BBX 9 9 -1 -2
BITMAP
FF80
0200
5E00
4A00
2A00
1200
0200
0200
0200
ENDCHAR
STARTCHAR uni091D
ENCODING 2333
SWIDTH 500 0
DWIDTH 8 0
BBX 9 9 -1 -2
BITMAP
FF80
1200
3200
4200
3E00
0A00
6A00
3200
0A00
ENDCHAR
STARTCHAR uni091E
ENCODING 2334
SWIDTH 500 0
DWIDTH 8 0
BBX 9 9 -1 -2
BITMAP
FF80
0200
3200
0A00
4E00
4A00
3200
0200
0200
ENDCHAR
STARTCHAR uni091F
ENCODING 2335
SWIDTH 500 0
DWIDTH 8 0
BBX 9 9 -1 -2
BITMAP
FF80
0400
0400
1C00
2000
2000
2000
2200
1C00
ENDCHAR
STARTCHAR uni0920
ENCODING 2336
SWIDTH 500 0
DWIDTH 8 0
BBX 9 9 -1 -2
BITMAP
FF80
0800
0800
1C00
2200
2200
2200
2200
1C00
ENDCHAR
STARTCHAR uni0921
ENCODING 2337
SWIDTH 500 0
DWIDTH 8 0
BBX 9 9 -1 -2
BITMAP
FF80
0400
1C00
2000
2C00
1200
4200
2200
1C00
ENDCHAR
STARTCHAR uni0922
ENCODING 2338
SWIDTH 500 0
DWIDTH 8 0
BBX 9 9 -1 -2
BITMAP
FF80
0400
0400
1C00
2000
2400
2A00
2A00
1C00
ENDCHAR
STARTCHAR uni0923
ENCODING 2339
SWIDTH 500 0
DWIDTH 8 0
BBX 9 9 -1 -2
BITMAP
FF80
2A00
2A00
2A00
2A00
2A00
1200
0200
0200
ENDCHAR
STARTCHAR uni0924
ENCODING 2340
SWIDTH 500 0
DWIDTH 8 0
BBX 9 9 -1 -2
BITMAP
FF80
0200
3E00
4200
4200
4200
2200
1200
0A00
ENDCHAR
STARTCHAR uni0925
ENCODING 2341
SWIDTH 500 0
DWIDTH 8 0
BBX 8 9 0 -2
BITMAP
4F
A4
24
44
84
4C
34
04
04
ENDCHAR
STARTCHAR uni0926
ENCODING 2342
SWIDTH 500 0
DWIDTH 8 0
BBX 9 9 -1 -2
BITMAP
FF80
0400
0400
1C00
2000
2000
2600
2600
1D00
ENDCHAR
STARTCHAR uni0927
ENCODING 2343
SWIDTH 500 0
DWIDTH 8 0
BBX 8 9 0 -2
BITMAP
4F
A4
44
34
44
84
8C
74
04
ENDCHAR
STARTCHAR uni0928
ENCODING 2344
SWIDTH 500 0
DWIDTH 8 0
BBX 9 9 -1 -2
BITMAP
FF80
0200
7E00
6200
2200
0200
0200
0200
0200
ENDCHAR
STARTCHAR uni0929
ENCODING 2345
SWIDTH 500 0
DWIDTH 8 0
BBX 9 9 -1 -2
BITMAP
FF80
0200
7E00
6200
2200
0200
1200
3A00
1200
ENDCHAR
STARTCHAR uni092A
ENCODING 2346
SWIDTH 500 0
DWIDTH 8 0
BBX 9 9 -1 -2
BITMAP
FF80
2200
2200
2200
2200
2600
1A00
0200
0200
ENDCHAR
STARTCHAR uni092B
ENCODING 2347
SWIDTH 500 0
DWIDTH 8 0
BBX 9 9 -1 -2
BITMAP
FF80
4800
4800
4A00
4D00
5900
2900
0A00
0800
ENDCHAR
STARTCHAR uni092C
ENCODING 2348
SWIDTH 500 0
DWIDTH 8 0
BBX 9 9 -1 -2
BITMAP
FF80
0200
3A00
6600
5200
4E00
3A00
0200
0200
ENDCHAR
STARTCHAR uni092D
ENCODING 2349
SWIDTH 500 0
DWIDTH 8 0
BBX 8 9 0 -2
BITMAP
4F
A4
A4
64
24
FC
64
04
04
ENDCHAR
STARTCHAR uni092E
ENCODING 2350
SWIDTH 500 0
DWIDTH 8 0
BBX 9 9 -1 -2
BITMAP
FF80
1200
1200
1200
1200
7E00
3200
0200
0200
ENDCHAR
STARTCHAR uni092F
ENCODING 2351
SWIDTH 500 0
DWIDTH 8 0
BBX 9 9 -1 -2
BITMAP
FF80
2200
1200
1200
6200
4600
3A00
0200
0200
ENDCHAR
STARTCHAR uni0930
ENCODING 2352
SWIDTH 500 0
DWIDTH 8 0
BBX 9 9 -1 -2
BITMAP
FF80
1000
0800
3800
3000
1000
0800
0400
0200
ENDCHAR
STARTCHAR uni0931
ENCODING 2353
SWIDTH 500 0
DWIDTH 8 0
BBX 9 9 -1 -2
BITMAP
FF80
0800
0400
1C00
1800
0800
2400
7200
2100
ENDCHAR
STARTCHAR uni0932
ENCODING 2354
SWIDTH 500 0
DWIDTH 8 0
BBX 9 9 -1 -2
BITMAP
FF80
0200
3600
4A00
5200
4200
2200
1200
0200
ENDCHAR
STARTCHAR uni0933
ENCODING 2355
SWIDTH 500 0
DWIDTH 8 0
BBX 9 7 -1 0
BITMAP
FF80
0400
2600
4900
4900
4900
3600
ENDCHAR
STARTCHAR uni0934
ENCODING 2356
SWIDTH 500 0
DWIDTH 8 0
BBX 9 9 -1 -2
BITMAP
FF80
0400
2600
4900
4900
3600
2000
7000
2000
ENDCHAR
STARTCHAR uni0935
ENCODING 2357
SWIDTH 500 0
DWIDTH 8 0
BBX 9 9 -1 -2
BITMAP
FF80
0200
3A00
4600
4200
4600
3A00
0200
0200
ENDCHAR
STARTCHAR uni0936
ENCODING 2358
SWIDTH 500 0
DWIDTH 8 0
BBX 8 9 0 -2
BITMAP
6F
94
94
74
14
54
E4
24
14
ENDCHAR
STARTCHAR uni0937
ENCODING 2359
SWIDTH 500 0
DWIDTH 8 0
BBX 9 9 -1 -2
BITMAP
FF80
3200
2A00
2A00
2600
2600
1A00
0200
0200
ENDCHAR
STARTCHAR uni0938
ENCODING 2360
SWIDTH 500 0
DWIDTH 8 0
BBX 9 9 -1 -2
BITMAP
FF80
1200
1200
1200
7E00
3200
2200
1200
0A00
ENDCHAR
STARTCHAR uni0939
ENCODING 2361
SWIDTH 500 0
DWIDTH 8 0
BBX 9 9 -1 -2
BITMAP
FF80
0200
1E00
2000
1C00
2200
2400
1000
0E00
ENDCHAR
STARTCHAR uni093C
ENCODING 2364
SWIDTH 500 0
DWIDTH 8 0
BBX 3 3 2 -2
BITMAP
40
E0
40
ENDCHAR
STARTCHAR uni093D
ENCODING 2365
SWIDTH 500 0
DWIDTH 8 0
BBX 6 7 2 0
BITMAP
7C
80
40
20
10
90
60
ENDCHAR
STARTCHAR uni093E
ENCODING 2366
SWIDTH 500 0
DWIDTH 8 0
BBX 9 9 -1 -2
BITMAP
FF80
0800
0800
0800
0800
0800
0800
0800
0800
ENDCHAR
STARTCHAR uni093F
ENCODING 2367
SWIDTH 500 0
DWIDTH 8 0
BBX 14 12 -1 -2
BITMAP
0FC0
1038
0804
FF80
0800
0800
0800
0800
0800
0800
0800
0800
ENDCHAR
STARTCHAR uni0940
ENCODING 2368
SWIDTH 500 0
DWIDTH 8 0
BBX 12 12 -4 -2
BITMAP
7800
8600
4100
1FF0
0100
0100
0100
0100
0100
0100
0100
0100
ENDCHAR
STARTCHAR uni0941
ENCODING 2369
SWIDTH 500 0
DWIDTH 8 0
BBX 6 3 0 -2
BITMAP
98
44
38
ENDCHAR
STARTCHAR uni0942
ENCODING 2370
SWIDTH 500 0
DWIDTH 8 0
BBX 6 3 1 -2
BITMAP
70
88
64
ENDCHAR
STARTCHAR uni0943
ENCODING 2371
SWIDTH 500 0
DWIDTH 8 0
BBX 3 3 2 -2
BITMAP
60
80
60
ENDCHAR
STARTCHAR uni0944
ENCODING 2372
SWIDTH 500 0
DWIDTH 8 0
BBX 3 5 2 -2
BITMAP
60
80
60
80
60
ENDCHAR
STARTCHAR uni0945
ENCODING 2373
SWIDTH 500 0
DWIDTH 8 0
BBX 5 2 1 8
BITMAP
88
78
ENDCHAR
STARTCHAR uni0946
ENCODING 2374
SWIDTH 500 0
DWIDTH 8 0
BBX 5 3 1 7
BITMAP
80
70
08
ENDCHAR
STARTCHAR uni0947
ENCODING 2375
SWIDTH 500 0
DWIDTH 8 0
BBX 5 3 1 7
BITMAP
E0
10
08
ENDCHAR
STARTCHAR uni0948
ENCODING 2376
SWIDTH 500 0
DWIDTH 8 0
BBX 5 3 1 7
BITMAP
10
C8
38
ENDCHAR
STARTCHAR uni0949
ENCODING 2377
SWIDTH 500 0
DWIDTH 8 0
BBX 9 12 -1 -2
BITMAP
2200
1E00
0000
FF80
0800
0800
0800
0800
0800
0800
0800
0800
ENDCHAR
STARTCHAR uni094A
ENCODING 2378
SWIDTH 500 0
DWIDTH 8 0
BBX 9 12 -1 -2
BITMAP
8000
7000
0800
FF80
0800
0800
0800
0800
0800
0800
0800
0800
ENDCHAR
STARTCHAR uni094B
ENCODING 2379
SWIDTH 500 0
DWIDTH 8 0
BBX 9 12 -1 -2
BITMAP
E000
1000
0800
FF80
0800
0800
0800
0800
0800
0800
0800
0800
ENDCHAR
STARTCHAR uni094C
ENCODING 2380
SWIDTH 500 0
DWIDTH 8 0
BBX 9 12 -1 -2
BITMAP
1000
C800
3800
FF80
0800
0800
0800
0800
0800
0800
0800
0800
ENDCHAR
STARTCHAR uni094D
ENCODING 2381
SWIDTH 500 0
DWIDTH 8 0
BBX 5 3 1 -2
BITMAP
E0
10
08
ENDCHAR
STARTCHAR uni0950
ENCODING 2384
SWIDTH 500 0
DWIDTH 8 0
BBX 7 10 0 0
BITMAP
10
44
3C
00
C4
2A
4A
32
AA
44
ENDCHAR
STARTCHAR uni0951
ENCODING 2385
SWIDTH 500 0
DWIDTH 8 0
BBX 1 3 3 6
BITMAP
80
80
80
ENDCHAR
STARTCHAR uni0952
ENCODING 2386
SWIDTH 500 0
DWIDTH 8 0
BBX 9 1 -1 -2
BITMAP
FF80
ENDCHAR
STARTCHAR uni0953
ENCODING 2387
SWIDTH 500 0
DWIDTH 8 0
BBX 3 3 2 6
BITMAP
80
40
20
ENDCHAR
STARTCHAR uni0954
ENCODING 2388
SWIDTH 500 0
DWIDTH 8 0
BBX 3 3 2 6
BITMAP
20
40
80
ENDCHAR
STARTCHAR uni0958
ENCODING 2392
SWIDTH 500 0
DWIDTH 8 0
BBX 9 9 -1 -2
BITMAP
FF80
0800
3800
4E00
3900
0900
2A00
7800
2800
ENDCHAR
STARTCHAR uni0959
ENCODING 2393
SWIDTH 500 0
DWIDTH 8 0
BBX 9 9 -1 -2
BITMAP
FF80
2100
2700
6900
2700
1900
2700
7100
2100
ENDCHAR
STARTCHAR uni095A
ENCODING 2394
SWIDTH 500 0
DWIDTH 8 0
BBX 9 9 -1 -2
BITMAP
FF80
2200
2200
6200
2200
0200
2200
7200
2200
ENDCHAR
STARTCHAR uni095B
ENCODING 2395
SWIDTH 500 0
DWIDTH 8 0
BBX 9 9 -1 -2
BITMAP
FF80
0200
5E00
4A00
2A00
1200
2200
7200
2200
ENDCHAR
STARTCHAR uni095C
ENCODING 2396
SWIDTH 500 0
DWIDTH 8 0
BBX 9 9 -1 -2
BITMAP
FF80
0400
1C00
2000
1C00
4200
2C00
7000
2000
ENDCHAR
STARTCHAR uni095D
ENCODING 2397
SWIDTH 500 0
DWIDTH 8 0
BBX 9 9 -1 -2
BITMAP
FF80
0400
1C00
2400
2A00
1C00
2000
7000
2000
ENDCHAR
STARTCHAR uni095E
ENCODING 2398
SWIDTH 500 0
DWIDTH 8 0
BBX 9 9 -1 -2
BITMAP
FF80
4800
4A00
5D00
2900
0900
2A00
7800
2800
ENDCHAR
STARTCHAR uni095F
ENCODING 2399
SWIDTH 500 0
DWIDTH 8 0
BBX 9 9 -1 -2
BITMAP
FF80
2200
1200
6200
4600
3A00
2200
7200
2200
ENDCHAR
STARTCHAR uni0960
ENCODING 2400
SWIDTH 500 0
DWIDTH 8 0
BBX 9 9 -1 -2
BITMAP
FF80
0800
2A00
5E00
1900
2A00
4900
0A00
0900
ENDCHAR
STARTCHAR uni0961
ENCODING 2401
SWIDTH 500 0
DWIDTH 8 0
BBX 9 9 -1 -2
BITMAP
FF80
0400
3600
4900
5300
4400
2300
1400
0300
ENDCHAR
STARTCHAR uni0962
ENCODING 2402
SWIDTH 500 0
DWIDTH 8 0
BBX 7 4 0 -2
BITMAP
58
A4
88
46
ENDCHAR
STARTCHAR uni0963
ENCODING 2403
SWIDTH 500 0
DWIDTH 8 0
BBX 7 5 0 -2
BITMAP
06
58
A4
88
46
ENDCHAR
STARTCHAR uni0964
ENCODING 2404
SWIDTH 500 0
DWIDTH 8 0
BBX 1 7 3 0
BITMAP
80
80
80
80
80
80
80
ENDCHAR
STARTCHAR uni0965
ENCODING 2405
SWIDTH 500 0
DWIDTH 8 0
BBX 3 7 2 0
BITMAP
A0
A0
A0
A0
A0
A0
A0
ENDCHAR
STARTCHAR uni0966
ENCODING 2406
SWIDTH 500 0
DWIDTH 8 0
BBX 5 5 1 1
BITMAP
70
88
88
88
70
ENDCHAR
STARTCHAR uni0967
ENCODING 2407
SWIDTH 500 0
DWIDTH 8 0
BBX 3 10 2 -2
BITMAP
40
A0
A0
60
40
80
40
40
20
60
ENDCHAR
STARTCHAR uni0968
ENCODING 2408
SWIDTH 500 0
DWIDTH 8 0
BBX 5 9 1 -2
BITMAP
70
88
08
68
70
10
10
08
08
ENDCHAR
STARTCHAR uni0969
ENCODING 2409
SWIDTH 500 0
DWIDTH 8 0
BBX 5 9 1 -2
BITMAP
70
88
30
08
C8
F0
20
10
10
ENDCHAR
STARTCHAR uni096A
ENCODING 2410
SWIDTH 500 0
DWIDTH 8 0
BBX 7 7 0 0
BITMAP
82
44
28
10
28
28
10
ENDCHAR
STARTCHAR uni096B
ENCODING 2411
SWIDTH 500 0
DWIDTH 8 0
BBX 5 9 1 -2
BITMAP
80
98
98
70
10
10
08
08
08
ENDCHAR
STARTCHAR uni096C
ENCODING 2412
SWIDTH 500 0
DWIDTH 8 0
BBX 5 9 1 -2
BITMAP
70
88
60
80
98
78
10
08
08
ENDCHAR
STARTCHAR uni096D
ENCODING 2413
SWIDTH 500 0
DWIDTH 8 0
BBX 5 6 1 0
BITMAP
90
A8
A8
98
48
30
ENDCHAR
STARTCHAR uni096E
ENCODING 2414
SWIDTH 500 0
DWIDTH 8 0
BBX 5 7 1 0
BITMAP
08
10
20
40
88
88
70
ENDCHAR
STARTCHAR uni096F
ENCODING 2415
SWIDTH 500 0
DWIDTH 8 0
BBX 5 9 1 -2
BITMAP
60
90
90
60
40
20
10
08
18
ENDCHAR
STARTCHAR uni0970
ENCODING 2416
SWIDTH 500 0
DWIDTH 8 0
BBX 3 3 2 2
BITMAP
40
A0
40
ENDCHAR
STARTCHAR uni097B
ENCODING 2427
SWIDTH 500 0
DWIDTH 8 0
BBX 9 9 -1 -2
BITMAP
FF80
2200
2200
6200
2200
0200
0200
0200
3E00
ENDCHAR
STARTCHAR uni097C
ENCODING 2428
SWIDTH 500 0
DWIDTH 8 0
BBX 9 9 -1 -2
BITMAP
FF80
0200
5E00
4A00
2A00
1200
0200
0200
3E00
ENDCHAR
STARTCHAR uni097D
ENCODING 2429
SWIDTH 500 0
DWIDTH 8 0
BBX 7 9 0 -2
BITMAP
7C
82
02
02
1C
10
10
10
10
ENDCHAR
STARTCHAR uni097E
ENCODING 2430
SWIDTH 500 0
DWIDTH 8 0
BBX 9 9 -1 -2
BITMAP
FF80
0400
1C00
2000
1C00
4200
3C00
0000
3E00
ENDCHAR
STARTCHAR uni097F
ENCODING 2431
SWIDTH 500 0
DWIDTH 8 0
BBX 9 9 -1 -2
BITMAP
FF80
0200
3A00
6600
5200
4E00
3A00
0200
3E00
ENDCHAR
STARTCHAR uni0981
ENCODING 2433
SWIDTH 500 0
DWIDTH 8 0
BBX 5 3 1 7
BITMAP
20
88
70
ENDCHAR
STARTCHAR uni0982
ENCODING 2434
SWIDTH 500 0
DWIDTH 8 0
BBX 3 7 2 0
BITMAP
40
A0
40
00
80
40
20
ENDCHAR
STARTCHAR uni0983
ENCODING 2435
SWIDTH 500 0
DWIDTH 8 0
BBX 3 7 2 0
BITMAP
40
A0
40
00
40
A0
40
ENDCHAR
STARTCHAR uni09E6
ENCODING 2534
SWIDTH 500 0
DWIDTH 8 0
BBX 7 7 0 0
BITMAP
38
44
82
82
82
44
38
ENDCHAR
STARTCHAR uni09E7
ENCODING 2535
SWIDTH 500 0
DWIDTH 8 0
BBX 5 7 1 0
BITMAP
40
20
10
C8
C8
88
70
ENDCHAR
STARTCHAR uni09E8
ENCODING 2536
SWIDTH 500 0
DWIDTH 8 0
BBX 6 8 1 -1
BITMAP
F0
08
08
10
E0
10
08
04
ENDCHAR
STARTCHAR uni09E9
ENCODING 2537
SWIDTH 500 0
DWIDTH 8 0
BBX 7 7 0 0
BITMAP
8C
92
5A
5A
42
24
18
ENDCHAR
STARTCHAR uni09EA
ENCODING 2538
SWIDTH 500 0
DWIDTH 8 0
BBX 5 7 1 0
BITMAP
70
88
88
70
88
88
70
ENDCHAR
STARTCHAR uni09EB
ENCODING 2539
SWIDTH 500 0
DWIDTH 8 0
BBX 7 7 0 0
BITMAP
30
4C
90
90
8E
44
38
ENDCHAR
STARTCHAR uni09EC
ENCODING 2540
SWIDTH 500 0
DWIDTH 8 0
BBX 7 7 0 0
BITMAP
10
92
96
4A
42
24
18
ENDCHAR
STARTCHAR uni09ED
ENCODING 2541
SWIDTH 500 0
DWIDTH 8 0
BBX 5 7 1 0
BITMAP
70
88
88
88
78
08
08
ENDCHAR
STARTCHAR uni09EE
ENCODING 2542
SWIDTH 500 0
DWIDTH 8 0
BBX 6 7 1 0
BITMAP
80
80
BC
C8
88
90
E0
ENDCHAR
STARTCHAR uni09EF
ENCODING 2543
SWIDTH 500 0
DWIDTH 8 0
BBX 7 7 0 0
BITMAP
40
38
04
72
8A
EA
6C
ENDCHAR
STARTCHAR uni0A02
ENCODING 2562
SWIDTH 500 0
DWIDTH 8 0
BBX 1 1 5 8
BITMAP
80
ENDCHAR
STARTCHAR uni0A05
ENCODING 2565
SWIDTH 500 0
DWIDTH 8 0
BBX 8 7 0 0
BITMAP
87
54
74
54
1C
14
04
ENDCHAR
STARTCHAR uni0A06
ENCODING 2566
SWIDTH 500 0
DWIDTH 8 0
BBX 8 7 0 0
BITMAP
8F
AA
EA
AA
38
28
08
ENDCHAR
STARTCHAR uni0A07
ENCODING 2567
SWIDTH 500 0
DWIDTH 8 0
BBX 9 10 -1 0
BITMAP
3000
4800
4800
FF80
5100
5100
4F00
5000
5100
4E00
ENDCHAR
STARTCHAR uni0A08
ENCODING 2568
SWIDTH 500 0
DWIDTH 8 0
BBX 9 10 -1 0
BITMAP
0600
0900
0900
FF80
4500
4500
3D00
4100
4500
3900
ENDCHAR
STARTCHAR uni0A09
ENCODING 2569
SWIDTH 500 0
DWIDTH 8 0
BBX 9 12 -1 -2
BITMAP
1C00
2200
2200
FF80
2200
2200
3C00
1200
1200
0C00
0000
1C00
ENDCHAR
STARTCHAR uni0A0A
ENCODING 2570
SWIDTH 500 0
DWIDTH 8 0
BBX 9 12 -1 -2
BITMAP
1C00
2200
2200
FF80
2200
3C00
1200
0C00
0000
1C00
0000
1C00
ENDCHAR
STARTCHAR uni0A0F
ENCODING 2575
SWIDTH 500 0
DWIDTH 8 0
BBX 9 10 -1 0
BITMAP
3800
0400
0200
FF80
2200
2200
1E00
2000
2200
1C00
ENDCHAR
STARTCHAR uni0A10
ENCODING 2576
SWIDTH 500 0
DWIDTH 8 0
BBX 8 10 0 0
BITMAP
08
64
1C
87
54
74
54
1C
14
04
ENDCHAR
STARTCHAR uni0A13
ENCODING 2579
SWIDTH 500 0
DWIDTH 8 0
BBX 9 10 -1 0
BITMAP
0E00
1000
2000
FF80
2200
2200
3C00
1200
1200
0C00
ENDCHAR
STARTCHAR uni0A14
ENCODING 2580
SWIDTH 500 0
DWIDTH 8 0
BBX 8 10 0 0
BITMAP
3C
0A
00
87
54
74
54
1C
14
04
ENDCHAR
STARTCHAR uni0A15
ENCODING 2581
SWIDTH 500 0
DWIDTH 8 0
BBX 9 7 -1 0
BITMAP
FF80
0200
1A00
2400
2400
1A00
0200
ENDCHAR
STARTCHAR uni0A16
ENCODING 2582
SWIDTH 500 0
DWIDTH 8 0
BBX 9 7 -1 0
BITMAP
E380
2200
3E00
2200
4600
3A00
0200
ENDCHAR
STARTCHAR uni0A17
ENCODING 2583
SWIDTH 500 0
DWIDTH 8 0
BBX 9 7 -1 0
BITMAP
FF80
0A00
3A00
4A00
4A00
4A00
3200
ENDCHAR
STARTCHAR uni0A18
ENCODING 2584
SWIDTH 500 0
DWIDTH 8 0
BBX 9 7 -1 0
BITMAP
EB80
2A00
2A00
2A00
4A00
3600
0200
ENDCHAR
STARTCHAR uni0A19
ENCODING 2585
SWIDTH 500 0
DWIDTH 8 0
BBX 9 7 -1 0
BITMAP
FF80
2000
3C00
0200
1A00
2400
1A00
ENDCHAR
STARTCHAR uni0A1A
ENCODING 2586
SWIDTH 500 0
DWIDTH 8 0
BBX 9 7 -1 0
BITMAP
FF80
0200
6200
7E00
2200
1200
0C00
ENDCHAR
STARTCHAR uni0A1B
ENCODING 2587
SWIDTH 500 0
DWIDTH 8 0
BBX 9 7 -1 0
BITMAP
FF80
0200
1E00
2000
1C00
2A00
1C00
ENDCHAR
STARTCHAR uni0A1C
ENCODING 2588
SWIDTH 500 0
DWIDTH 8 0
BBX 9 7 -1 0
BITMAP
FF80
0200
6200
7E00
2200
2200
2200
ENDCHAR
STARTCHAR uni0A1D
ENCODING 2589
SWIDTH 500 0
DWIDTH 8 0
BBX 9 8 -1 -1
BITMAP
FF80
2200
1C00
2200
0200
3C00
0800
0400
ENDCHAR
STARTCHAR uni0A1E
ENCODING 2590
SWIDTH 500 0
DWIDTH 8 0
BBX 9 8 -1 -1
BITMAP
FF80
2200
1E00
2000
2000
1E00
0800
0400
ENDCHAR
STARTCHAR uni0A1F
ENCODING 2591
SWIDTH 500 0
DWIDTH 8 0
BBX 9 7 -1 0
BITMAP
FF80
0200
0E00
1000
2000
1200
0C00
ENDCHAR
STARTCHAR uni0A20
ENCODING 2592
SWIDTH 500 0
DWIDTH 8 0
BBX 9 7 -1 0
BITMAP
FF80
0800
1C00
2200
2200
2200
1C00
ENDCHAR
STARTCHAR uni0A21
ENCODING 2593
SWIDTH 500 0
DWIDTH 8 0
BBX 9 7 -1 0
BITMAP
FF80
0200
1C00
0200
1200
2A00
1C00
ENDCHAR
STARTCHAR uni0A22
ENCODING 2594
SWIDTH 500 0
DWIDTH 8 0
BBX 9 8 -1 -1
BITMAP
FF80
0200
6200
7E00
2000
2400
2A00
1C00
ENDCHAR
STARTCHAR uni0A23
ENCODING 2595
SWIDTH 500 0
DWIDTH 8 0
BBX 9 7 -1 0
BITMAP
FF80
0800
0600
3D00
4000
2200
1C00
ENDCHAR
STARTCHAR uni0A24
ENCODING 2596
SWIDTH 500 0
DWIDTH 8 0
BBX 9 7 -1 0
BITMAP
FF80
0200
0200
1C00
0200
2200
1C00
ENDCHAR
STARTCHAR uni0A25
ENCODING 2597
SWIDTH 500 0
DWIDTH 8 0
BBX 9 7 -1 0
BITMAP
FF80
2200
3E00
2200
4600
3A00
0200
ENDCHAR
STARTCHAR uni0A26
ENCODING 2598
SWIDTH 500 0
DWIDTH 8 0
BBX 9 7 -1 0
BITMAP
FF80
0200
6200
7E00
2000
2200
1C00
ENDCHAR
STARTCHAR uni0A27
ENCODING 2599
SWIDTH 500 0
DWIDTH 8 0
BBX 9 7 -1 0
BITMAP
FF80
2200
2200
2200
4600
3A00
0200
ENDCHAR
STARTCHAR uni0A28
ENCODING 2600
SWIDTH 500 0
DWIDTH 8 0
BBX 9 7 -1 0
BITMAP
FF80
0800
1C00
2200
2200
2200
1400
ENDCHAR
STARTCHAR uni0A2A
ENCODING 2602
SWIDTH 500 0
DWIDTH 8 0
BBX 9 7 -1 0
BITMAP
E380
2200
2200
2200
4600
3A00
0200
ENDCHAR
STARTCHAR uni0A2B
ENCODING 2603
SWIDTH 500 0
DWIDTH 8 0
BBX 9 7 -1 0
BITMAP
FF80
0200
1E00
2000
2400
2A00
1C00
ENDCHAR
STARTCHAR uni0A2C
ENCODING 2604
SWIDTH 500 0
DWIDTH 8 0
BBX 9 7 -1 0
BITMAP
FF80
2200
1E00
2200
4600
3A00
0200
ENDCHAR
STARTCHAR uni0A2D
ENCODING 2605
SWIDTH 500 0
DWIDTH 8 0
BBX 9 7 -1 0
BITMAP
FF80
0200
1A00
2400
1A00
0200
1C00
ENDCHAR
STARTCHAR uni0A2E
ENCODING 2606
SWIDTH 500 0
DWIDTH 8 0
BBX 9 7 -1 0
BITMAP
E380
2200
2200
3E00
6200
6200
0200
ENDCHAR
STARTCHAR uni0A2F
ENCODING 2607
SWIDTH 500 0
DWIDTH 8 0
BBX 9 7 -1 0
BITMAP
FF80
2200
2200
2E00
4A00
3A00
0200
ENDCHAR
STARTCHAR uni0A30
ENCODING 2608
SWIDTH 500 0
DWIDTH 8 0
BBX 9 7 -1 0
BITMAP
FF80
0200
1E00
2200
2200
2200
1C00
ENDCHAR
STARTCHAR uni0A32
ENCODING 2610
SWIDTH 500 0
DWIDTH 8 0
BBX 9 7 -1 0
BITMAP
FF80
2200
2200
5500
4900
4100
2200
ENDCHAR
STARTCHAR uni0A33
ENCODING 2611
SWIDTH 500 0
DWIDTH 8 0
BBX 9 9 -1 -2
BITMAP
FF80
2200
2200
5500
4900
4100
2200
0000
4000
ENDCHAR
STARTCHAR uni0A35
ENCODING 2613
SWIDTH 500 0
DWIDTH 8 0
BBX 9 7 -1 0
BITMAP
FF80
0200
1E00
2000
1E00
0800
0600
ENDCHAR
STARTCHAR uni0A36
ENCODING 2614
SWIDTH 500 0
DWIDTH 8 0
BBX 9 7 -1 0
BITMAP
FF80
2200
2200
3E00
6200
6A00
0200
ENDCHAR
STARTCHAR uni0A38
ENCODING 2616
SWIDTH 500 0
DWIDTH 8 0
BBX 9 7 -1 0
BITMAP
FF80
2200
2200
3E00
6200
6200
0200
ENDCHAR
STARTCHAR uni0A39
ENCODING 2617
SWIDTH 500 0
DWIDTH 8 0
BBX 9 7 -1 0
BITMAP
FF80
0200
0200
1A00
2200
2200
1C00
ENDCHAR
STARTCHAR uni0A3C
ENCODING 2620
SWIDTH 500 0
DWIDTH 8 0
BBX 1 1 5 -2
BITMAP
80
ENDCHAR
STARTCHAR uni0A3E
ENCODING 2622
SWIDTH 500 0
DWIDTH 8 0
BBX 9 7 -1 0
BITMAP
FF80
0800
0800
0800
0800
0800
0800
ENDCHAR
STARTCHAR uni0A3F
ENCODING 2623
SWIDTH 500 0
DWIDTH 8 0
BBX 11 10 -1 0
BITMAP
07C0
0820
0820
FF80
0800
0800
0800
0800
0800
0800
ENDCHAR
STARTCHAR uni0A40
ENCODING 2624
SWIDTH 500 0
DWIDTH 8 0
BBX 11 10 -3 0
BITMAP
7C00
8200
8200
3FE0
0200
0200
0200
0200
0200
0200
ENDCHAR
STARTCHAR uni0A41
ENCODING 2625
SWIDTH 500 0
DWIDTH 8 0
BBX 3 1 2 -2
BITMAP
E0
ENDCHAR
STARTCHAR uni0A42
ENCODING 2626
SWIDTH 500 0
DWIDTH 8 0
BBX 3 3 2 -2
BITMAP
E0
00
E0
ENDCHAR
STARTCHAR uni0A47
ENCODING 2631
SWIDTH 500 0
DWIDTH 8 0
BBX 5 3 1 7
BITMAP
E0
10
08
ENDCHAR
STARTCHAR uni0A48
ENCODING 2632
SWIDTH 500 0
DWIDTH 8 0
BBX 5 3 1 7
BITMAP
10
C8
38
ENDCHAR
STARTCHAR uni0A4B
ENCODING 2635
SWIDTH 500 0
DWIDTH 8 0
BBX 5 3 1 7
BITMAP
80
70
08
ENDCHAR
STARTCHAR uni0A4C
ENCODING 2636
SWIDTH 500 0
DWIDTH 8 0
BBX 5 2 1 8
BITMAP
F0
28
ENDCHAR
STARTCHAR uni0A4D
ENCODING 2637
SWIDTH 500 0
DWIDTH 8 0
BBX 3 2 3 -2
BITMAP
C0
20
ENDCHAR
STARTCHAR uni0A59
ENCODING 2649
SWIDTH 500 0
DWIDTH 8 0
BBX 9 8 -1 -1
BITMAP
E380
2200
3E00
2200
4600
3A00
0200
4000
ENDCHAR
STARTCHAR uni0A5A
ENCODING 2650
SWIDTH 500 0
DWIDTH 8 0
BBX 9 9 -1 -2
BITMAP
FF80
0A00
3A00
4A00
4A00
4A00
3200
0000
4000
ENDCHAR
STARTCHAR uni0A5B
ENCODING 2651
SWIDTH 500 0
DWIDTH 8 0
BBX 9 7 -1 0
BITMAP
FF80
0200
6200
7E00
2200
2A00
2200
ENDCHAR
STARTCHAR uni0A5C
ENCODING 2652
SWIDTH 500 0
DWIDTH 8 0
BBX 9 7 -1 0
BITMAP
FF80
0200
1C00
0200
3C00
2400
1200
ENDCHAR
STARTCHAR uni0A5E
ENCODING 2654
SWIDTH 500 0
DWIDTH 8 0
BBX 9 9 -1 -2
BITMAP
FF80
0200
1E00
2000
2400
2A00
1C00
0000
2000
ENDCHAR
STARTCHAR uni0A66
ENCODING 2662
SWIDTH 500 0
DWIDTH 8 0
BBX 7 7 0 0
BITMAP
38
44
82
82
82
44
38
ENDCHAR
STARTCHAR uni0A67
ENCODING 2663
SWIDTH 500 0
DWIDTH 8 0
BBX 5 7 1 0
BITMAP
70
88
88
78
08
08
08
ENDCHAR
STARTCHAR uni0A68
ENCODING 2664
SWIDTH 500 0
DWIDTH 8 0
BBX 6 7 1 0
BITMAP
70
88
08
08
70
08
04
ENDCHAR
STARTCHAR uni0A69
ENCODING 2665
SWIDTH 500 0
DWIDTH 8 0
BBX 6 7 1 0
BITMAP
70
88
30
08
70
08
04
ENDCHAR
STARTCHAR uni0A6A
ENCODING 2666
SWIDTH 500 0
DWIDTH 8 0
BBX 5 7 1 0
BITMAP
50
88
88
70
88
88
70
ENDCHAR
STARTCHAR uni0A6B
ENCODING 2667
SWIDTH 500 0
DWIDTH 8 0
BBX 5 7 1 0
BITMAP
88
48
48
48
98
68
08
ENDCHAR
STARTCHAR uni0A6C
ENCODING 2668
SWIDTH 500 0
DWIDTH 8 0
BBX 5 8 1 0
BITMAP
08
10
78
98
80
70
80
78
ENDCHAR
STARTCHAR uni0A6D
ENCODING 2669
SWIDTH 500 0
DWIDTH 8 0
BBX 5 7 1 0
BITMAP
70
88
88
08
08
10
E0
ENDCHAR
STARTCHAR uni0A6E
ENCODING 2670
SWIDTH 500 0
DWIDTH 8 0
BBX 6 7 0 0
BITMAP
C0
FC
40
40
40
20
1C
ENDCHAR
STARTCHAR uni0A6F
ENCODING 2671
SWIDTH 500 0
DWIDTH 8 0
BBX 6 9 0 0
BITMAP
0C
10
C8
FC
40
40
40
20
1C
ENDCHAR
STARTCHAR uni0A70
ENCODING 2672
SWIDTH 500 0
DWIDTH 8 0
BBX 3 2 2 8
BITMAP
40
A0
ENDCHAR
STARTCHAR uni0A71
ENCODING 2673
SWIDTH 500 0
DWIDTH 8 0
BBX 5 2 1 8
BITMAP
88
70
ENDCHAR
STARTCHAR uni0A72
ENCODING 2674
SWIDTH 500 0
DWIDTH 8 0
BBX 9 7 -1 0
BITMAP
FF80
2200
2200
1E00
2000
2200
1C00
ENDCHAR
STARTCHAR uni0A73
ENCODING 2675
SWIDTH 500 0
DWIDTH 8 0
BBX 9 10 -1 0
BITMAP
1C00
2200
2200
FF80
2200
2200
3C00
1200
1200
0C00
ENDCHAR
STARTCHAR uni0A74
ENCODING 2676
SWIDTH 500 0
DWIDTH 8 0
BBX 7 9 0 0
BITMAP
02
04
CC
D2
54
92
A2
A2
9C
ENDCHAR
STARTCHAR uni0B82
ENCODING 2946
SWIDTH 500 0
DWIDTH 8 0
BBX 7 9 0 0
BITMAP
10
28
10
44
00
82
00
44
10
ENDCHAR
STARTCHAR uni0B83
ENCODING 2947
SWIDTH 500 0
DWIDTH 8 0
BBX 7 7 0 0
BITMAP
10
28
10
00
44
AA
44
ENDCHAR
STARTCHAR uni0B85
ENCODING 2949
SWIDTH 500 0
DWIDTH 8 0
BBX 7 9 0 -2
BITMAP
72
6A
0A
FE
8A
92
62
02
02
ENDCHAR
STARTCHAR uni0B86
ENCODING 2950
SWIDTH 500 0
DWIDTH 8 0
BBX 7 9 0 -2
BITMAP
E4
D4
14
FC
94
A4
46
12
0C
ENDCHAR
STARTCHAR uni0B87
ENCODING 2951
SWIDTH 500 0
DWIDTH 8 0
BBX 7 12 0 -2
BITMAP
38
44
82
B2
BA
8A
8A
AA
52
AA
AA
52
ENDCHAR
STARTCHAR uni0B88
ENCODING 2952
SWIDTH 500 0
DWIDTH 8 0
BBX 7 7 0 0
BITMAP
FE
88
88
AA
88
88
88
ENDCHAR
STARTCHAR uni0B89
ENCODING 2953
SWIDTH 500 0
DWIDTH 8 0
BBX 7 7 0 0
BITMAP
60
D0
D0
10
60
80
7E
ENDCHAR
STARTCHAR uni0B8A
ENCODING 2954
SWIDTH 500 0
DWIDTH 8 0
BBX 7 7 0 0
BITMAP
56
AA
AA
2A
4A
80
7E
ENDCHAR
STARTCHAR uni0B8E
ENCODING 2958
SWIDTH 500 0
DWIDTH 8 0
BBX 7 7 0 0
BITMAP
7E
88
88
88
88
E8
68
ENDCHAR
STARTCHAR uni0B8F
ENCODING 2959
SWIDTH 500 0
DWIDTH 8 0
BBX 7 9 0 -2
BITMAP
7E
88
88
88
88
E8
68
08
10
ENDCHAR
STARTCHAR uni0B90
ENCODING 2960
SWIDTH 500 0
DWIDTH 8 0
BBX 7 9 0 -2
BITMAP
6C
D2
D2
02
7C
80
92
92
6C
ENDCHAR
STARTCHAR uni0B92
ENCODING 2962
SWIDTH 500 0
DWIDTH 8 0
BBX 7 9 0 -2
BITMAP
7C
C2
D2
1C
10
4E
88
90
60
ENDCHAR
STARTCHAR uni0B93
ENCODING 2963
SWIDTH 500 0
DWIDTH 8 0
BBX 7 9 0 -2
BITMAP
7C
C2
D2
1C
10
0E
C8
D0
60
ENDCHAR
STARTCHAR uni0B94
ENCODING 2964
SWIDTH 500 0
DWIDTH 8 0
BBX 7 9 0 -2
BITMAP
D6
AA
2A
6A
4A
2A
AA
A0
40
ENDCHAR
STARTCHAR uni0B95
ENCODING 2965
SWIDTH 500 0
DWIDTH 8 0
BBX 7 7 0 0
BITMAP
3E
28
28
7C
8A
8A
72
ENDCHAR
STARTCHAR uni0B99
ENCODING 2969
SWIDTH 500 0
DWIDTH 8 0
BBX 7 7 0 0
BITMAP
FA
A2
B2
AA
8A
8A
BE
ENDCHAR
STARTCHAR uni0B9A
ENCODING 2970
SWIDTH 500 0
DWIDTH 8 0
BBX 7 7 0 0
BITMAP
3E
28
28
7E
88
88
70
ENDCHAR
STARTCHAR uni0B9C
ENCODING 2972
SWIDTH 500 0
DWIDTH 8 0
BBX 7 9 0 -2
BITMAP
6C
D2
D2
02
7C
80
8C
96
66
ENDCHAR
STARTCHAR uni0B9E
ENCODING 2974
SWIDTH 500 0
DWIDTH 8 0
BBX 7 9 0 -2
BITMAP
9E
A8
A8
AC
BA
BA
82
44
38
ENDCHAR
STARTCHAR uni0B9F
ENCODING 2975
SWIDTH 500 0
DWIDTH 8 0
BBX 7 7 0 0
BITMAP
80
80
80
80
80
80
FE
ENDCHAR
STARTCHAR uni0BA3
ENCODING 2979
SWIDTH 500 0
DWIDTH 8 0
BBX 7 7 0 0
BITMAP
56
AA
AA
AA
AA
EA
EA
ENDCHAR
STARTCHAR uni0BA4
ENCODING 2980
SWIDTH 500 0
DWIDTH 8 0
BBX 7 9 0 -2
BITMAP
3E
28
7C
8A
8A
72
04
78
80
ENDCHAR
STARTCHAR uni0BA8
ENCODING 2984
SWIDTH 500 0
DWIDTH 8 0
BBX 7 9 0 -2
BITMAP
FE
90
94
9A
92
92
04
78
80
ENDCHAR
STARTCHAR uni0BA9
ENCODING 2985
SWIDTH 500 0
DWIDTH 8 0
BBX 7 7 0 0
BITMAP
6E
94
94
94
94
D4
D4
ENDCHAR
STARTCHAR uni0BAA
ENCODING 2986
SWIDTH 500 0
DWIDTH 8 0
BBX 7 7 0 0
BITMAP
82
82
82
82
82
82
FE
ENDCHAR
STARTCHAR uni0BAE
ENCODING 2990
SWIDTH 500 0
DWIDTH 8 0
BBX 7 7 0 0
BITMAP
8C
92
92
92
92
92
FC
ENDCHAR
STARTCHAR uni0BAF
ENCODING 2991
SWIDTH 500 0
DWIDTH 8 0
BBX 7 7 0 0
BITMAP
A2
A2
A2
A2
A2
A2
5E
ENDCHAR
STARTCHAR uni0BB0
ENCODING 2992
SWIDTH 500 0
DWIDTH 8 0
BBX 7 9 0 -2
BITMAP
FE
90
90
90
90
90
90
10
20
ENDCHAR
STARTCHAR uni0BB1
ENCODING 2993
SWIDTH 500 0
DWIDTH 8 0
BBX 7 9 0 -2
BITMAP
5C
A2
A2
A2
A2
A2
04
78
80
ENDCHAR
STARTCHAR uni0BB2
ENCODING 2994
SWIDTH 500 0
DWIDTH 8 0
BBX 7 9 0 0
BITMAP
04
02
62
92
92
92
92
D2
CC
ENDCHAR
STARTCHAR uni0BB3
ENCODING 2995
SWIDTH 500 0
DWIDTH 8 0
BBX 7 7 0 0
BITMAP
6E
94
94
94
94
D4
D4
ENDCHAR
STARTCHAR uni0BB4
ENCODING 2996
SWIDTH 500 0
DWIDTH 8 0
BBX 7 9 0 -2
BITMAP
8C
92
92
92
92
FC
10
8C
70
ENDCHAR
STARTCHAR uni0BB5
ENCODING 2997
SWIDTH 500 0
DWIDTH 8 0
BBX 7 7 0 0
BITMAP
62
92
92
92
92
D2
DE
ENDCHAR
STARTCHAR uni0BB6
ENCODING 2998
SWIDTH 500 0
DWIDTH 8 0
BBX 7 7 0 0
BITMAP
BE
AA
AA
AA
AA
AA
44
ENDCHAR
STARTCHAR uni0BB7
ENCODING 2999
SWIDTH 500 0
DWIDTH 8 0
BBX 7 9 0 -2
BITMAP
44
AA
AA
AA
AA
E4
FE
08
10
ENDCHAR
STARTCHAR uni0BB8
ENCODING 3000
SWIDTH 500 0
DWIDTH 8 0
BBX 7 9 0 0
BITMAP
04
02
52
AA
AA
AA
AA
EA
E4
ENDCHAR
STARTCHAR uni0BB9
ENCODING 3001
SWIDTH 500 0
DWIDTH 8 0
BBX 7 9 0 -2
BITMAP
14
AA
AA
AA
AA
E2
04
78
80
ENDCHAR
STARTCHAR uni0BBE
ENCODING 3006
SWIDTH 500 0
DWIDTH 8 0
BBX 7 7 0 0
BITMAP
1E
54
14
94
14
54
14
ENDCHAR
STARTCHAR uni0BBF
ENCODING 3007
SWIDTH 500 0
DWIDTH 8 0
BBX 7 12 0 -2
BITMAP
0C
12
12
0A
42
02
82
02
42
12
02
02
ENDCHAR
STARTCHAR uni0BC0
ENCODING 3008
SWIDTH 500 0
DWIDTH 8 0
BBX 7 10 0 0
BITMAP
0E
16
10
00
44
00
82
00
44
10
ENDCHAR
STARTCHAR uni0BC1
ENCODING 3009
SWIDTH 500 0
DWIDTH 8 0
BBX 7 6 0 1
BITMAP
10
44
00
BE
0A
4E
ENDCHAR
STARTCHAR uni0BC2
ENCODING 3010
SWIDTH 500 0
DWIDTH 8 0
BBX 7 9 0 -2
BITMAP
18
24
22
FA
2A
3A
02
44
38
ENDCHAR
STARTCHAR uni0BC6
ENCODING 3014
SWIDTH 500 0
DWIDTH 8 0
BBX 7 10 0 0
BITMAP
38
44
82
82
82
82
82
9A
5A
32
ENDCHAR
STARTCHAR uni0BC7
ENCODING 3015
SWIDTH 500 0
DWIDTH 8 0
BBX 7 10 0 0
BITMAP
3C
46
86
80
80
80
80
86
46
3C
ENDCHAR
STARTCHAR uni0BC8
ENCODING 3016
SWIDTH 500 0
DWIDTH 8 0
BBX 7 7 0 0
BITMAP
6C
92
92
92
92
D2
D4
ENDCHAR
STARTCHAR uni0BCA
ENCODING 3018
SWIDTH 500 0
DWIDTH 8 0
BBX 7 10 0 0
BITMAP
60
90
90
9E
94
94
94
94
D4
D4
ENDCHAR
STARTCHAR uni0BCB
ENCODING 3019
SWIDTH 500 0
DWIDTH 8 0
BBX 7 10 0 0
BITMAP
60
E0
80
9E
94
94
94
94
F4
74
ENDCHAR
STARTCHAR uni0BCC
ENCODING 3020
SWIDTH 500 0
DWIDTH 8 0
BBX 7 10 0 0
BITMAP
40
A0
A0
B6
AA
AA
AA
AA
FA
FA
ENDCHAR
STARTCHAR uni0BCD
ENCODING 3021
SWIDTH 500 0
DWIDTH 8 0
BBX 7 10 0 0
BITMAP
18
18
00
10
44
00
82
00
44
10
ENDCHAR
STARTCHAR uni0BD7
ENCODING 3031
SWIDTH 500 0
DWIDTH 8 0
BBX 7 7 0 0
BITMAP
6E
94
94
94
94
D4
D4
ENDCHAR
STARTCHAR uni0BE7
ENCODING 3047
SWIDTH 500 0
DWIDTH 8 0
BBX 7 7 0 0
BITMAP
3E
28
28
7C
8A
8A
72
ENDCHAR
STARTCHAR uni0BE8
ENCODING 3048
SWIDTH 500 0
DWIDTH 8 0
BBX 7 7 0 0
BITMAP
60
90
50
10
60
80
7E
ENDCHAR
STARTCHAR uni0BE9
ENCODING 3049
SWIDTH 500 0
DWIDTH 8 0
BBX 7 7 0 0
BITMAP
F8
A0
A0
B0
A8
88
BE
ENDCHAR
STARTCHAR uni0BEA
ENCODING 3050
SWIDTH 500 0
DWIDTH 8 0
BBX 7 7 0 0
BITMAP
7A
52
52
7E
90
90
60
ENDCHAR
STARTCHAR uni0BEB
ENCODING 3051
SWIDTH 500 0
DWIDTH 8 0
BBX 7 12 0 -2
BITMAP
3C
42
80
BE
A8
AC
AA
AA
AA
82
44
38
ENDCHAR
STARTCHAR uni0BEC
ENCODING 3052
SWIDTH 500 0
DWIDTH 8 0
BBX 7 7 0 0
BITMAP
78
50
50
7E
94
94
60
ENDCHAR
STARTCHAR uni0BED
ENCODING 3053
SWIDTH 500 0
DWIDTH 8 0
BBX 7 7 0 0
BITMAP
7E
84
84
A4
94
94
64
ENDCHAR
STARTCHAR uni0BEE
ENCODING 3054
SWIDTH 500 0
DWIDTH 8 0
BBX 7 9 0 -2
BITMAP
32
4A
2A
0A
0A
FE
8A
8A
72
ENDCHAR
STARTCHAR uni0BEF
ENCODING 3055
SWIDTH 500 0
DWIDTH 8 0
BBX 7 7 0 0
BITMAP
78
50
7C
96
96
96
60
ENDCHAR
STARTCHAR uni0BF0
ENCODING 3056
SWIDTH 500 0
DWIDTH 8 0
BBX 7 9 0 0
BITMAP
38
04
A2
A2
A2
A2
A2
A4
58
ENDCHAR
STARTCHAR uni0BF1
ENCODING 3057
SWIDTH 500 0
DWIDTH 8 0
BBX 7 7 0 0
BITMAP
5E
A4
A4
A4
A4
A4
A4
ENDCHAR
STARTCHAR uni0BF2
ENCODING 3058
SWIDTH 500 0
DWIDTH 8 0
BBX 7 9 0 -2
BITMAP
7C
50
7E
94
96
62
02
7C
80
ENDCHAR
STARTCHAR uni0BF3
ENCODING 3059
SWIDTH 500 0
DWIDTH 8 0
BBX 7 9 0 0
BITMAP
70
88
84
E4
94
94
94
94
66
ENDCHAR
STARTCHAR uni0E01
ENCODING 3585
SWIDTH 500 0
DWIDTH 8 0
BBX 5 7 1 0
BITMAP
70
88
48
88
88
88
88
ENDCHAR
STARTCHAR uni0E02
ENCODING 3586
SWIDTH 500 0
DWIDTH 8 0
BBX 6 7 0 0
BITMAP
64
D4
D4
14
24
24
78
ENDCHAR
STARTCHAR uni0E03
ENCODING 3587
SWIDTH 500 0
DWIDTH 8 0
BBX 6 7 0 0
BITMAP
54
F4
D4
14
24
24
78
ENDCHAR
STARTCHAR uni0E04
ENCODING 3588
SWIDTH 500 0
DWIDTH 8 0
BBX 6 7 0 0
BITMAP
78
84
84
B4
B4
44
44
ENDCHAR
STARTCHAR uni0E05
ENCODING 3589
SWIDTH 500 0
DWIDTH 8 0
BBX 6 7 0 0
BITMAP
68
94
84
B4
B4
44
44
ENDCHAR
STARTCHAR uni0E06
ENCODING 3590
SWIDTH 500 0
DWIDTH 8 0
BBX 6 7 0 0
BITMAP
54
F4
D4
14
64
BC
44
ENDCHAR
STARTCHAR uni0E07
ENCODING 3591
SWIDTH 500 0
DWIDTH 8 0
BBX 5 7 1 0
BITMAP
18
18
88
48
28
28
10
ENDCHAR
STARTCHAR uni0E08
ENCODING 3592
SWIDTH 500 0
DWIDTH 8 0
BBX 5 7 1 0
BITMAP
70
88
08
68
68
28
10
ENDCHAR
STARTCHAR uni0E09
ENCODING 3593
SWIDTH 500 0
DWIDTH 8 0
BBX 7 7 0 0
BITMAP
70
88
08
C8
DC
6A
44
ENDCHAR
STARTCHAR uni0E0A
ENCODING 3594
SWIDTH 500 0
DWIDTH 8 0
BBX 7 7 0 0
BITMAP
62
D4
D8
14
24
24
78
ENDCHAR
STARTCHAR uni0E0B
ENCODING 3595
SWIDTH 500 0
DWIDTH 8 0
BBX 7 7 0 0
BITMAP
52
F4
D8
14
24
24
78
ENDCHAR
STARTCHAR uni0E0C
ENCODING 3596
SWIDTH 500 0
DWIDTH 8 0
BBX 7 7 0 0
BITMAP
72
8A
4A
8A
8A
DE
DA
ENDCHAR
STARTCHAR uni0E0D
ENCODING 3597
SWIDTH 500 0
DWIDTH 8 0
BBX 7 9 0 -2
BITMAP
72
8A
4A
8A
8A
CA
CE
30
3C
ENDCHAR
STARTCHAR uni0E0E
ENCODING 3598
SWIDTH 500 0
DWIDTH 8 0
BBX 6 9 0 -2
BITMAP
38
44
24
44
44
C4
D4
3C
34
ENDCHAR
STARTCHAR uni0E0F
ENCODING 3599
SWIDTH 500 0
DWIDTH 8 0
BBX 6 9 0 -2
BITMAP
38
44
24
44
C4
C4
24
6C
74
ENDCHAR
STARTCHAR uni0E10
ENCODING 3600
SWIDTH 500 0
DWIDTH 8 0
BBX 6 9 0 -2
BITMAP
3C
40
78
04
E4
D4
08
D4
EC
ENDCHAR
STARTCHAR uni0E11
ENCODING 3601
SWIDTH 500 0
DWIDTH 8 0
BBX 7 7 0 0
BITMAP
52
B6
D6
DA
1A
12
12
ENDCHAR
STARTCHAR uni0E12
ENCODING 3602
SWIDTH 500 0
DWIDTH 8 0
BBX 7 7 0 0
BITMAP
52
AA
8A
EA
EA
5E
5A
ENDCHAR
STARTCHAR uni0E13
ENCODING 3603
SWIDTH 500 0
DWIDTH 8 0
BBX 7 7 0 0
BITMAP
64
94
54
94
94
DE
D6
ENDCHAR
STARTCHAR uni0E14
ENCODING 3604
SWIDTH 500 0
DWIDTH 8 0
BBX 6 7 0 0
BITMAP
78
84
B4
B4
54
64
44
ENDCHAR
STARTCHAR uni0E15
ENCODING 3605
SWIDTH 500 0
DWIDTH 8 0
BBX 6 7 0 0
BITMAP
68
94
84
B4
B4
54
64
ENDCHAR
STARTCHAR uni0E16
ENCODING 3606
SWIDTH 500 0
DWIDTH 8 0
BBX 5 7 1 0
BITMAP
70
88
48
88
88
C8
C8
ENDCHAR
STARTCHAR uni0E17
ENCODING 3607
SWIDTH 500 0
DWIDTH 8 0
BBX 6 7 0 0
BITMAP
C8
D4
54
54
64
64
44
ENDCHAR
STARTCHAR uni0E18
ENCODING 3608
SWIDTH 500 0
DWIDTH 8 0
BBX 6 7 0 0
BITMAP
3C
40
78
04
24
24
FC
ENDCHAR
STARTCHAR uni0E19
ENCODING 3609
SWIDTH 500 0
DWIDTH 8 0
BBX 7 7 0 0
BITMAP
C4
C4
44
44
44
5E
66
ENDCHAR
STARTCHAR uni0E1A
ENCODING 3610
SWIDTH 500 0
DWIDTH 8 0
BBX 6 7 0 0
BITMAP
C4
C4
44
44
44
44
FC
ENDCHAR
STARTCHAR uni0E1B
ENCODING 3611
SWIDTH 500 0
DWIDTH 8 0
BBX 6 10 0 0
BITMAP
04
04
04
C4
C4
44
44
44
44
FC
ENDCHAR
STARTCHAR uni0E1C
ENCODING 3612
SWIDTH 500 0
DWIDTH 8 0
BBX 5 7 1 0
BITMAP
C8
C8
88
88
A8
D8
88
ENDCHAR
STARTCHAR uni0E1D
ENCODING 3613
SWIDTH 500 0
DWIDTH 8 0
BBX 5 10 1 0
BITMAP
08
08
08
C8
C8
88
88
A8
D8
88
ENDCHAR
STARTCHAR uni0E1E
ENCODING 3614
SWIDTH 500 0
DWIDTH 8 0
BBX 6 7 0 0
BITMAP
C4
D4
54
6C
6C
44
44
ENDCHAR
STARTCHAR uni0E1F
ENCODING 3615
SWIDTH 500 0
DWIDTH 8 0
BBX 6 10 0 0
BITMAP
04
04
04
C4
D4
54
6C
6C
44
44
ENDCHAR
STARTCHAR uni0E20
ENCODING 3616
SWIDTH 500 0
DWIDTH 8 0
BBX 6 7 0 0
BITMAP
38
44
24
44
44
C4
C4
ENDCHAR
STARTCHAR uni0E21
ENCODING 3617
SWIDTH 500 0
DWIDTH 8 0
BBX 6 7 0 0
BITMAP
C4
C4
44
44
44
F4
CC
ENDCHAR
STARTCHAR uni0E22
ENCODING 3618
SWIDTH 500 0
DWIDTH 8 0
BBX 5 7 1 0
BITMAP
C8
C8
88
48
88
88
F8
ENDCHAR
STARTCHAR uni0E23
ENCODING 3619
SWIDTH 500 0
DWIDTH 8 0
BBX 5 7 1 0
BITMAP
78
80
F0
08
08
18
18
ENDCHAR
STARTCHAR uni0E24
ENCODING 3620
SWIDTH 500 0
DWIDTH 8 0
BBX 5 9 1 -2
BITMAP
70
88
48
88
88
C8
C8
08
08
ENDCHAR
STARTCHAR uni0E25
ENCODING 3621
SWIDTH 500 0
DWIDTH 8 0
BBX 5 7 1 0
BITMAP
70
88
08
68
98
C8
C8
ENDCHAR
STARTCHAR uni0E26
ENCODING 3622
SWIDTH 500 0
DWIDTH 8 0
BBX 6 9 0 -2
BITMAP
38
44
24
44
44
C4
C4
04
04
ENDCHAR
STARTCHAR uni0E27
ENCODING 3623
SWIDTH 500 0
DWIDTH 8 0
BBX 5 7 1 0
BITMAP
70
88
08
08
08
18
18
ENDCHAR
STARTCHAR uni0E28
ENCODING 3624
SWIDTH 500 0
DWIDTH 8 0
BBX 6 9 0 0
BITMAP
04
04
78
84
84
B4
B4
44
44
ENDCHAR
ENDFONT
